<svg id="Layer_1" data-name="Layer 1" xmlns="http://www.w3.org/2000/svg" viewBox="0 0 150 150"><defs><style>.cls-1{fill:#3a4145;}</style></defs><title>browse-01</title><path class="cls-1" d="M126.23,1.82H23.77a9.78,9.78,0,0,0-8.88,5.75,9.65,9.65,0,0,0-.87,4V138.42a9.79,9.79,0,0,0,9.76,9.76H126.23a9.64,9.64,0,0,0,4-.88,9.78,9.78,0,0,0,5.75-8.88V11.58A9.78,9.78,0,0,0,126.23,1.82ZM114.67,128.66H35.33a4.88,4.88,0,1,1,0-9.76h79.34a4.88,4.88,0,1,1,0,9.76Zm0-24.39H35.33a4.88,4.88,0,1,1,0-9.76h79.34a4.88,4.88,0,1,1,0,9.76Zm0-24.39H35.33a4.88,4.88,0,0,1,0-9.76h79.34a4.88,4.88,0,1,1,0,9.76Zm0-24.39H35.33a4.88,4.88,0,0,1,0-9.76h79.34a4.88,4.88,0,1,1,0,9.76Zm0-24.39H35.33a4.88,4.88,0,0,1,0-9.76h79.34a4.88,4.88,0,1,1,0,9.76Z"/></svg>