<svg id="Layer_1" data-name="Layer 1" xmlns="http://www.w3.org/2000/svg" viewBox="0 0 150 150"><defs><style>.cls-1{fill:#3a4145;}</style></defs><title>cart-grey</title><path class="cls-1" d="M57.07,107a1.85,1.85,0,0,0,1.75,1.26c22.13,0,45,0,67.73.06h0a1.84,1.84,0,0,0,0-3.69c-22.25-.06-44.68-.06-66.4-.06-2.58-7.83-4.87-15.44-7.28-23.47-1.27-4.24-2.59-8.62-3.94-13C47.82,64.21,46.7,60.57,45.17,56c-3-9.93-9-29.4-9.09-29.59a1.85,1.85,0,0,0-1.76-1.3H30.74a4.12,4.12,0,0,0-4.12-3.35H6.68a4.08,4.08,0,0,0-4.18,4v2.48a4.08,4.08,0,0,0,4.18,4H26.62a4.12,4.12,0,0,0,4.12-3.37H33c1.4,4.54,6.15,19.87,8.69,28.29l0,0c1.52,4.55,2.62,8.15,3.71,12l0,.05c1.35,4.37,2.67,8.76,3.94,13C51.77,90.33,54.29,98.73,57.07,107Z"/><path class="cls-1" d="M143.32,42.35H49.86a4.08,4.08,0,0,0-4.18,4v2.48a4.08,4.08,0,0,0,4.18,4h1.33l14,47.7A1.84,1.84,0,0,0,67,101.78H126.2a1.84,1.84,0,0,0,1.77-1.32l14-47.7h1.33a4.08,4.08,0,0,0,4.18-4V46.31A4.08,4.08,0,0,0,143.32,42.35Z"/><path class="cls-1" d="M58.79,109.06a9.6,9.6,0,1,0,9.6,9.6A9.61,9.61,0,0,0,58.79,109.06Z"/><path class="cls-1" d="M127.55,109.06a9.6,9.6,0,1,0,9.6,9.6A9.61,9.61,0,0,0,127.55,109.06Z"/></svg>