<svg id="Layer_1" data-name="Layer 1" xmlns="http://www.w3.org/2000/svg" xmlns:xlink="http://www.w3.org/1999/xlink" viewBox="0 0 400 240"><defs><style>.cls-1{fill:#fa9960;}.cls-2{fill:url(#_56);}.cls-3{fill:url(#_56-2);}.cls-4{fill:url(#_58);}.cls-5{fill:url(#_56-3);}.cls-6{fill:#2a2958;}.cls-7{fill:#ff6dc0;}.cls-8{fill:#ff61a6;}.cls-9{fill:#ffa347;}.cls-10{fill:#fff;}.cls-11{fill:#f45631;}.cls-12{fill:#f46700;}.cls-13{fill:url(#_56-4);}.cls-14{fill:url(#_58-2);}.cls-15{fill:#ffa3b8;}.cls-16{fill:url(#_56-5);}.cls-17{fill:url(#_56-6);}.cls-18{fill:url(#_56-7);}.cls-19{fill:url(#_56-8);}.cls-20{fill:url(#_56-9);}.cls-21{fill:url(#_56-10);}.cls-22{fill:url(#_56-11);}.cls-23{fill:url(#_58-3);}.cls-24{fill:url(#_56-12);}.cls-25{fill:url(#_56-13);}.cls-26{fill:#ebebeb;}.cls-27{fill:#dbdbdb;}.cls-28{fill:#ef532c;}.cls-29{fill:#253596;}.cls-30{fill:#ec4f28;}.cls-31{fill:#ff89a5;}.cls-32{fill:#12113c;}.cls-33{fill:#ff6b00;}</style><linearGradient id="_56" x1="329.35" y1="236.34" x2="347.09" y2="236.34" gradientUnits="userSpaceOnUse"><stop offset="0" stop-color="#9e377a"/><stop offset="1" stop-color="#66225b"/></linearGradient><linearGradient id="_56-2" x1="310.05" y1="236.34" x2="327.78" y2="236.34" xlink:href="#_56"/><linearGradient id="_58" x1="303.37" y1="169.47" x2="359.98" y2="169.47" gradientUnits="userSpaceOnUse"><stop offset="0" stop-color="#8a2967"/><stop offset="1" stop-color="#591a4e"/></linearGradient><linearGradient id="_56-3" x1="336.03" y1="168.92" x2="359.98" y2="168.92" xlink:href="#_56"/><linearGradient id="_56-4" x1="37.98" y1="94.9" x2="129.47" y2="94.9" xlink:href="#_56"/><linearGradient id="_58-2" x1="72.83" y1="105" x2="79.9" y2="105" xlink:href="#_58"/><linearGradient id="_56-5" x1="128.52" y1="180.78" x2="151.53" y2="180.78" xlink:href="#_56"/><linearGradient id="_56-6" x1="112.27" y1="179.71" x2="136.12" y2="179.71" xlink:href="#_56"/><linearGradient id="_56-7" x1="118.14" y1="237.13" x2="136.06" y2="237.13" xlink:href="#_56"/><linearGradient id="_56-8" x1="141.45" y1="237.13" x2="159.37" y2="237.13" xlink:href="#_56"/><linearGradient id="_56-9" x1="244.33" y1="236.13" x2="270.14" y2="236.13" xlink:href="#_56"/><linearGradient id="_56-10" x1="189.57" y1="89.32" x2="275.33" y2="89.32" xlink:href="#_56"/><linearGradient id="_56-11" x1="206.26" y1="235.57" x2="232.07" y2="235.57" xlink:href="#_56"/><linearGradient id="_58-3" x1="250.78" y1="98.58" x2="260.55" y2="98.58" xlink:href="#_58"/><linearGradient id="_56-12" x1="187.24" y1="235.46" x2="205.65" y2="235.46" xlink:href="#_56"/><linearGradient id="_56-13" x1="170.27" y1="235.85" x2="188.54" y2="235.85" xlink:href="#_56"/></defs><title>family-2</title><path class="cls-1" d="M345.23,202.68c.65,10.46.89,22.43,1.08,30.55a6.55,6.55,0,0,1-7.35.67s-5.18-17.08-5.86-32.41A25.12,25.12,0,0,1,345.23,202.68Z"/><path class="cls-2" d="M346.3,233.29c.67,1,.82,3.22.78,4.73a1.4,1.4,0,0,1-1.4,1.37H329.35c0-3.44,3.81-4.66,9.6-5.49C343.54,233.43,346.3,233.29,346.3,233.29Z"/><path class="cls-1" d="M346.3,233.29c-.73,2.53-8.42,3-9.89,2.53s1.64-1.41,2.54-1.92C339.66,233.51,346.3,233.29,346.3,233.29Z"/><path class="cls-1" d="M329.35,205.64c-.85,9.85-1.89,19.87-2.36,27.59a6.55,6.55,0,0,1-7.35.67s-.74-12.15-2.54-28.27A38.39,38.39,0,0,1,329.35,205.64Z"/><path class="cls-3" d="M327,233.29c.67,1,.82,3.22.78,4.73a1.4,1.4,0,0,1-1.4,1.37H310c0-3.44,3.81-4.66,9.6-5.49C324.23,233.43,327,233.29,327,233.29Z"/><path class="cls-1" d="M327,233.29c-.83,2.53-8.42,3-9.89,2.53s1.64-1.41,2.54-1.92C320.36,233.51,327,233.29,327,233.29Z"/><path class="cls-4" d="M360,212.75c-2.68,1.05-8.39,2.31-15.45,3.19-12.58,1.56-29.46,1.94-41.16-2.13.27-22.13,5.45-90.16,5.45-90.16L342,122.15l5.47-.25C349.69,128.41,360,179.37,360,212.75Z"/><path class="cls-5" d="M360,212.75c-2.68,1.05-8.39,2.31-15.45,3.19h0c-1-32.29-8.5-89.51-8.5-89.51l5.95-4.27,5.47-.25C349.69,128.41,360,179.37,360,212.75Z"/><path class="cls-6" d="M317.43,31.5c-2.68-4.72,1.79-11,9.5-9.83s10,7.73,6.18,10.35S317.43,31.5,317.43,31.5Z"/><path class="cls-7" d="M338.05,74.15l-.33,50.09-19.56-.51-3.31-.09L312.55,113l-4.31-19.87,5-20.16c6.42-1.41,18.27.16,18.27.16Z"/><path class="cls-1" d="M318.37,31.43c-4.92.82-11.46,7-9.31,19.29s8.7,14.94,11.89,14.66a15.93,15.93,0,0,0,14.62-13.13C337.77,41.73,335.37,28.59,318.37,31.43Z"/><path class="cls-8" d="M315.14,103.88l3,19.85-4.16,0L312.55,113l-1.74-16c4,3.5,11.82,5.75,11.82,5.75Z"/><path class="cls-1" d="M319.14,63.24s-.48,9.19-3.47,9.19c1.63,3.51,8.41,10.57,15.86.71-2.66-3.08-2.84-10.82-2.84-10.82Z"/><path class="cls-9" d="M311.44,98.32c.74,7.16,3.43,30,3.43,30l-5-2.61s-.76-14.18-3.42-22-5-6.41-3.13-13.41a236.61,236.61,0,0,0-27.16,6.85,17.13,17.13,0,0,1-3.28-2.35c-1.77-1.5-2.93-5.77-6-9.46,21.32-2.42,39.64-11,49.48-13.09,0,0-8.12,11.75-5.5,21.75A38,38,0,0,1,311.44,98.32Z"/><path class="cls-9" d="M367,105.47c-.2,6.55-5.12,16.44-15.31,20.93-.32-1-.62-1.9-.89-2.6h0a15,15,0,0,0-1.25-2.73l1.21-2.93c1.66-4,5.08-13.36,5.71-14.26C351.95,99.8,345.08,91,344.79,90.42a18.82,18.82,0,0,1,1.12,3.07c1.28,4.39,3,13.76,1.8,30-.08,1-1.37,2.06-3.25,2.9-3.31,1.49-8.44,2.35-12,1.29,1.67-16.22-3.07-23-1.5-34.71a86.34,86.34,0,0,0,.6-19.87C336.26,73,343.41,72,353.7,83S367.18,99.37,367,105.47Z"/><path class="cls-6" d="M340.91,47.2c-.3,9.42-9.63,17.29-12.3,15.61,5.7-2.85,4.82-12.39,3.14-15.1-8.65-.87-13.88-7.75-14-13.38,0-1.21,2.18-4.91,5.54-5.14,10.25-.7,15.91,5,17.43,15.5A14.17,14.17,0,0,1,340.91,47.2Z"/><path class="cls-6" d="M318.75,37c-1,2.22-7.28,8.75-9.3,9.39a20,20,0,0,0,1.85,11.72c-2.47-1.5-4.49-5.48-4.9-10.24a20.32,20.32,0,0,1,1.76-10.23c3.89-8.43,12.55-8.08,12.92-7.71S318.75,37,318.75,37Z"/><circle cx="323.03" cy="50.49" r="1.32" transform="translate(-3.65 37.05) rotate(-6.53)"/><circle cx="313.56" cy="52.1" r="1.32" transform="translate(-3.89 35.99) rotate(-6.53)"/><path class="cls-10" d="M325.53,47.4a.61.61,0,0,1-.41-.16,3.81,3.81,0,0,0-3.28-.55.61.61,0,0,1-.35-1.17,5,5,0,0,1,4.45.82.61.61,0,0,1-.41,1.07Z"/><path class="cls-10" d="M310.77,49.16a.56.56,0,0,1-.45-.89,4.83,4.83,0,0,1,3.55-1.62.56.56,0,0,1,0,1.12,3.76,3.76,0,0,0-2.66,1.16A.56.56,0,0,1,310.77,49.16Z"/><path class="cls-11" d="M318.92,57.74a1.87,1.87,0,0,1-1.35-.66c-.87-1.1-.14-2.95-.11-3a.38.38,0,0,1,.71.29c-.17.42-.49,1.64,0,2.27s2.09.22,2.11.22a.38.38,0,0,1,.24.72A4.36,4.36,0,0,1,318.92,57.74Z"/><path class="cls-10" d="M324.34,58.11a.49.49,0,0,1,.64.47,3.9,3.9,0,0,1-6.45,2.13.49.49,0,0,1,.24-.75,12,12,0,0,0,5.56-1.85Z"/><path class="cls-6" d="M313.56,55.83a3.56,3.56,0,1,1,3.54-4h0A3.56,3.56,0,0,1,314,55.81Zm0-6.22-.3,0a2.66,2.66,0,1,0,.3,0Z"/><path class="cls-6" d="M323,54.34a3.56,3.56,0,1,1,3.54-4h0a3.56,3.56,0,0,1-3.13,3.94Zm0-6.22-.31,0a2.66,2.66,0,1,0,2.95,2.34h0A2.66,2.66,0,0,0,323,48.12Z"/><rect class="cls-6" x="326.26" y="48.45" width="6.13" height="1.05" transform="translate(-2 81.76) rotate(-14.11)"/><rect class="cls-6" x="316.54" y="50.75" width="3.4" height="0.9" transform="translate(-4.08 48.82) rotate(-8.72)"/><path class="cls-1" d="M335.53,51.8c-.79,1.74-2.58,2.62-4,2s-1.92-2.57-1.13-4.31,2.5-2.89,3.91-2.25S336.32,50.06,335.53,51.8Z"/><path class="cls-11" d="M332.32,52.29a.38.38,0,0,1-.29-.1,1.6,1.6,0,0,1-.51-1.31,3.5,3.5,0,0,1,1.57-2.42.38.38,0,1,1,.45.62,2.8,2.8,0,0,0-1.26,1.85.85.85,0,0,0,.27.71.38.38,0,0,1-.23.66Z"/><path class="cls-12" d="M305.64,103c-2.65-7.82-3.78-5.83-1.93-12.82A236.6,236.6,0,0,0,276.55,97s-2.7-4.81-4.84-6.63c4.52.2,26.11-4.68,35-6.62.89,3.23-.84,8.09.84,11.08C307.86,95.89,308.29,110.79,305.64,103Z"/><path class="cls-12" d="M345.91,93.49c1.28,4.39,3,13.76,1.8,30-.08,1-1.37,2.06-3.25,2.9a19.65,19.65,0,0,1-2.41-.19c3-13.37-1.13-40-1.13-40l3.86,4.15h0Z"/><path class="cls-12" d="M350.79,123.79a15,15,0,0,0-1.25-2.73l1.21-2.93C350.77,120.88,350.79,123.24,350.79,123.79Z"/><path class="cls-1" d="M351.68,126.4c-1.49,1.78-2.6,4.68-8.18,4.63s-3.5-4.76.22-5.4,3.13-.84,3.59-1.88a9.18,9.18,0,0,0,.59-2.65s-.71-3.06.76-1.81a5.11,5.11,0,0,1,1.25,2C350.63,123.53,351.68,126.4,351.68,126.4Z"/><ellipse class="cls-10" cx="113.92" cy="43.74" rx="3.65" ry="2.58" transform="translate(62.6 154.45) rotate(-86.14)"/><circle class="cls-10" cx="87.3" cy="49.35" r="3.45" transform="translate(32.18 133.12) rotate(-86.14)"/><path class="cls-6" d="M38.6,135.27c-.19-1.19,3-5.72,5.85-5.22s2.92,7.85,2.92,7.85h4.11s.3-11.41-7.11-11.75C39.92,125.51,34,127,34,135.53A9.57,9.57,0,0,0,38.6,135.27Z"/><path class="cls-1" d="M38,121.93c-2.11.71-8.28,6-2.7,10.41,5.78,4.53,12.07-1.88,8.86-2.25-5-.57-2.29-4.07-.57-3.91,4.49.42,5.57,3,5.57,3s1-2.16-.82-5.16c-.58-.62-1.54-2.45-3.89-2.9C41.67,120.56,38,121.93,38,121.93Z"/><path class="cls-13" d="M129.47,86.48l-7.38,8-4.54-6.18s-1.39,5-.15,36.05c.13,3.13-27.3,2.64-38.83,1.62-3-.27-5-.57-5-.86-2.51-21.17,2.12-36.3,2.44-37.34v0l0,.07v0l0,.1-.12.33-.05.15-.13.37-.07.2c-1.29,3.69-5,14-7.45,18.95-3.05,6.09-19.81,16-19.81,16s-1.07-1.25-5.95-1.92c-4.05-.55-4.38-.65-4.38-.65l18.38-18.13S58.41,91.88,66.1,78,81,64.6,90.18,63.11c0,0,5.43-.62,15.4,2.26C119.38,69.36,129.47,86.48,129.47,86.48Z"/><path class="cls-1" d="M114.73,45.79c-.63,9.35-9.17,16.39-15.34,16S85.69,53.22,86.32,43.87s7.44-15.58,15.28-15S115.36,36.44,114.73,45.79Z"/><path class="cls-14" d="M79.9,125a6.38,6.38,0,0,1-1.32,1c-3-.27-5-.57-5-.86-2.51-21.17,2.12-36.3,2.44-37.34v0h0L79.36,84S75.91,100.3,79.9,125Z"/><path class="cls-1" d="M89.72,52.28,89,63s3.84,11.38,10,16.53c3.09-5.92,6.59-14.19,6.59-14.19l-2-8.35Z"/><path class="cls-6" d="M73.58,125.11s-1.3,16.16,1,27.8,7,31.19,7,31.19l-5.18,55,13.12.31,10.88-55.61-1.61-35.35L105.63,179l1.78,59.86h15V171.68l-5-47.35Z"/><path class="cls-6" d="M79.36,65.17c3.4,6.85,2.48,39.51.54,59.82H85s5.26-41.16-1.09-60.94A11.88,11.88,0,0,0,79.36,65.17Z"/><path class="cls-6" d="M109.05,66.5s1.54,34.66-3.46,60.37c5.26.13,4.81-1.22,4.81-1.22s4-31.78,3.58-56.24C112.81,67.89,109.05,66.5,109.05,66.5Z"/><path class="cls-9" d="M99,79.57l6.59-14.19a16.26,16.26,0,0,1,6.27,1.73,7.68,7.68,0,0,1-2.38,5.18l-3.37-.37,1.5,3Z"/><path class="cls-9" d="M99,79.57,89,63s-4.29-.81-6.69.92c.52,3.37,5.82,9,5.82,9l3.33-.66-1.24,3.11Z"/><polygon class="cls-6" points="38.6 238.13 33.95 238.13 33.95 135.44 38.6 135.12 38.6 238.13"/><circle class="cls-9" cx="101.38" cy="84.58" r="1.28" transform="translate(10.17 180.04) rotate(-86.14)"/><circle class="cls-9" cx="100.61" cy="95.94" r="1.28" transform="translate(-1.88 189.86) rotate(-86.14)"/><circle class="cls-9" cx="99.85" cy="107.29" r="1.28" transform="translate(-13.93 199.68) rotate(-86.14)"/><circle class="cls-9" cx="99.08" cy="118.64" r="1.28" transform="matrix(0.07, -1, 1, 0.07, -25.96, 209.51)"/><circle class="cls-10" cx="88.08" cy="37.68" r="3.45" transform="matrix(0.07, -1, 1, 0.07, 44.55, 123.02)"/><circle class="cls-10" cx="91.15" cy="40.89" r="2.58" transform="translate(44.21 129.08) rotate(-86.14)"/><circle class="cls-10" cx="84.44" cy="40.44" r="3.45" transform="matrix(0.07, -1, 1, 0.07, 38.41, 121.97)"/><circle class="cls-10" cx="84.14" cy="44.95" r="3.45" transform="translate(-9.75 28.07) rotate(-17.92)"/><circle cx="110.25" cy="45.72" r="1.33" transform="translate(57.2 152.63) rotate(-86.14)"/><circle cx="99.9" cy="45.02" r="1.33" transform="translate(48.25 141.66) rotate(-86.14)"/><path class="cls-10" d="M96.95,42.13a.77.77,0,0,1-.27-1.33c1.86-1.5,4.59-.37,4.71-.32a.77.77,0,0,1-.6,1.41h0s-2-.82-3.14.1A.77.77,0,0,1,96.95,42.13Z"/><path class="cls-10" d="M113,43.51a.77.77,0,0,1-.68-.31c-.87-1.18-2.82-.65-2.84-.65a.77.77,0,0,1-.43-1.47c.12,0,3-.85,4.51,1.21a.77.77,0,0,1-.56,1.22Z"/><path class="cls-11" d="M104.63,53.44a4.33,4.33,0,0,1-1.89-.53.43.43,0,0,1,.44-.73,4,4,0,0,0,2.91.26.81.81,0,0,0,.51-.36c.21-.56-.26-2.49-.67-3.68a.43.43,0,0,1,.81-.27c.18.53,1.05,3.21.66,4.25a1.56,1.56,0,0,1-1,.87A4.56,4.56,0,0,1,104.63,53.44Z"/><path class="cls-10" d="M113.09,52.79c.23-.94.32-1.54.32-1.54a7.56,7.56,0,0,1-1.81,2.31c-1.55,1.22-3.31.94-8.45.36-6.39-.73-13.65.65-15.55-5.83l-1-.09a21.93,21.93,0,0,0,.53,4.09c-.44,3,.54,4.43,1.19,4.53.37,4.3,2.77,4.35,3.4,4.25h0a4.74,4.74,0,0,0,5,2.66h0c3.93,2.84,6,1.17,6.6.43,2.38,1.24,4.53-1.22,5-2.43,2.6.45,2.88-3,2.94-3.84C112.94,57.38,112.95,54.76,113.09,52.79Z"/><path d="M103,57.37a7,7,0,0,1-4.07-1.79.49.49,0,0,1,.69-.71A5.53,5.53,0,0,0,105.39,56a.49.49,0,0,1,.38.91A6,6,0,0,1,103,57.37Z"/><path class="cls-11" d="M101.07,36.75a.43.43,0,0,1-.12-.82c.2-.08,5-1.84,8.79.61a.43.43,0,0,1-.46.72c-3.46-2.22-8-.54-8-.53A.42.42,0,0,1,101.07,36.75Z"/><path class="cls-11" d="M101.18,34.44a.43.43,0,0,1-.16-.81,8.75,8.75,0,0,1,7.46.09.43.43,0,1,1-.41.75,8,8,0,0,0-6.68-.07A.43.43,0,0,1,101.18,34.44Z"/><path class="cls-6" d="M102.08,48.12l-4.4-.3a2,2,0,0,1-1.87-2.14l.1-1.41a2,2,0,0,1,2.14-1.87l4.4.3a2,2,0,0,1,1.87,2.14l-.1,1.41A2,2,0,0,1,102.08,48.12ZM98,43.44a1,1,0,0,0-1,.9l-.1,1.41a1,1,0,0,0,.9,1l4.4.3a1,1,0,0,0,1-.9l.1-1.41a1,1,0,0,0-.9-1Z"/><path class="cls-6" d="M112.69,48.82l-4.07-.27a2,2,0,0,1-1.82-2.08l.1-1.5A2,2,0,0,1,109,43.15l4.07.27a2,2,0,0,1,1.82,2.08l-.1,1.5A2,2,0,0,1,112.69,48.82Zm-3.77-4.66a.94.94,0,0,0-1,.87l-.1,1.49a.94.94,0,0,0,.87,1l4.07.27a.94.94,0,0,0,1-.87l.1-1.5a.94.94,0,0,0-.87-1Z"/><rect class="cls-6" x="105.16" y="43.94" width="1.02" height="3.41" transform="translate(53.01 147.99) rotate(-86.14)"/><rect class="cls-6" x="92.41" y="40.15" width="1.27" height="6.98" transform="translate(25.73 121.31) rotate(-74.21)"/><ellipse class="cls-1" cx="87.06" cy="43.97" rx="3.52" ry="4.3" transform="translate(-10.18 36.44) rotate(-22.37)"/><path class="cls-11" d="M88.06,46.35a.43.43,0,0,1-.34-.64A1.88,1.88,0,0,0,87.89,44a3.22,3.22,0,0,0-2-1.69.43.43,0,0,1,.22-.82,4.08,4.08,0,0,1,2.57,2.19,2.72,2.72,0,0,1-.22,2.48A.43.43,0,0,1,88.06,46.35Z"/><polygon class="cls-9" points="96.47 124.7 95.58 124.72 98.63 79.54 99.37 79.59 96.47 124.7"/><polygon class="cls-15" points="142.79 117.94 139.03 107 131.73 112.71 135.18 120.28 142.79 117.94"/><path class="cls-1" d="M103.72,139.86c-2.92,6.43-4.66,7.59-5.39,10.7s-3,26.69-3,26.69l5.16-.89s3.72-18.32,5.67-23.06a24.51,24.51,0,0,1,6.07-8.23Z"/><polygon class="cls-1" points="155.68 130.44 161.69 134.9 162.53 144.24 152.42 139.79 155.68 130.44"/><polygon class="cls-1" points="115.82 165.68 118.26 234.86 125.58 235.02 132.11 172.5 115.82 165.68"/><polygon class="cls-1" points="135.18 189.58 141.45 234.86 148.29 235.02 148.6 188.88 135.18 189.58"/><polygon class="cls-16" points="147.06 164.36 151.53 197.2 135.65 197.2 128.52 168.01 147.06 164.36"/><polygon class="cls-17" points="113.75 163.06 112.27 195.05 132.38 196.35 136.12 164.48 113.75 163.06"/><path class="cls-7" d="M152.65,141.14l-7.57-2.61s1.39,13.44,4.21,27.07c-12.68,6.06-25.89,3.63-32.61,1.65a39.22,39.22,0,0,1-4.49-1.57l4-23.5-4.46,6a43.28,43.28,0,0,1-10.7-7.83c9.45-20.48,19.57-21.92,23.71-21.88,0,0,5.51-.27,10.47,0,10.59.61,20.87,10.66,20.87,10.66Z"/><path class="cls-1" d="M142.5,93.93c1.21,5.81-1.22,20.08-10,20.08-6.2,0-12.65-6-13.89-18.34S139.19,78,142.5,93.93Z"/><path class="cls-1" d="M125,110.38a74.31,74.31,0,0,1-.43,9.29s5.56,5,10.59.61a35.43,35.43,0,0,0-1.3-9.1Z"/><path class="cls-6" d="M125,93.61c2.43,2.19,12.2,4,20.78,1.13s-.07-5-3-4.29c6.19-.73,7-2.83,3.43-4.13s-5.06-.88-5.06-.88-2-5.79-11.09-6.42c-7.13-.5-17.88,4.26-15.9,18.49,1.23,8.88,8.54,11.25,9,11.28-1.33-1.54-2.12-8.08-2.12-8.08Z"/><ellipse class="cls-1" cx="120.53" cy="100.71" rx="2.99" ry="3.95" transform="translate(-34.2 73.76) rotate(-30)"/><path class="cls-18" d="M118.14,234.86v3.47a1.07,1.07,0,0,0,1.07,1.07h16.85s-.31-4.08-7.08-4.28S118.14,234.86,118.14,234.86Z"/><path class="cls-19" d="M141.45,234.86v3.47a1.07,1.07,0,0,0,1.07,1.07h16.85s-.31-4.08-7.08-4.28S141.45,234.86,141.45,234.86Z"/><circle cx="130.62" cy="100.96" r="1.11"/><circle cx="139.03" cy="100.96" r="1.11"/><path class="cls-6" d="M128.58,99.18a.37.37,0,0,1-.26-.64,3.52,3.52,0,0,1,3.19-.89.37.37,0,0,1-.19.72,2.76,2.76,0,0,0-2.48.7A.37.37,0,0,1,128.58,99.18Z"/><path class="cls-6" d="M140.61,99.41a.37.37,0,0,1-.29-.14c-.61-.78-2.12-.63-2.13-.63a.37.37,0,0,1-.08-.74,3.45,3.45,0,0,1,2.8.91.37.37,0,0,1-.29.6Z"/><path class="cls-11" d="M135.21,107.41a3.94,3.94,0,0,1-.72-.07.41.41,0,1,1,.15-.81,2,2,0,0,0,1.88-.42l-.55-2.17a.41.41,0,0,1,.8-.2l.64,2.55-.1.15A2.48,2.48,0,0,1,135.21,107.41Z"/><path class="cls-11" d="M134.1,110.85c-3.7,0-4.48-2.6-4.49-2.62a.41.41,0,0,1,.79-.23c0,.1.73,2.29,4.32,2a.41.41,0,0,1,.07.82Z"/><path class="cls-11" d="M121.41,102.77l-.13,0a.41.41,0,0,1-.25-.52,1.64,1.64,0,0,0,0-1.45,2.31,2.31,0,0,0-1.5-.8.41.41,0,0,1,.09-.82,3.09,3.09,0,0,1,2.11,1.18,2.41,2.41,0,0,1,.12,2.16A.41.41,0,0,1,121.41,102.77Z"/><path class="cls-1" d="M139.2,119.16c2.12.62,1.17,3.81.76,5.23s3.93,1.89,5.9-.56-.2-6.14-3.25-7-6.22-.29-6.84,1.71C137.46,118.78,139.2,119.16,139.2,119.16Z"/><path class="cls-1" d="M95.31,177.25c-.67.95-1.35,5,1.42,5.63s6.58-3.13,5.47-4.85-1.7-1.78-1.7-1.78Z"/><path class="cls-8" d="M120,137.71l-3.28,29.55a39.22,39.22,0,0,1-4.49-1.57l4-23.5Z"/><polygon class="cls-10" points="270.05 229.28 270.14 233.51 256.38 233.87 256.09 229.28 270.05 229.28"/><path class="cls-20" d="M270.14,232.86v5a1.54,1.54,0,0,1-1.54,1.54H244.33s.45-5.88,10.19-6.17S270.14,232.86,270.14,232.86Z"/><polygon class="cls-10" points="231.82 229.28 232.07 233.51 219.16 233.87 219.16 229.34 231.82 229.28"/><polygon class="cls-8" points="211.93 123.99 219.16 229.34 232.07 229.28 237.68 121.72 211.93 123.99"/><polygon class="cls-7" points="257.94 122.1 270.05 229.28 256.09 229.28 227.34 122.1 257.94 122.1"/><polygon class="cls-1" points="271.7 76.09 295.28 108.5 289.58 116.51 263.67 85.81 271.7 76.09"/><path class="cls-21" d="M275.33,74.92c-3.94,6.37-12.44,13.45-12.44,13.45s-3.19-4.23-7.89-10.15c3.49,17.89,5.56,42.56,5.56,42.56a47.44,47.44,0,0,1-6.48,2.91c-8.77,3.28-25.44,7.3-43.68.28.66-8.19,1.29-40.3,1.29-40.3L196,90.47l-6.48-17,13.7-11s6.24-8.08,22.43-10.85S253.82,51.36,275.33,74.92Z"/><path class="cls-6" d="M236.12,37.87c2.72.38,7,0,8.6-4.26,1.76-4.59-.34-7.65-.38-12s-.15-7.27,0-9.45-8.93-.39-8.93-.39Z"/><path class="cls-1" d="M214.06,25.38c.48,7.71,3.49,15.92,10.22,18.91,8.07,3.6,14.23-4.42,15.53-14s-1.16-17.73-9.45-19.93S213.29,12.83,214.06,25.38Z"/><path class="cls-1" d="M226,44.3l-1.15,8.95s6.75,7.22,14.29-1.11c-.73-3.8-1.3-16-1.3-16Z"/><path class="cls-6" d="M229.33.67c-9.46,1.63-10.27,7.67-13.76,9.61S211,5.74,207.11,8.07c-8.44,5.3-3.91,16.28,2.17,18.61s5.27-2.66,8.93-5.56c3.93-3.11,5.34-4,9.81,0,2,1.78,4.84.06,6.57-3.91a32.74,32.74,0,0,0,1.47,6.55l4.6-4.69-1.13-3.61c1.74.69,4.58-.35,4.77-2.34C245.25,4.16,237.61-.75,229.33.67Z"/><ellipse class="cls-1" cx="239.36" cy="24.3" rx="4.44" ry="3.54" transform="translate(128.74 237.95) rotate(-68.42)"/><circle cx="219.28" cy="29.27" r="1.39"/><circle cx="229.09" cy="28.45" r="1.39"/><path class="cls-6" d="M216.07,28.09a.58.58,0,0,1-.48-.9,4.8,4.8,0,0,1,4-2.38.58.58,0,0,1-.06,1.16,3.67,3.67,0,0,0-3,1.86A.58.58,0,0,1,216.07,28.09Z"/><path class="cls-6" d="M231.73,26.5a.58.58,0,0,1-.48-.25,3.49,3.49,0,0,0-4-1.18.58.58,0,0,1-.4-1.09,4.61,4.61,0,0,1,5.32,1.6.58.58,0,0,1-.47.91Z"/><path class="cls-11" d="M223.68,35.77a2.13,2.13,0,0,1-1.12-.24.89.89,0,0,1-.41-.6,37.89,37.89,0,0,1,0-4.66.39.39,0,0,1,.77,0,36.15,36.15,0,0,0,0,4.49.12.12,0,0,0,.07.09,4,4,0,0,0,2.18-.09.39.39,0,0,1,.19.75A7.35,7.35,0,0,1,223.68,35.77Z"/><path class="cls-11" d="M224.82,39.74a7.61,7.61,0,0,1-1.64-.17.58.58,0,0,1,.28-1.12c.16,0,3.84.9,5.7-2a.58.58,0,1,1,1,.62A6,6,0,0,1,224.82,39.74Z"/><path class="cls-11" d="M239,27.06a.38.38,0,0,1-.16,0,2.08,2.08,0,0,1-1.28-1.91,4.32,4.32,0,0,1,2-3.45.39.39,0,0,1,.36.69,3.55,3.55,0,0,0-1.59,2.74,1.29,1.29,0,0,0,.83,1.22.39.39,0,0,1-.16.74Z"/><path class="cls-22" d="M232.07,232.3v5a1.54,1.54,0,0,1-1.54,1.54H206.26s.45-5.88,10.19-6.17S232.07,232.3,232.07,232.3Z"/><path class="cls-23" d="M260.55,120.79a47.44,47.44,0,0,1-6.48,2.91c0-10.1-3.29-50.25-3.29-50.25L255,78.23C258.48,96.12,260.55,120.79,260.55,120.79Z"/><path class="cls-24" d="M188.24,232.38a8.66,8.66,0,0,0-.88,5.51,95.9,95.9,0,0,0,18.29.36c0-4-4.91-4-10.9-5.35C189.39,232.35,188.24,232.38,188.24,232.38Z"/><path class="cls-1" d="M188.24,232.38c.68,1.25,9.59,3.18,11.15,2.32.71-.4-3.08-1.43-4.78-1.76A59.66,59.66,0,0,0,188.24,232.38Z"/><path class="cls-6" d="M184.62,26.45c1.06,2.73,4.39,4.85,7.63,3.5,2.23,1.88,7,3.13,8.85-3.35s-3.36-16.11-17.28-16.09c-6.2,0-9.69,3.44-11.69,7.55-3.27-2.89-15.66-5.61-21.76,5.62s1.79,17.89,1.79,17.89-9.19-1.37-10,10.2,10.56,11.38,10.56,11.38-8.1,3.55-4.56,11.8,18.72,2.67,18.72,2.67,33.16-4.86,39-18.63-4.67-20-12.43-21.27c4.22-1.59,2.74-8.17-4.91-8.66C184.81,28.83,184.62,26.45,184.62,26.45Z"/><path class="cls-1" d="M169.13,188.47c.82,10.63,1.83,35.93,2.27,44.27,3.63,3.16,6.46.42,6.46.42s2.43-27.59,3.08-44.15A42.71,42.71,0,0,0,169.13,188.47Z"/><path class="cls-1" d="M196.43,187.94l-1.82,45s-4.49,1-6.37-.56c-2.2-15.22-3.9-43.38-3.9-43.38Z"/><path class="cls-25" d="M171.5,232.31c-1.23,1.57-1.32,4.21-1.18,5.33a95.92,95.92,0,0,0,18.21,1.75c.31-4-4.59-4.34-10.46-6.17A42.32,42.32,0,0,0,171.5,232.31Z"/><path class="cls-1" d="M171.5,232.31c.58,1.3,9,3.57,10.62,2.83.74-.34-2.45-1.33-4-1.91A32.6,32.6,0,0,0,171.5,232.31Z"/><path class="cls-9" d="M188.06,61.65c4.63.25,10.06,3.53,14,8.85s10.46,12.38,11.7,17.13-5.67,13.55-21.47,16.14A155.17,155.17,0,0,1,165,106l7.75-44.65Z"/><path class="cls-1" d="M190.74,31c.93,6.37,2.78,16.65-7.22,23.59-3.16,1.71-9.12-.89-12.51-7.71s-4.66-16.73-1.19-20S189,19.31,190.74,31Z"/><path class="cls-1" d="M176,51.12s1.12,9.1-3.22,10.22c1.37,3.84,5.92,5.46,9.07,5.37s6.22-5.06,6.22-5.06-3.42.3-4.07-2.81a21,21,0,0,1-.42-5.91Z"/><path class="cls-9" d="M198.44,196.48a27.06,27.06,0,0,1-6,1.67c-9.17,1.63-22.28,1-26.13-1.67-8.51-29.52-4.21-77.57-1.38-82.7,2.47-4.49,33.45-14.45,33.48-14q0,.25,0,.49c.29,2.66,1.7,5,3.25,10.57C205.78,125.24,203.21,172.86,198.44,196.48Z"/><path class="cls-12" d="M198.44,196.48a27.06,27.06,0,0,1-6,1.67c1.2-8.36,5.72-40.94,6.24-59,.61-20.85-3.66-35.89-3.66-35.89l3.81-1c.74,2.24,1.31,3.12,2.87,8.66C205.78,125.24,203.21,172.86,198.44,196.48Z"/><path class="cls-6" d="M163.87,31.8s19.49,7.59,26.84-9.85C183.73,20.32,171.41,20,163.87,31.8Z"/><path class="cls-10" d="M210.28,81.17a72,72,0,0,1-7,9.52c-4.1,4.72-9.06,9.18-14.37,11.92a28.59,28.59,0,0,1-3.07,1.36,21.17,21.17,0,0,1-6.35,1.38c-12.5.65-17.69-6-8.45-18.29a135.4,135.4,0,0,1,15-14h0c4.11-3.2,8.43-5.94,12.08-6.84C208.71,63.6,216.35,71.21,210.28,81.17Z"/><path class="cls-26" d="M188.92,102.61a23.3,23.3,0,0,1-9.41,2.75c-12.5.65-17.69-6-8.45-18.29a135.4,135.4,0,0,1,15-14h0S185,83,188.92,102.61Z"/><path class="cls-27" d="M203.29,90.69c-4.1,4.72-9.06,9.18-14.37,11.92a28.59,28.59,0,0,1-3.07,1.36l.56-17.72S191.93,90.91,203.29,90.69Z"/><ellipse class="cls-1" cx="199.11" cy="78.3" rx="8.24" ry="7.43" transform="translate(-7.45 134.04) rotate(-36.57)"/><path d="M202.34,81.71a1.93,1.93,0,0,1-1.53-.58,2,2,0,0,1-.35-1.68.35.35,0,0,1,.68.17,1.34,1.34,0,0,0,.2,1.05,1.55,1.55,0,0,0,1.36.31.35.35,0,1,1,.07.7Z"/><path d="M198.33,76.67a1.93,1.93,0,0,1-1.53-.58,2,2,0,0,1-.35-1.68.35.35,0,0,1,.68.17,1.34,1.34,0,0,0,.2,1.05,1.55,1.55,0,0,0,1.36.31.35.35,0,1,1,.07.7Z"/><path class="cls-6" d="M204.07,71.77c-.78.19.55,3.08-.86,2a1.57,1.57,0,0,0,2.86.1C206.68,72.56,204.62,71.63,204.07,71.77Z"/><path class="cls-28" d="M197.53,78.61c.51-.3,1.37,1.32.61,1.25S197,78.92,197.53,78.61Z"/><circle class="cls-29" cx="195.67" cy="81.38" r="2.15" transform="matrix(0.07, -1, 1, 0.07, 101.44, 271.19)"/><circle class="cls-7" cx="195.67" cy="81.38" r="0.86" transform="translate(101.44 271.19) rotate(-86.18)"/><path class="cls-6" d="M204.19,80.79a.27.27,0,0,1-.23-.13l-.86-1.46a.27.27,0,0,1,.46-.27l.86,1.46a.27.27,0,0,1-.23.4Z"/><path class="cls-6" d="M200,74.27a.26.26,0,0,1-.14,0l-1.72-1.11a.27.27,0,1,1,.29-.45l1.72,1.11a.27.27,0,0,1-.14.49Z"/><path class="cls-12" d="M198.73,99.47l-.28.32c-7.43,8.65-20.85,15.65-33.48,14,1.93-6.46,4.44-11.29,4.55-10,6.82-.46,26.75-8.56,26.75-8.56a23,23,0,0,1,2.15,3.3A3,3,0,0,1,198.73,99.47Z"/><path class="cls-1" d="M195.28,94.36c.78-.76.34-2,1-2.74a3.29,3.29,0,0,1,3.47-.63c1.08.55-1.76.85-1.92,1.41s1.81.36,2.38-.17a13.13,13.13,0,0,0,1.82-2.48c.22-.44,2-2.46,2.29-1.7s.58,6.06-2.87,8-3.75,1.77-3.75,1.77Z"/><ellipse class="cls-1" cx="167.88" cy="40.45" rx="3.22" ry="4.1" transform="translate(40.72 157.29) rotate(-56.12)"/><path class="cls-9" d="M172.77,61.34c-2.94,0-9.08.9-12.33,4s-12.45,31.57.25,46.4c13.75,3.55,29.12-3.68,37.16-13.28-.12-1.22-2.54-4.18-2.54-4.18s-19.93,8.1-26.75,8.56c-.29-3.26,2.64-18,2.64-18Z"/><path class="cls-1" d="M185.63,98a10.84,10.84,0,0,1-4.81-1.78c-1.33-.7-2.88,2-.38,3.63C182.25,99.18,185.63,98,185.63,98Z"/><circle cx="187.76" cy="39.22" r="1.15" transform="matrix(0.07, -1, 1, 0.07, 136.1, 223.95)"/><circle cx="178.35" cy="39.86" r="1.31" transform="translate(126.69 215.16) rotate(-86.18)"/><path class="cls-10" d="M184.69,47.83a.49.49,0,0,1,.38.69,3.88,3.88,0,0,1-6.72-.76.48.48,0,0,1,.53-.58,12,12,0,0,0,5.8.65Z"/><path class="cls-11" d="M168.92,41.61a.44.44,0,0,1-.44-.38,2,2,0,0,0-1-1.41,1.37,1.37,0,0,0-1.15-.17.44.44,0,1,1-.33-.82,2.22,2.22,0,0,1,1.93.23,2.87,2.87,0,0,1,1.41,2,.44.44,0,0,1-.38.5Z"/><path class="cls-11" d="M183.34,45.54l-.47,0a.39.39,0,0,1,.07-.78c.48,0,2,0,2.37-.58.18-.26.15-.65-.09-1.16v0l-.63-1.67a.39.39,0,0,1,.73-.28l.63,1.66a1.85,1.85,0,0,1,0,1.93A3.27,3.27,0,0,1,183.34,45.54Z"/><path class="cls-6" d="M175.41,38.52a.44.44,0,0,1-.39-.66,3.36,3.36,0,0,1,3.76-1.57.44.44,0,0,1-.22.86,2.5,2.5,0,0,0-2.77,1.15A.44.44,0,0,1,175.41,38.52Z"/><path class="cls-6" d="M189.47,37.7a.44.44,0,0,1-.4-.25,1.51,1.51,0,0,0-1.85-.85.44.44,0,0,1-.27-.84,2.39,2.39,0,0,1,2.92,1.31.44.44,0,0,1-.4.63Z"/><path class="cls-12" d="M170.68,87.58s.59-5.29,1.12-7.71c.92,2.82,1.46,4.86,1.46,4.86Z"/><ellipse class="cls-6" cx="284.43" cy="116.2" rx="3.14" ry="3.73"/><ellipse class="cls-6" cx="310.81" cy="114.35" rx="3.73" ry="3.14" transform="translate(91.26 362.3) rotate(-68.68)"/><ellipse class="cls-6" cx="310.81" cy="108.22" rx="3.73" ry="3.14" transform="translate(189.02 413.97) rotate(-87.48)"/><path class="cls-1" d="M277.66,132.48l-5.31,6.27s-4.7-9.08-4-14.09c2.38-3.72,3.55-7.45,2.43-8s-1,2.32-2,2.05,0-4-.61-5.62c-1.27-3.36-4.88-1.78-5.36,1.11a16,16,0,0,0,1.64,10c0,3.69-1.29,20.4,6.4,26.65,5.77-3.85,12.07-12.28,12.07-12.28Z"/><path class="cls-1" d="M316.14,130.73s8.28,10.71,9.4,15c1.31,5,.22,26.33.22,26.33s2.86,2.46.79,8.88c-1.12,3.49-3.39,1.54-3.74.38-.64-2.1,1.55-5.14.62-6-1.44-1.29-1.82,3-2.88,1.82-.87-1,1.61-5.38,1.61-5.38s-2-18.84-3.49-22.86c-1.18-3.24-8.63-11.18-8.63-11.18Z"/><ellipse class="cls-6" cx="284.43" cy="109.61" rx="3.14" ry="3.73"/><polygon class="cls-1" points="309.37 165.02 309.37 236.52 302.61 236.19 298.51 166.66 309.37 165.02"/><polygon class="cls-1" points="299.13 165.26 293.14 235.9 287.26 234.94 285.32 165.02 299.13 165.26"/><path class="cls-6" d="M293.21,234.64a7,7,0,0,1,.57,3.58,1.24,1.24,0,0,1-1.24,1.17H279.28c.1-3,3.22-3.32,7.55-4.44C290.81,234.68,293.21,234.64,293.21,234.64Z"/><path class="cls-1" d="M293.21,234.64c-.54.91-6.15,2.18-7.41,1.77s.23-1,1-1.46C287.45,234.63,293.21,234.64,293.21,234.64Z"/><path class="cls-6" d="M309.32,234.13a8.5,8.5,0,0,1,.57,4.1,1.23,1.23,0,0,1-1.24,1.16H295.45c.1-3,3.05-3.81,7.42-4.95C306.89,234.17,309.32,234.13,309.32,234.13Z"/><path class="cls-1" d="M309.32,234.13c-.54.92-6.21,2.2-7.49,1.79s.23-1.06,1-1.47C303.5,234.12,309.32,234.13,309.32,234.13Z"/><path class="cls-15" d="M293.16,120.71c-4.77.9-10.47,1.4-19.56,15.37,1.53,3.16,6.83,8.06,6.83,8.06l5.94-5.76.76,16.43h22l.87-17.09,3.79,5.83s6.23-1.26,8.19-5.83c-4.17-5.94-9.75-15.83-20.26-17C298.39,120.55,293.16,120.71,293.16,120.71Z"/><path class="cls-1" d="M312.49,102.41a15.07,15.07,0,0,1-.2,2.46c-1.18,7.21-8.13,14.39-15.72,14.39-6.76,0-11.84-6.06-13.85-12.11a15,15,0,0,1-.76-4.74,15.27,15.27,0,0,1,30.53,0Z"/><path class="cls-6" d="M312.55,102.41c-.12,1.36-.06,4.56-1.29,5.82-5.9-1.45-12.14-6-14.48-11-2.95,5.95-13.83,10.73-13.83,10.73a15.77,15.77,0,0,1-.93-5.52,15.22,15.22,0,0,1,15.27-15.17C305.72,87.24,313.29,94.06,312.55,102.41Z"/><path class="cls-1" d="M293.16,116.2v5.86a6.83,6.83,0,0,0,8.61,0,23.91,23.91,0,0,0,0-5.3Z"/><path class="cls-6" d="M322.72,192.68a38.23,38.23,0,0,1-10.23,3.48c-14.46,2.89-31.75-.41-40.14-3.48,3.55-8.68,14.72-39.15,14.72-39.15s13.46.22,20.08.26h2.07C312,163.58,318.68,180.22,322.72,192.68Z"/><ellipse class="cls-6" cx="284.43" cy="122.64" rx="2.64" ry="3.14"/><ellipse class="cls-6" cx="284.62" cy="128.14" rx="2.44" ry="2.9"/><ellipse class="cls-6" cx="309.95" cy="120.71" rx="3.14" ry="2.64" transform="translate(175.74 425.07) rotate(-87.48)"/><ellipse class="cls-6" cx="309.7" cy="126.39" rx="2.9" ry="2.44" transform="translate(169.83 430.24) rotate(-87.48)"/><path class="cls-6" d="M286.88,134.31c0,1.8-2.26,4.45-2.26,4.45s-2.26-2.65-2.26-4.45,1-3.26,2.26-3.26S286.88,132.5,286.88,134.31Z"/><path class="cls-6" d="M311.69,132.15c0,1.8-2.26,4.45-2.26,4.45s-2.26-2.65-2.26-4.45,1-3.26,2.26-3.26S311.69,130.35,311.69,132.15Z"/><circle cx="289.86" cy="108.13" r="1.25"/><circle cx="301.14" cy="108.03" r="1.25"/><path class="cls-30" d="M295.83,113.45h0c-1,0-1.72-.29-2-.81a1.92,1.92,0,0,1,.34-1.93.39.39,0,0,1,.67.42c-.32.51-.43.92-.31,1.14s.62.39,1.33.4a.39.39,0,0,1,0,.79Z"/><path class="cls-10" d="M299.93,114.76a.5.5,0,0,1,.51.64,4,4,0,0,1-7,.36.5.5,0,0,1,.44-.68,12.39,12.39,0,0,0,6-.32Z"/><path class="cls-6" d="M303.37,106.39a.45.45,0,0,1-.31-.12,3.08,3.08,0,0,0-2.52-.78.45.45,0,0,1-.17-.88,4,4,0,0,1,3.3,1,.45.45,0,0,1-.31.77Z"/><path class="cls-6" d="M287.8,106.91a.45.45,0,0,1-.31-.77A3.94,3.94,0,0,1,291,105a.45.45,0,0,1-.21.87,3,3,0,0,0-2.67.87A.45.45,0,0,1,287.8,106.91Z"/><ellipse class="cls-1" cx="310.49" cy="108.54" rx="3.17" ry="1.87" transform="translate(45.61 303.54) rotate(-55.63)"/><path class="cls-30" d="M310,110.25a.29.29,0,0,1-.27-.19,2.33,2.33,0,0,1,.18-2,2,2,0,0,1,1.23-1,.29.29,0,1,1,.11.58,1.4,1.4,0,0,0-.82.73,1.75,1.75,0,0,0-.15,1.47.29.29,0,0,1-.17.38Z"/><polygon class="cls-31" points="310.05 137.73 308.24 135.99 307.16 153.8 309.23 153.81 310.05 137.73"/><ellipse class="cls-9" cx="309.58" cy="129.25" rx="1.4" ry="0.71"/><ellipse class="cls-9" cx="284.54" cy="131.04" rx="1.4" ry="0.71"/><path class="cls-32" d="M322.72,192.68a38.23,38.23,0,0,1-10.23,3.48l-5.33-42.36h2.07C312,163.58,318.68,180.22,322.72,192.68Z"/><path class="cls-33" d="M71,235l-1.53,4.56s-14-4.22-15.17-15.89a19.44,19.44,0,0,1,0-3.74c.81-8.71,7.66-11,5.08-3.27a12.73,12.73,0,0,0-.57,2.6C57.89,227.31,64.54,235.5,71,235Z"/><path class="cls-10" d="M124.56,185.81c-.41,3-4.06,6.24-8.66,8.12h0a21.68,21.68,0,0,1-2.15.75,18,18,0,0,1-7.38.67q-.92-.13-1.8-.32c-7.06-1.52-12.06-6-11.44-10.56.36-2.65,2.57-4.77,5.77-6a16.77,16.77,0,0,1,2.46-.72,21.88,21.88,0,0,1,7.44-.21c1.73.24,3.48.53,5.15.89h0C120,179.74,125.09,182,124.56,185.81Z"/><path class="cls-1" d="M115.47,239.57H107.4s-4.08-14-5.45-21.56c-1.36,4.47-1.36,17-1.36,17s3.46.53,4.21,3.72a.63.63,0,0,1-.64.81H95.34s-1.17-17.87.19-22.14c-3.15,3.59-3.77,13.89-3.88,19.08a3.13,3.13,0,0,1-3.13,3.06H69s-2.1-10.75,1.82-20.71a25.06,25.06,0,0,1,10.06-12.32,85,85,0,0,0,10-7.23h0c6.81-5.84,7.34-9.11,7.34-9.11l10.79,4.09c-.68,2.52-1.65,24.75,1.65,40.74,3.44.19,4.74.59,5.83,2.86A1.17,1.17,0,0,1,115.47,239.57Z"/><path class="cls-33" d="M97.71,179c-4.12-2-8.79-7.88-12.29-2.61s-3.89,14.48,0,12.21,6.22-7,6.22-7l2.09,1.85Z"/><path class="cls-33" d="M102.54,178.14c.19-3.89,1.75-9.73,6.51-7.59s2.58,3.48,0,4.67a10.71,10.71,0,0,0-3.4,2.14Z"/><path d="M121.6,181.08c-2.9.44-1.6,5.08,1.29,5.48S127.73,180.16,121.6,181.08Z"/><path class="cls-33" d="M104.58,195c-7.06-1.52-12.06-6-11.44-10.56.36-2.65,2.57-4.77,5.77-6,2.73,1.07,6.95,4.46,6.23,6.55C103.57,189.61,107.25,193.87,104.58,195Z"/><path class="cls-33" d="M114,178.43c-1-.11-2.81,3.69-5.12,4.45-2.14.71-4.34-2-7.47-5.13a21.88,21.88,0,0,1,7.44-.21C110.54,177.78,112.29,178.07,114,178.43Z"/><circle cx="100.46" cy="184.49" r="1.49"/><circle cx="107.57" cy="179.43" r="1.17"/><path d="M115.91,193.92a21.68,21.68,0,0,1-2.15.75h-.41a10.4,10.4,0,0,1-7.24-2.89.28.28,0,0,1,0-.4.28.28,0,0,1,.4,0C110.11,195,115.34,194,115.91,193.92Z"/><path class="cls-33" d="M89.92,208.48C91,210.66,84.82,219,82,215.81s-4.76-1.29-7.72,1.29a7.42,7.42,0,0,1-3.4,1.77,25.06,25.06,0,0,1,10.06-12.32,85,85,0,0,0,10-7.23C89.06,202.56,88.84,206.29,89.92,208.48Z"/><path class="cls-10" d="M53.3,217.74l.1.33-.1.8Z"/><path class="cls-10" d="M59.36,216.68a12.73,12.73,0,0,0-.57,2.6,8.87,8.87,0,0,0-1.24,1.28c-.94,1.25-2.26.89-3.27-.61C55.09,211.24,61.94,208.94,59.36,216.68Z"/></svg>