<svg id="Layer_1" data-name="Layer 1" xmlns="http://www.w3.org/2000/svg" viewBox="0 0 400 240"><defs><style>.cls-1{fill:#e6fffb;}.cls-2{fill:#62b29a;}.cls-3{fill:#52969e;}.cls-4{fill:#87d38c;}.cls-5{fill:#cfe88b;}.cls-6{fill:#454f6b;}.cls-7{fill:#422c4f;}.cls-8{fill:#d1faf5;}.cls-9{fill:#6ca8bc;}.cls-10{fill:#5195a8;}.cls-11{fill:#e36b85;}.cls-12{fill:#ce5574;}.cls-13{fill:#e78882;}.cls-14{fill:#797c99;}.cls-15{fill:#f2c9ad;}.cls-16{fill:#7dd3e9;}.cls-17{fill:#5fa5cc;}.cls-18{fill:#eba58e;}.cls-19{fill:#6a3649;}.cls-20{fill:#fff;}.cls-21{fill:#e4e4e0;}.cls-22{fill:#d4cfbe;}.cls-23{fill:#6c6fc3;}.cls-24{fill:#575daa;}.cls-25{fill:#495375;}.cls-26{fill:#de7274;}.cls-27{fill:#a64f5a;}.cls-28{fill:#fdf7e7;}.cls-29{fill:#a34262;}.cls-30{fill:#cc6164;}.cls-31{fill:#f0bf6c;}.cls-32{fill:#eba25d;}</style></defs><title>family</title><path class="cls-1" d="M30.31,120c-12.64-23-10.57-53.61,6.06-73.9s47.22-28.2,71.11-17.37c11.94,5.41,21.78,14.78,33.85,19.88,18.53,7.82,40.06,4.57,58.71-2.94s35.43-19,53.35-28.08,38-16,57.89-13.28c19.4,2.65,36.94,14.53,48.38,30.42s17.08,35.5,18,55.06c1,19.77-3,40.45-15.06,56.17-11.37,14.86-28.77,23.92-46.46,30a201.38,201.38,0,0,1-138.09-3.05c-12.39-4.89-24.3-11-37-15-20.72-6.4-38.74,1.77-58.84-1.6C60.87,152.82,40.76,139.05,30.31,120Z"/><path class="cls-2" d="M47,156.06a13.83,13.83,0,0,1-2.13-1.34,4.51,4.51,0,0,1-1.35-2.82,7.94,7.94,0,0,1,.17-3.33,31.71,31.71,0,0,1,1.08-3.08,26.13,26.13,0,0,0,1.1-3.14c.48-2.16.35-4.91-1.31-6.44a8,8,0,0,0-4-1.65A5.06,5.06,0,0,1,37,132.13a8.18,8.18,0,0,1-.84-2,11.91,11.91,0,0,1-.35-2.16c0-.73-.09-1.45-.16-2.18a18.67,18.67,0,0,0-.3-2.18,7.51,7.51,0,0,0-1.75-3.29A11.09,11.09,0,0,0,32.28,119a12.76,12.76,0,0,0-1.54-1c-2.72-1.54-5.16.28-6,.77s-3.41,2-3.54,4.84a11.12,11.12,0,0,0,0,1.62,10.42,10.42,0,0,0,.22,1.63,6.81,6.81,0,0,0,1.34,2.79,15,15,0,0,0,1.32,1.34,15.36,15.36,0,0,1,1.36,1.34,8.92,8.92,0,0,1,1.13,1.55,4.06,4.06,0,0,1,.57,1.8A4.21,4.21,0,0,1,25.5,139a10,10,0,0,0-2.62,3c-.66,1.67.14,3.42,1.43,4.73.61.66,1.3,1.26,2,1.89a10.54,10.54,0,0,1,1.87,2.06,5.5,5.5,0,0,1,.9,2.62,3.33,3.33,0,0,1-1,2.47A10.76,10.76,0,0,1,26.16,157a8,8,0,0,0-3,3,7.42,7.42,0,0,0-1,3.77,9.68,9.68,0,0,0,.75,3.82,14.2,14.2,0,0,0,.85,1.88c.33.62.73,1.24,1.1,1.84a20.74,20.74,0,0,0,1.73,2.22c.37.42.77.87,1.19,1.32s.82.91,1.25,1.36c1.71,1.8,3.55,3.56,4.87,4.12,1.41.2,3.84-.42,6.27-1.49.61-.27,1.21-.56,1.8-.87s1.12-.65,1.63-1a16.88,16.88,0,0,0,2.54-2,14.85,14.85,0,0,0,1.7-2,19,19,0,0,0,1.43-2.29,15.4,15.4,0,0,0,1.57-5.27,12.59,12.59,0,0,0-.77-5.48A8.51,8.51,0,0,0,47,156.06Z"/><path class="cls-3" d="M36.26,130.37A36.65,36.65,0,0,1,33,135.22l-.65-1.93c-.21-.65-.49-1.27-.74-1.9l-.75-1.9c-.25-.63-.56-1.24-.84-1.86q1.1-1.73,2-3.56t1.58-3.72c-.21-.25-.43-.49-.66-.72a37,37,0,0,1-3.37,7.1l-.49-1.06c-.17-.35-.36-.69-.54-1l-1.09-2.08c-.35-.7-.78-1.35-1.17-2l-1.2-2-.35.22-.35.22,2,3.32,1.81,3.42q-1.91-.24-3.64-.61c-1.16-.25-2.25-.54-3.34-.85,0,.28,0,.56,0,.84,1.12.33,2.28.64,3.52.89s2.55.45,3.85.63c.53,1.18,1.11,2.33,1.59,3.53s1,2.39,1.41,3.61c-1.27-.34-2.56-.68-3.73-1.09s-2.27-.86-3.36-1.33a11.06,11.06,0,0,1,1,1l.4.47q1.39.55,2.92,1c1,.31,2,.62,3.12.89.31,1,.67,1.9.94,2.87l.82,2.91c.27,1,.46,2,.69,2.94.11.49.23,1,.33,1.47l.26,1.49c-1.05-.45-2-.91-3-1.37S30,144,29,143.58c-1.85-.94-3.68-1.87-5.34-2.83a5.49,5.49,0,0,0-.47.63c.88.51,1.8,1,2.75,1.5s1.88,1,2.88,1.5c2,1,4.09,2,6.32,2.93.23,1.18.36,2.38.51,3.58l.22,1.79.13,1.8c-1-.55-1.93-1.11-2.86-1.66s-1.87-1.11-2.75-1.66-1.71-1.12-2.55-1.67-1.66-1.11-2.43-1.67c.47.44,1,.87,1.44,1.33.24.23.47.46.69.71a9.16,9.16,0,0,1,.58.77c1.21.81,2.49,1.62,3.84,2.43s2.67,1.62,4.11,2.43c.08.92.1,1.85.11,2.77s.06,1.85,0,2.78c-.06,1.85-.08,3.7-.28,5.54-1-.78-1.94-1.56-2.86-2.33s-1.85-1.54-2.71-2.31c-1.68-1.53-3.37-3-4.79-4.53-.22.15-.42.32-.62.49q1.14,1.18,2.43,2.37c.85.79,1.69,1.59,2.6,2.4,1.86,1.61,3.75,3.24,5.87,4.9-.06,1-.24,2.08-.37,3.12l-.21,1.55c-.07.52-.19,1-.28,1.54l-1.69-1.62-1.69-1.6-3.19-3.08q-1.6-1.51-3-3c-1-1-2-1.91-2.88-2.84a6.86,6.86,0,0,0-.21.86c3.71,3.72,8,7.79,12.52,12.2-.31,1.85-.83,3.65-1.27,5.47l.38.19.42,0c.44-1.84,1-3.66,1.28-5.53a37.08,37.08,0,0,0,15.24-11.28q0-.63-.14-1.25A35.71,35.71,0,0,1,47.57,166,42.41,42.41,0,0,1,44,169.12a38.72,38.72,0,0,1-3.95,2.65q-1,.6-2.07,1.14c-.72.36-1.45.69-2.19,1,.32-1.49.46-3,.69-4.51.12-.75.16-1.51.23-2.27l.19-2.27A41.25,41.25,0,0,0,42.49,161a40.58,40.58,0,0,0,4.8-4.75l-.3-.21-.46-.27a40.45,40.45,0,0,1-4.43,4.43A40.17,40.17,0,0,1,37,163.86c0-1.18.09-2.36.1-3.53L37,156.79a39.64,39.64,0,0,0,3.37-2.71A34.74,34.74,0,0,0,43.42,151a8,8,0,0,1,.06-1.42,37.76,37.76,0,0,1-6.55,6.18l-.21-3c-.09-1-.23-2-.35-3-.06-.49-.11-1-.19-1.48l-.26-1.47c-.18-1-.31-2-.54-2.93a43.08,43.08,0,0,0,3.81-4.39,41.81,41.81,0,0,0,3.08-4.9l-.86-.23a42.39,42.39,0,0,1-2.82,4.49A37.91,37.91,0,0,1,35.16,143c-.49-2.31-1.14-4.58-1.83-6.83a43,43,0,0,0,3.34-4.75A7.88,7.88,0,0,1,36.26,130.37Z"/><path class="cls-4" d="M30.74,160.09a11.11,11.11,0,0,1-2-.17,3.62,3.62,0,0,1-2-1.53,6.35,6.35,0,0,1-1.08-2.46,24,24,0,0,1-.33-2.62,21.37,21.37,0,0,0-.33-2.66c-.42-1.74-1.49-3.67-3.23-4.19-2.39-.75-4.59,1.35-6.82-.07a7.35,7.35,0,0,1-2.31-2.62,27.83,27.83,0,0,0-1.84-3,6.09,6.09,0,0,0-2.4-1.82,9,9,0,0,0-1.45-.53,10.34,10.34,0,0,0-1.48-.24c-2.52-.22-3.73,2-4.16,2.59s-1.85,2.66-1,4.78a9.13,9.13,0,0,0,.59,1.19,8.51,8.51,0,0,0,.73,1.13,5.58,5.58,0,0,0,2,1.62c.91.44,2,.65,2.92,1.07a4.9,4.9,0,0,1,2.44,1.88,3.46,3.46,0,0,1,0,3.09A8,8,0,0,0,8,158.63a3.76,3.76,0,0,0,2.79,3c.69.27,1.42.46,2.15.68a8.92,8.92,0,0,1,2.12.84,4.55,4.55,0,0,1,1.63,1.59A2.75,2.75,0,0,1,17,166.9a8.86,8.86,0,0,1-.94,1.64,6.47,6.47,0,0,0-1,3.35,6.25,6.25,0,0,0,.72,3.16,8.14,8.14,0,0,0,2,2.52,15.5,15.5,0,0,0,2.86,2,16.57,16.57,0,0,0,2.11.93l1.37.49,1.43.49a15.53,15.53,0,0,0,5.09,1A11.3,11.3,0,0,0,34.52,179c.33-.43.65-.87.94-1.32s.55-.89.79-1.33a13.81,13.81,0,0,0,1.05-2.38,14.42,14.42,0,0,0,.6-4.23,12.35,12.35,0,0,0-.86-4.33,10.06,10.06,0,0,0-2.6-3.6A6.89,6.89,0,0,0,30.74,160.09Z"/><path class="cls-2" d="M13.73,145.37a31.3,31.3,0,0,1-.69,4.7l-1.16-1.19c-.39-.4-.81-.76-1.21-1.14l-1.22-1.13c-.41-.38-.84-.72-1.26-1.08q.21-1.65.27-3.32t-.09-3.28c-.24-.11-.48-.21-.73-.3A31.64,31.64,0,0,1,7.58,145c-1-.84-2-1.57-3-2.36s-2.08-1.46-3.12-2.19l-.18.28-.19.28,2.59,1.79,2.5,1.91q-1.49.48-2.9.79c-.94.21-1.85.36-2.77.5.1.21.2.41.32.61,1-.13,1.92-.3,2.92-.54s2-.54,3.06-.85c.8.69,1.62,1.34,2.39,2.05s1.56,1.42,2.3,2.16c-1.05.2-2.12.39-3.12.5s-2,.16-2.94.19a9.73,9.73,0,0,1,1.06.39l.46.21a39.29,39.29,0,0,0,5.12-.71,66.77,66.77,0,0,1,6.41,7.45c-.93.05-1.82.08-2.72.11s-1.78,0-2.64,0c-1.69,0-3.37-.06-4.94-.18a4.44,4.44,0,0,0-.12.63c.83.07,1.69.11,2.56.13s1.74.07,2.65.07c1.84,0,3.7,0,5.68-.15.6.78,1.13,1.6,1.68,2.42l.82,1.22.76,1.26c-.92,0-1.81-.09-2.69-.15s-1.76-.12-2.61-.21-1.66-.19-2.48-.29-1.62-.22-2.39-.35a13.68,13.68,0,0,1,3,1.08c1.18.15,2.41.27,3.69.37s2.54.19,3.89.24c.4.64.76,1.3,1.12,2s.73,1.32,1.07,2c.65,1.36,1.34,2.7,1.9,4.1-1-.18-2-.38-2.95-.59s-1.92-.42-2.83-.65c-1.8-.47-3.58-.95-5.18-1.52-.1.19-.19.39-.26.59q1.27.44,2.65.83c.91.26,1.83.53,2.79.77,2,.47,3.94.93,6.1,1.31.35.78.63,1.59.93,2.38s.6,1.59.85,2.41l-3.67-1c-1.2-.33-2.35-.67-3.49-1s-2.26-.66-3.33-1-2.16-.65-3.16-1a5.82,5.82,0,0,0,.18.71c4.11,1.33,8.73,2.66,13.72,4,.5,1.44.84,2.93,1.24,4.4l.35,0,.31-.14c-.41-1.48-.75-3-1.26-4.45A31.45,31.45,0,0,0,36.34,164q-.27-.43-.57-.84a30,30,0,0,1-.92,3.76,35.53,35.53,0,0,1-1.37,3.6,32.81,32.81,0,0,1-1.82,3.4q-.5.82-1,1.61c-.38.53-.77,1.05-1.17,1.56-.35-1.19-.83-2.33-1.25-3.5s-1-2.28-1.43-3.43a35,35,0,0,0,2.57-4.86,34.17,34.17,0,0,0,1.7-5.2l-.29,0-.43,0a34.06,34.06,0,0,1-1.56,4.84,34.09,34.09,0,0,1-2.33,4.55c-.42-.86-.83-1.73-1.26-2.58l-1.37-2.53a33.71,33.71,0,0,0,1.44-3.21,29.62,29.62,0,0,0,1.1-3.33,6.39,6.39,0,0,1-.47-1,32.08,32.08,0,0,1-2.48,6.89,72.8,72.8,0,0,0-5.46-8A36.43,36.43,0,0,0,19.11,151a35.23,35.23,0,0,0,.52-4.66l-.71.14a35.63,35.63,0,0,1-.48,4.27A32.27,32.27,0,0,1,17.39,155c-1.19-1.51-2.47-2.93-3.78-4.34a36.42,36.42,0,0,0,.78-4.65A6.23,6.23,0,0,1,13.73,145.37Z"/><path class="cls-5" d="M52.51,169.93a7.78,7.78,0,0,1-.65-1.51,2.42,2.42,0,0,1,.41-1.86,4,4,0,0,1,1.56-1.25,29.48,29.48,0,0,1,3.85-1,3.36,3.36,0,0,0,2.67-2.43c.28-1.83-1.48-3.76-.31-5.47a4.36,4.36,0,0,1,2.24-1.49c.85-.31,1.78-.44,2.6-.78a4.87,4.87,0,0,0,1.8-1.32,7.41,7.41,0,0,0,.7-1,8,8,0,0,0,.57-1c.85-1.81-.3-3.61-.65-4.18s-1.31-2.49-3.48-2.41a8.88,8.88,0,0,0-1.28.14,7.78,7.78,0,0,0-1.27.38,5.25,5.25,0,0,0-2.14,1.43,25.21,25.21,0,0,0-1.73,2.5,6.18,6.18,0,0,1-2.13,2.11c-2,1.07-3.77-.89-5.86-.43-1.52.31-2.57,1.87-3,3.32s-.52,3-1,4.46a5.38,5.38,0,0,1-1.13,2,3.07,3.07,0,0,1-1.86,1.11,9.47,9.47,0,0,1-1.76-.05,5.93,5.93,0,0,0-3.33,1,8.51,8.51,0,0,0-2.56,2.77,10.48,10.48,0,0,0-1.17,3.56,12.51,12.51,0,0,0,.06,3.65,15.66,15.66,0,0,0,1.8,4.61,10,10,0,0,0,2.89,3.5,13.09,13.09,0,0,0,4.5-.25,27.06,27.06,0,0,0,4.46-1.09,13.3,13.3,0,0,0,2.7-1.41,7.33,7.33,0,0,0,2-2,5.87,5.87,0,0,0,.48-5.72Z"/><path class="cls-4" d="M60.91,155.59c-1.29-.34-2.56-.64-3.89-1,.71-.63,1.42-1.26,2.17-1.85s1.48-1.2,2.25-1.75q1.35.5,2.65,1t2.59.91c.13-.15.26-.31.37-.47-1.62-.54-3.34-1.18-5.06-1.81.86-.67,1.79-1.25,2.68-1.87s1.85-1.16,2.77-1.74l-.15-.25-.15-.25-2.34,1.45-2.28,1.55a15.48,15.48,0,0,1,.76-5.13l-.67.09a16.14,16.14,0,0,0-.66,5.46c-.73.55-1.49,1.08-2.2,1.66s-1.44,1.14-2.14,1.75a15.52,15.52,0,0,1,.36-5.45l-.59.92-.28.4a15.79,15.79,0,0,0,0,4.59,67.3,67.3,0,0,0-6.13,6,22.47,22.47,0,0,1-.71-4.7,21.24,21.24,0,0,1,.29-4.67,3.68,3.68,0,0,0-.61,0,24.21,24.21,0,0,0-.28,2.46q-.06,1.25,0,2.5a23.1,23.1,0,0,0,.83,5c-.58.63-1.12,1.3-1.67,2l-.82,1-.78,1c-.26-.76-.49-1.52-.67-2.29s-.31-1.53-.41-2.3a21.65,21.65,0,0,1-.19-2.32q0-1.15.08-2.31a31,31,0,0,1-.64,3.12,24.88,24.88,0,0,0,.45,3.35,25.79,25.79,0,0,0,1,3.31,67.48,67.48,0,0,0-4.36,6.59,22.07,22.07,0,0,1-1.77-5,21.63,21.63,0,0,1-.56-5.15,5.14,5.14,0,0,0-.6.09,24.9,24.9,0,0,0,.14,2.73,22.62,22.62,0,0,0,.49,2.7,23.19,23.19,0,0,0,1.94,5.2c-.39.64-.72,1.3-1.07,2s-.7,1.31-1,2c-.29-.48-.56-1-.82-1.47s-.49-1-.71-1.5a30,30,0,0,1-1.19-3.11,28.24,28.24,0,0,1-1.23-6.5q-.3.31-.57.65a28.78,28.78,0,0,0,4.22,12.57c-.6,1.19-1.09,2.43-1.62,3.65l.25.16.29.06c.53-1.21,1-2.44,1.61-3.62,4.45-.59,8.57-1.25,12.28-2a5.32,5.32,0,0,0,.23-.61c-1.86.39-3.78.76-5.83,1.08-1,.17-2,.34-3.12.49l-3.27.44c.92-1.92,2-3.77,3.05-5.6,1.6,0,3.16-.09,4.65-.18s3-.16,4.38-.29l-.09-.22-.15-.31c-1.32.1-2.67.2-4.09.25s-2.83.13-4.32.15c.45-.69.88-1.39,1.34-2.08l1.41-2c2.06.13,4,.18,5.91.23a4.08,4.08,0,0,1,.66-.54c-2-.05-4-.12-6.15-.25A72,72,0,0,1,52.46,159q2,.39,3.95.68c1.3.22,2.56.41,3.78.57l-.17-.58q-1.68-.23-3.46-.53c-1.19-.21-2.37-.4-3.61-.64,1.13-1.2,2.33-2.33,3.54-3.44q2,.55,3.87,1A3.46,3.46,0,0,1,60.91,155.59Z"/><polygon class="cls-6" points="44.52 213.49 23.75 213.49 16.57 178.03 51.7 178.03 44.52 213.49"/><path class="cls-7" d="M18.58,187.95l5.18,25.54H44.52l2-9.67a33.28,33.28,0,0,1-27.9-15.87Z"/><path class="cls-7" d="M50.9,182H23.27a1.09,1.09,0,0,0-1.08,1.28h0a1.09,1.09,0,0,0,1.08.91H50.45Z"/><path class="cls-2" d="M353,156.06a13.82,13.82,0,0,0,2.13-1.34,4.51,4.51,0,0,0,1.35-2.82,7.94,7.94,0,0,0-.17-3.33,31.69,31.69,0,0,0-1.08-3.08,26.13,26.13,0,0,1-1.1-3.14c-.48-2.16-.35-4.91,1.31-6.44a8,8,0,0,1,4-1.65,5.06,5.06,0,0,0,3.57-2.13,8.18,8.18,0,0,0,.84-2,11.91,11.91,0,0,0,.35-2.16c0-.73.09-1.45.16-2.18a18.68,18.68,0,0,1,.3-2.18,7.51,7.51,0,0,1,1.75-3.29,11.09,11.09,0,0,1,1.35-1.35,12.77,12.77,0,0,1,1.54-1c2.72-1.54,5.16.28,6,.77s3.41,2,3.54,4.84a11.12,11.12,0,0,1,0,1.62,10.42,10.42,0,0,1-.22,1.63,6.81,6.81,0,0,1-1.34,2.79,15,15,0,0,1-1.32,1.34,15.37,15.37,0,0,0-1.36,1.34,8.93,8.93,0,0,0-1.13,1.55,4.06,4.06,0,0,0-.57,1.8,4.21,4.21,0,0,0,1.71,3.37,10,10,0,0,1,2.62,3c.66,1.67-.14,3.42-1.43,4.73-.61.66-1.3,1.26-2,1.89a10.54,10.54,0,0,0-1.87,2.06,5.5,5.5,0,0,0-.9,2.62,3.33,3.33,0,0,0,1,2.47,10.76,10.76,0,0,0,1.95,1.25,8,8,0,0,1,3,3,7.42,7.42,0,0,1,1,3.77,9.68,9.68,0,0,1-.75,3.82,14.2,14.2,0,0,1-.85,1.88c-.33.62-.73,1.24-1.1,1.84a20.74,20.74,0,0,1-1.73,2.22c-.37.42-.77.87-1.19,1.32s-.82.91-1.25,1.36c-1.71,1.8-3.55,3.56-4.87,4.12-1.41.2-3.84-.42-6.27-1.49-.61-.27-1.21-.56-1.8-.87s-1.12-.65-1.63-1a16.88,16.88,0,0,1-2.54-2,14.85,14.85,0,0,1-1.7-2,19,19,0,0,1-1.43-2.29,15.4,15.4,0,0,1-1.57-5.27,12.59,12.59,0,0,1,.77-5.48A8.51,8.51,0,0,1,353,156.06Z"/><path class="cls-3" d="M363.75,130.37a36.66,36.66,0,0,0,3.25,4.85l.65-1.93c.21-.65.49-1.27.74-1.9l.75-1.9c.25-.63.56-1.24.84-1.86q-1.1-1.73-2-3.56t-1.58-3.72c.21-.25.43-.49.66-.72a37,37,0,0,0,3.37,7.1l.49-1.06c.17-.35.36-.69.54-1l1.09-2.08c.35-.7.78-1.35,1.17-2l1.2-2,.35.22.35.22-2,3.32-1.81,3.42q1.91-.24,3.64-.61c1.16-.25,2.25-.54,3.34-.85,0,.28,0,.56,0,.84-1.12.33-2.28.64-3.52.89s-2.55.45-3.85.63c-.53,1.18-1.11,2.33-1.59,3.53s-1,2.39-1.41,3.61c1.27-.34,2.56-.68,3.73-1.09s2.27-.86,3.36-1.33a11.06,11.06,0,0,0-1,1l-.4.47q-1.39.55-2.92,1c-1,.31-2,.62-3.12.89-.31,1-.67,1.9-.94,2.87l-.82,2.91c-.27,1-.46,2-.69,2.94-.11.49-.23,1-.33,1.47l-.26,1.49c1.05-.45,2-.91,3-1.37s2-.92,2.92-1.38c1.85-.94,3.68-1.87,5.34-2.83a5.49,5.49,0,0,1,.47.63c-.88.51-1.8,1-2.75,1.5s-1.88,1-2.88,1.5c-2,1-4.09,2-6.32,2.93-.23,1.18-.36,2.38-.51,3.58l-.22,1.79-.13,1.8c1-.55,1.93-1.11,2.86-1.66s1.87-1.11,2.75-1.66,1.71-1.12,2.55-1.67,1.66-1.11,2.43-1.67c-.47.44-1,.87-1.44,1.33-.24.23-.47.46-.69.71a9.16,9.16,0,0,0-.58.77c-1.21.81-2.49,1.62-3.84,2.43s-2.67,1.62-4.11,2.43c-.08.92-.1,1.85-.11,2.77s-.06,1.85,0,2.78c.06,1.85.08,3.7.28,5.54,1-.78,1.94-1.56,2.86-2.33s1.85-1.54,2.71-2.31c1.68-1.53,3.37-3,4.79-4.53.22.15.42.32.62.49q-1.14,1.18-2.43,2.37c-.85.79-1.69,1.59-2.6,2.4-1.86,1.61-3.75,3.24-5.87,4.9.06,1,.24,2.08.37,3.12l.21,1.55c.07.52.19,1,.28,1.54l1.69-1.62,1.69-1.6,3.19-3.08q1.6-1.51,3-3c1-1,2-1.91,2.88-2.84a6.85,6.85,0,0,1,.21.86c-3.71,3.72-8,7.79-12.52,12.2.31,1.85.83,3.65,1.27,5.47l-.38.19-.42,0c-.44-1.84-1-3.66-1.28-5.53a37.08,37.08,0,0,1-15.24-11.28q0-.63.14-1.25a35.72,35.72,0,0,0,3.15,3.62,42.41,42.41,0,0,0,3.56,3.15,38.71,38.71,0,0,0,3.95,2.65q1,.6,2.07,1.14c.72.36,1.45.69,2.19,1-.32-1.49-.46-3-.69-4.51-.12-.75-.16-1.51-.23-2.27l-.19-2.27a41.25,41.25,0,0,1-5.57-3.83,40.58,40.58,0,0,1-4.8-4.75l.3-.21.46-.27a37.44,37.44,0,0,0,9.56,8.07c0-1.18-.09-2.36-.1-3.53l.07-3.54a39.63,39.63,0,0,1-3.37-2.71A34.74,34.74,0,0,1,356.6,151a8,8,0,0,0-.07-1.42,37.76,37.76,0,0,0,6.55,6.18l.21-3c.09-1,.23-2,.35-3,.06-.49.11-1,.19-1.48l.26-1.47c.18-1,.31-2,.54-2.93a43.08,43.08,0,0,1-3.81-4.39,41.81,41.81,0,0,1-3.08-4.9l.86-.23a42.39,42.39,0,0,0,2.82,4.49,37.9,37.9,0,0,0,3.43,4.06c.49-2.31,1.14-4.58,1.83-6.83a43,43,0,0,1-3.34-4.75A7.88,7.88,0,0,0,363.75,130.37Z"/><path class="cls-4" d="M369.28,160.09a11.11,11.11,0,0,0,2-.17,3.62,3.62,0,0,0,2-1.53,6.35,6.35,0,0,0,1.08-2.46,24,24,0,0,0,.33-2.62,21.38,21.38,0,0,1,.33-2.66c.42-1.74,1.49-3.67,3.23-4.19,2.39-.75,4.59,1.35,6.82-.07a7.35,7.35,0,0,0,2.31-2.62,27.83,27.83,0,0,1,1.84-3,6.09,6.09,0,0,1,2.4-1.82,9,9,0,0,1,1.45-.53,10.33,10.33,0,0,1,1.48-.24c2.52-.22,3.73,2,4.16,2.59s1.85,2.66,1,4.78a9.14,9.14,0,0,1-.59,1.19,8.51,8.51,0,0,1-.73,1.13,5.58,5.58,0,0,1-2,1.62c-.91.44-2,.65-2.92,1.07a4.9,4.9,0,0,0-2.44,1.88,3.45,3.45,0,0,0,0,3.09,8,8,0,0,1,.84,3.13,3.76,3.76,0,0,1-2.79,3c-.69.27-1.42.46-2.15.68a8.92,8.92,0,0,0-2.12.84,4.55,4.55,0,0,0-1.63,1.59,2.75,2.75,0,0,0-.23,2.17,8.86,8.86,0,0,0,.94,1.64,6.47,6.47,0,0,1,1,3.35,6.25,6.25,0,0,1-.72,3.16,8.14,8.14,0,0,1-2,2.52,15.5,15.5,0,0,1-2.86,2,16.56,16.56,0,0,1-2.11.93l-1.37.49-1.43.49a15.53,15.53,0,0,1-5.09,1A11.3,11.3,0,0,1,365.5,179c-.33-.43-.65-.87-.94-1.32s-.55-.89-.79-1.33a13.82,13.82,0,0,1-1.05-2.38,14.42,14.42,0,0,1-.6-4.23,12.35,12.35,0,0,1,.86-4.33,10.06,10.06,0,0,1,2.6-3.6A6.89,6.89,0,0,1,369.28,160.09Z"/><path class="cls-2" d="M386.28,145.37a31.3,31.3,0,0,0,.69,4.7l1.16-1.19c.39-.4.81-.76,1.21-1.14l1.22-1.13c.41-.38.84-.72,1.26-1.08q-.21-1.65-.27-3.32t.09-3.28c.24-.11.48-.21.73-.3a31.64,31.64,0,0,0,.07,6.38c1-.84,2-1.57,3-2.36s2.08-1.46,3.12-2.19l.18.28.19.28-2.59,1.79-2.5,1.91q1.49.48,2.9.79c.94.21,1.85.36,2.77.5-.1.21-.2.41-.32.61-1-.13-1.92-.3-2.92-.54s-2-.54-3.06-.85c-.8.69-1.62,1.34-2.39,2.05s-1.56,1.42-2.3,2.16c1.05.2,2.12.39,3.12.5s2,.16,2.94.19a9.73,9.73,0,0,0-1.06.39l-.46.21A39.29,39.29,0,0,1,388,150a66.76,66.76,0,0,0-6.41,7.45c.93.05,1.82.08,2.72.11s1.78,0,2.64,0c1.69,0,3.37-.06,4.94-.18a4.44,4.44,0,0,1,.12.63c-.83.07-1.69.11-2.56.13s-1.74.07-2.65.07c-1.84,0-3.7,0-5.68-.15-.6.78-1.13,1.6-1.68,2.42l-.82,1.22-.76,1.26c.92,0,1.81-.09,2.69-.15s1.76-.12,2.61-.21,1.66-.19,2.48-.29,1.62-.22,2.39-.35a13.68,13.68,0,0,0-3,1.08c-1.18.15-2.41.27-3.69.37s-2.54.19-3.89.24c-.4.64-.76,1.3-1.12,2s-.73,1.32-1.07,2c-.65,1.36-1.34,2.7-1.9,4.1,1-.18,2-.38,2.95-.59s1.92-.42,2.83-.65c1.8-.47,3.58-.95,5.18-1.52.1.19.19.39.26.59q-1.27.44-2.65.83c-.91.26-1.83.53-2.79.77-2,.47-3.94.93-6.1,1.31-.35.78-.63,1.59-.93,2.38s-.6,1.59-.85,2.41l3.67-1c1.2-.33,2.35-.67,3.49-1s2.26-.66,3.33-1,2.16-.65,3.16-1a5.84,5.84,0,0,1-.18.71c-4.11,1.33-8.73,2.66-13.72,4-.5,1.44-.84,2.93-1.24,4.4l-.35,0-.31-.14c.41-1.48.75-3,1.26-4.45A31.45,31.45,0,0,1,363.67,164q.27-.43.57-.84a30,30,0,0,0,.92,3.76,35.51,35.51,0,0,0,1.37,3.6,32.81,32.81,0,0,0,1.82,3.4q.5.82,1,1.61c.38.53.77,1.05,1.17,1.56.35-1.19.83-2.33,1.25-3.5s1-2.28,1.43-3.43a35,35,0,0,1-2.57-4.86,34.17,34.17,0,0,1-1.7-5.2l.29,0,.43,0a31.79,31.79,0,0,0,3.89,9.39c.42-.86.83-1.73,1.26-2.58l1.37-2.53a33.71,33.71,0,0,1-1.44-3.21,29.62,29.62,0,0,1-1.1-3.33,6.39,6.39,0,0,0,.47-1,32.08,32.08,0,0,0,2.48,6.89,72.8,72.8,0,0,1,5.46-8A36.43,36.43,0,0,1,380.9,151a35.22,35.22,0,0,1-.52-4.66l.71.14a35.65,35.65,0,0,0,.48,4.27,32.27,32.27,0,0,0,1.05,4.19c1.19-1.51,2.47-2.93,3.78-4.34a36.43,36.43,0,0,1-.78-4.65A6.23,6.23,0,0,0,386.28,145.37Z"/><path class="cls-5" d="M347.5,169.93a7.78,7.78,0,0,0,.65-1.51,2.42,2.42,0,0,0-.41-1.86,4,4,0,0,0-1.56-1.25,29.48,29.48,0,0,0-3.85-1,3.36,3.36,0,0,1-2.67-2.43c-.28-1.83,1.48-3.76.31-5.47a4.36,4.36,0,0,0-2.24-1.49c-.85-.31-1.78-.44-2.6-.78a4.87,4.87,0,0,1-1.8-1.32,7.4,7.4,0,0,1-.7-1,8,8,0,0,1-.57-1c-.85-1.81.3-3.61.65-4.18s1.31-2.49,3.48-2.41a8.88,8.88,0,0,1,1.28.14,7.79,7.79,0,0,1,1.27.38,5.25,5.25,0,0,1,2.14,1.43,25.21,25.21,0,0,1,1.73,2.5,6.18,6.18,0,0,0,2.13,2.11c2,1.07,3.77-.89,5.86-.43,1.52.31,2.57,1.87,3,3.32s.52,3,1,4.46a5.38,5.38,0,0,0,1.13,2,3.07,3.07,0,0,0,1.86,1.11,9.47,9.47,0,0,0,1.76-.05,5.93,5.93,0,0,1,3.33,1,8.51,8.51,0,0,1,2.56,2.77,10.48,10.48,0,0,1,1.17,3.56,12.51,12.51,0,0,1-.06,3.65,15.66,15.66,0,0,1-1.8,4.61,10,10,0,0,1-2.89,3.5,13.09,13.09,0,0,1-4.5-.25,27.06,27.06,0,0,1-4.46-1.09,13.3,13.3,0,0,1-2.7-1.41,7.33,7.33,0,0,1-2-2,5.87,5.87,0,0,1-.48-5.72Z"/><path class="cls-4" d="M339.11,155.59c1.29-.34,2.56-.64,3.89-1-.71-.63-1.42-1.26-2.17-1.85s-1.48-1.2-2.25-1.75q-1.35.5-2.65,1t-2.59.91c-.13-.15-.26-.31-.37-.47,1.62-.54,3.34-1.18,5.06-1.81-.86-.67-1.79-1.25-2.68-1.87s-1.85-1.16-2.77-1.74l.15-.25.15-.25,2.34,1.45,2.28,1.55a15.48,15.48,0,0,0-.76-5.13l.67.09a16.15,16.15,0,0,1,.66,5.46c.73.55,1.49,1.08,2.2,1.66s1.44,1.14,2.14,1.75a15.52,15.52,0,0,0-.36-5.45l.59.92.28.4a15.79,15.79,0,0,1,0,4.59,67.31,67.31,0,0,1,6.13,6,22.47,22.47,0,0,0,.71-4.7,21.24,21.24,0,0,0-.29-4.67,3.68,3.68,0,0,1,.61,0,24.24,24.24,0,0,1,.28,2.46q.06,1.25,0,2.5a23.11,23.11,0,0,1-.83,5c.58.63,1.12,1.3,1.67,2l.82,1,.78,1c.26-.76.49-1.52.67-2.29s.31-1.53.41-2.3a21.63,21.63,0,0,0,.19-2.32q0-1.15-.08-2.31a31,31,0,0,0,.64,3.12,24.87,24.87,0,0,1-.45,3.35,25.79,25.79,0,0,1-1,3.31,67.48,67.48,0,0,1,4.36,6.59,22.07,22.07,0,0,0,1.77-5,21.63,21.63,0,0,0,.56-5.15,5.14,5.14,0,0,1,.6.09,24.89,24.89,0,0,1-.14,2.73,22.62,22.62,0,0,1-.49,2.7,23.19,23.19,0,0,1-1.95,5.2c.39.64.72,1.3,1.07,2s.7,1.31,1,2c.29-.48.56-1,.82-1.47s.49-1,.71-1.5a30,30,0,0,0,1.19-3.11,28.24,28.24,0,0,0,1.23-6.5q.3.31.57.65a28.78,28.78,0,0,1-4.22,12.57c.6,1.19,1.09,2.43,1.62,3.65l-.25.16-.29.06c-.53-1.21-1-2.44-1.61-3.62-4.45-.59-8.57-1.25-12.28-2a5.32,5.32,0,0,1-.23-.61c1.86.39,3.78.76,5.83,1.08,1,.17,2,.34,3.12.49l3.27.44c-.92-1.92-2-3.77-3.05-5.6-1.6,0-3.16-.09-4.65-.18s-3-.16-4.38-.29l.09-.22.15-.31c1.32.1,2.67.2,4.09.25s2.83.13,4.32.15c-.45-.69-.88-1.39-1.34-2.08l-1.41-2c-2.06.13-4,.18-5.91.23a4.08,4.08,0,0,0-.66-.54c2-.05,4-.12,6.15-.25a72,72,0,0,0-5.35-6.39q-2,.39-3.95.68c-1.3.22-2.56.41-3.78.57l.17-.58q1.68-.23,3.46-.53c1.19-.21,2.37-.4,3.61-.64-1.13-1.2-2.33-2.33-3.54-3.44q-2,.55-3.87,1A3.46,3.46,0,0,0,339.11,155.59Z"/><polygon class="cls-6" points="355.5 213.49 376.27 213.49 383.45 178.03 348.31 178.03 355.5 213.49"/><path class="cls-7" d="M381.44,187.95l-5.18,25.54H355.5l-2-9.67a33.28,33.28,0,0,0,27.9-15.87Z"/><path class="cls-7" d="M349.12,182h27.63a1.09,1.09,0,0,1,1.08,1.28h0a1.09,1.09,0,0,1-1.08.91H349.57Z"/><path class="cls-8" d="M397.52,213.49H2.58A2.55,2.55,0,0,0,0,215.72a2.48,2.48,0,0,0,2.47,2.72H66.22a2.48,2.48,0,0,1,2.48,2.48h0a2.48,2.48,0,0,1-2.48,2.48H41.89a2.55,2.55,0,0,0-2.57,2.23,2.48,2.48,0,0,0,2.47,2.72h65a2.48,2.48,0,0,1,2.48,2.48h0a2.48,2.48,0,0,1-2.48,2.48H84.15a2.55,2.55,0,0,0-2.57,2.23A2.48,2.48,0,0,0,84,238.26H315.85a2.55,2.55,0,0,0,2.57-2.23A2.48,2.48,0,0,0,316,233.3H293.19a2.48,2.48,0,0,1-2.48-2.48h0a2.48,2.48,0,0,1,2.48-2.48h64.92a2.55,2.55,0,0,0,2.57-2.23,2.48,2.48,0,0,0-2.47-2.72H333.78a2.48,2.48,0,0,1-2.48-2.48h0a2.48,2.48,0,0,1,2.48-2.48h63.63a2.55,2.55,0,0,0,2.57-2.23A2.48,2.48,0,0,0,397.52,213.49Z"/><path class="cls-9" d="M79.52,115.75C70.65,102,74.1,81.45,86.92,71.58c8.5-6.54,19.69-8.29,30.3-7.77,32.36,1.58,62.27,22,94.65,20.72,14.91-.57,29.23-5.72,43.66-9.61s29.85-6.51,44.13-2.05S326.52,90.71,325.87,106L312.1,159.78H89.19Z"/><path class="cls-10" d="M311.52,101.93c-2.84-4.06-5.8-8.22-10-10.87-8.29-5.23-19.73-4.09-29.3-1.93-6-3.34-14-.27-18.29,5.06s-6,12.31-7.44,19l-2.16,9.74a25.13,25.13,0,0,1-2.78,8.05c-1.52,2.42-4.1,4.36-7,4.32-4-.06-6.92-3.79-9.16-7.15l-9.57-14.37c-2.89-4.34-5.82-8.72-9.67-12.23s-8.77-6.12-14-6.18c-8.54-.09-16.11,6.52-24.65,6.33C157.2,101.48,149.32,91.45,139,90c-8.3-1.15-16.33,3.58-22.41,9.34s-11,12.72-17.7,17.8c-3.8,2.89-8.1,5.12-11.62,8.34a19.54,19.54,0,0,0-4.39,5.73l6.27,28.54H312.1L322.8,118Z"/><path class="cls-10" d="M301.66,189.35H98.34l-9-35.47a4.53,4.53,0,0,1,4.39-5.64H306.28a4.53,4.53,0,0,1,4.39,5.64Z"/><path class="cls-9" d="M295.92,189.35H104.08l-8.5-35.47a4.47,4.47,0,0,1,4.14-5.64H300.29a4.47,4.47,0,0,1,4.14,5.64Z"/><path class="cls-9" d="M98.34,189.35l-19-74.65a17.58,17.58,0,0,0-23.27-12.11h0a17.58,17.58,0,0,0-9.59,24.13L71.7,178.52A19.23,19.23,0,0,0,89,189.35Z"/><path class="cls-9" d="M301.66,189.35l19-74.65a17.58,17.58,0,0,1,23.27-12.11h0a17.58,17.58,0,0,1,9.59,24.13L328.3,178.52A19.23,19.23,0,0,1,311,189.35Z"/><path class="cls-11" d="M140.56,130.86l7.78-14.2a12,12,0,0,0,4.18-.85,7.35,7.35,0,0,0,4.67-7.6,51.46,51.46,0,0,1-.08-8.59l3.12,5.61L170,98l-9-13.91L149.1,79.23,137.18,75a21.5,21.5,0,0,0-17.59,15.7c-1.26,5-.64,10.52-2.7,15.3-1.86,4.33-5.66,7.48-9.5,10.21a66.34,66.34,0,0,0-9.06,7C107.14,121.3,122.66,123.43,140.56,130.86Z"/><polygon class="cls-12" points="157.11 99.63 157.11 91.23 164.16 102.34 160.23 105.23 157.11 99.63"/><path class="cls-12" d="M121.46,89.85l2.64,14.92a1.87,1.87,0,0,0,2.46,1.44h0l9.5,16.45a9.37,9.37,0,0,0,6.5,4.54h0l5.78-10.55Z"/><path class="cls-12" d="M135.2,129.57a31.62,31.62,0,0,0-5.6-4.62,37.93,37.93,0,0,0-15.44-5.78,31.62,31.62,0,0,0-7.25-.2,107.21,107.21,0,0,1,14.57,4.15A107.21,107.21,0,0,1,135.2,129.57Z"/><path class="cls-12" d="M134.2,129.15a21.77,21.77,0,0,0-14.25-13,49.51,49.51,0,0,1,14.25,13Z"/><path class="cls-12" d="M135.43,123.8c-1.75-2.46-4.19-5.48-6.63-8.49s-4.92-6-7-8.21a48.43,48.43,0,0,0,13.61,16.71Z"/><path class="cls-13" d="M161,104.67l10.23,14.49a10.3,10.3,0,0,0,7,4.26l17.37,2.42,1.64-8.13L179.49,114,169.34,98.53Z"/><polygon class="cls-7" points="169.34 98.53 170.03 99.57 163.49 108.2 161 104.67 169.34 98.53"/><path class="cls-6" d="M235.91,160.83l0-.11c.14-.3.27-.63.4-1s.27-.68.42-1l.05-.12.12,0c6-1.79,13-3.83,19.75-5.81l9-2.62A24.23,24.23,0,0,1,276.82,141l3-1.21L265,129.42l-34.86,18a15,15,0,0,0-7.61,17l11.73,45.41,12.52-.91A183.47,183.47,0,0,0,236,160.94Z"/><path class="cls-14" d="M256.71,152.81c-6.75,2-13.72,4-19.75,5.81l-.12,0-.05.12c-.14.31-.28.65-.42,1s-.27.66-.4,1l0,.11,0,.11A183.47,183.47,0,0,1,246.76,209l.56,0a184,184,0,0,0-10.81-48.11c.12-.28.25-.58.37-.88s.23-.58.35-.85c6-1.78,12.92-3.81,19.63-5.77,6.49-1.9,13.18-3.85,19.05-5.6l.34-.69C270.27,148.84,263.38,150.86,256.71,152.81Z"/><path class="cls-15" d="M234.24,209.9l-11.86,7.21-4-.76a1.33,1.33,0,0,0-1.57,1.3h0a2.92,2.92,0,0,0,3.32,2.89l2.34-.32,1.87.46a13.78,13.78,0,0,0,7.63-.3l6.06-2,5.4.88a3.36,3.36,0,0,0,2.72-.76h0a3.36,3.36,0,0,0,.72-4.25l-3-5.06Z"/><polygon class="cls-7" points="243.9 209.21 234.24 209.9 245.26 211.53 243.9 209.21"/><path class="cls-6" d="M264,153.05a24.22,24.22,0,0,1,1.16-2.15l-8.34,2.44c-6.7,2-13.63,4-19.63,5.77-.12.27-.24.56-.35.85s-.24.6-.37.88A184,184,0,0,1,247.33,209l-.43,0,3-.22-4.35-25.71A83.9,83.9,0,0,0,239,161.81l34.13-8.3-10.49,2.55Z"/><path class="cls-7" d="M265.66,150.19l10.6-3.13,3.55-7.24-3,1.21A24.23,24.23,0,0,0,265.66,150.19Z"/><path class="cls-7" d="M264,153.05l-1.44,3,10.49-2.55,2.83-5.76-10.71,3.16A24.22,24.22,0,0,0,264,153.05Z"/><polygon class="cls-14" points="246.76 209 246.9 208.99 246.76 209 246.76 209"/><path class="cls-6" d="M265.66,150.19c-.16.24-.31.48-.45.72l10.71-3.16.34-.69Z"/><path class="cls-7" d="M227.45,158.77a58.65,58.65,0,0,0,11.24,2.52,11.71,11.71,0,0,0-11.24-2.52Z"/><path class="cls-7" d="M231.14,155a36.07,36.07,0,0,0,7.57,6.21,10.66,10.66,0,0,0-7.57-6.21Z"/><path class="cls-7" d="M249.12,207.62c-2.24-.56-5.1-1.23-7.91-2.13s-5.55-2-7.7-2.79a23.87,23.87,0,0,0,15.61,4.92Z"/><path class="cls-7" d="M247.28,203.31c-1.23.06-2.81.17-4.38.2s-3.15,0-4.39,0a14.27,14.27,0,0,0,8.77-.19Z"/><path class="cls-7" d="M244.62,186.37a67.24,67.24,0,0,1-16.73-15.12,26.93,26.93,0,0,0,16.73,15.12Z"/><path class="cls-7" d="M263.83,148.52a15.53,15.53,0,0,0-3-3.08,18.34,18.34,0,0,0-8.95-3.79,15.53,15.53,0,0,0-4.28,0,34.7,34.7,0,0,1,16.2,6.87Z"/><path class="cls-7" d="M263.58,146.23a23.9,23.9,0,0,0-7.69-7.24c1,1.08,2.38,2.4,3.77,3.7S262.43,145.29,263.58,146.23Z"/><path class="cls-16" d="M299.26,97l3.82,4,11.17-12.16L300.9,75.46a13.31,13.31,0,0,0-8.77-3.89c-11.77-.58-33.34.65-44.16,14.67l-6.9,17.21,12.31,7.81,3.77-13,.69,1.9a70.36,70.36,0,0,1,4.21,26v.41a4.32,4.32,0,0,0,2.46,4l1.62.77a32.53,32.53,0,0,1,9.29,6.65l.47.48a7.85,7.85,0,0,0,5.62,2.37h0a7.85,7.85,0,0,0,4.44-1.38l14.73-10.1.15-11.17a105.86,105.86,0,0,0-.67-13.35Z"/><path class="cls-17" d="M255.16,105.14l2-6.88c-1.46-4.41-5.42-8.44-5.42-8.44A38.22,38.22,0,0,1,255.16,105.14Z"/><path class="cls-17" d="M299.91,102.75,299.26,97,291.2,86.57A44.64,44.64,0,0,0,299.91,102.75Z"/><path class="cls-17" d="M282.41,73.88a14.5,14.5,0,0,1-3.57,4.29,12.38,12.38,0,0,1-11.53,2.38,14.5,14.5,0,0,1-5-2.53,10.43,10.43,0,0,0,4.56,3.69,11.29,11.29,0,0,0,12.78-2.63A10.43,10.43,0,0,0,282.41,73.88Z"/><path class="cls-17" d="M293.17,108.8a28.35,28.35,0,0,1-3.52.3,30,30,0,0,1-3.83-.21,40.34,40.34,0,0,1-8-1.94,117.71,117.71,0,0,1-14.45-6.46A37.48,37.48,0,0,0,277.11,109a26.38,26.38,0,0,0,8.62,1.52,19.45,19.45,0,0,0,4-.46A15.69,15.69,0,0,0,293.17,108.8Z"/><path class="cls-17" d="M293.2,101.7a45.29,45.29,0,0,1-15.59,2,18.53,18.53,0,0,0,15.59-2Z"/><path class="cls-17" d="M291.65,127.94a28.4,28.4,0,0,1-17.85,2.4,14.33,14.33,0,0,0,4.2,1.39,16.89,16.89,0,0,0,10-1.34A14.33,14.33,0,0,0,291.65,127.94Z"/><path class="cls-17" d="M265,121.3a19.6,19.6,0,0,0,15.42,7.43A45.67,45.67,0,0,1,265,121.3Z"/><path class="cls-17" d="M310,89a17.88,17.88,0,0,0-7.44,8.23c1-1.19,2.27-2.73,3.62-4.21S308.93,90.16,310,89Z"/><path class="cls-17" d="M305.17,88.55a13.1,13.1,0,0,0-3.45,7.06c.47-1,1-2.3,1.65-3.57S304.67,89.54,305.17,88.55Z"/><path class="cls-17" d="M251.72,107.23a11,11,0,0,0-7.44-5.42,25.08,25.08,0,0,0,7.44,5.42Z"/><path class="cls-17" d="M251.16,101.54a7.61,7.61,0,0,0-7-1.09,28.22,28.22,0,0,0,7,1.09Z"/><path class="cls-15" d="M276.39,205.61v3.15a1.94,1.94,0,0,1-.63,1.43l-7.24,6.59h-3.34a1.47,1.47,0,0,0-1.47,1.47h0a3.06,3.06,0,0,0,3.06,3.06h.59a3.65,3.65,0,0,0,2.11-.67l.59-.41h0a1.23,1.23,0,0,0,1.22,1.41h8.4a1.86,1.86,0,0,0,1.77-1.27h0l2.88-2.92h0a3,3,0,0,0,2.3-3.94L285.45,210v-4.38Z"/><path class="cls-7" d="M280,210.05a10.68,10.68,0,0,0,5.45-2v-2.45h-9.05v3.15a1.93,1.93,0,0,1-.2.84A10.62,10.62,0,0,0,280,210.05Z"/><path class="cls-6" d="M300.67,129.42a96.17,96.17,0,0,0-25.55,13.67,11.33,11.33,0,0,0-4.57,8.93c-.24,15.62,2.54,54.92,2.54,54.92l.52.17a17.58,17.58,0,0,0,15-1.87h0V155.45C311.14,152.34,303.49,134.51,300.67,129.42Z"/><path class="cls-14" d="M303.76,137.52a10.62,10.62,0,0,1-.68,3.61,13.61,13.61,0,0,1-7,7.21,20.76,20.76,0,0,1-10.07,1.78l-.3,0,1.26,56,.56-.29-1.24-55.16a21.11,21.11,0,0,0,10-1.85,14.18,14.18,0,0,0,7.24-7.52,11.06,11.06,0,0,0,.5-1.74c0-.08-.1-.79-.34-2.05Z"/><path class="cls-7" d="M278.59,146.6c1.65,1.16,3.56,2.46,5.32,4s3.36,3.16,4.77,4.6a8.07,8.07,0,0,0-1-3.22,10.46,10.46,0,0,0-5.77-4.9A8.07,8.07,0,0,0,278.59,146.6Z"/><path class="cls-7" d="M283.59,145.79a16,16,0,0,1,5.1,9.31,9.42,9.42,0,0,0-5.1-9.31Z"/><path class="cls-7" d="M278.88,150.77c1.4.54,3.21,1.21,5,2s3.48,1.65,4.83,2.31a16.46,16.46,0,0,0-9.8-4.29Z"/><path class="cls-7" d="M281.77,170.12c-1.45-1.9-3.33-4.32-5-6.86s-3.21-5.2-4.41-7.27a24.66,24.66,0,0,0,9.43,14.14Z"/><path class="cls-7" d="M286.79,204a25.81,25.81,0,0,1-13.12-1.3,13.26,13.26,0,0,0,13.12,1.3Z"/><path class="cls-7" d="M286.59,199.59a15.91,15.91,0,0,1-8.12,3.59,8.57,8.57,0,0,0,8.12-3.59Z"/><path class="cls-7" d="M301.18,138.61a12.49,12.49,0,0,0-12.13-1.78,24.74,24.74,0,0,1,12.13,1.78Z"/><path class="cls-7" d="M301.39,135.39a16.06,16.06,0,0,0-12,1.51,49.72,49.72,0,0,1,12-1.51Z"/><path class="cls-15" d="M304.23,99.74l5.83,7.1-19.8,26.21-6.69,1.26a6.59,6.59,0,0,0-3.16,1.56l-.54.48a6.59,6.59,0,0,0-2.21,4.92h0l2.14-1.45,5.74.74a8.45,8.45,0,0,0,8.32-4h0l24.07-23.61a9.2,9.2,0,0,0,.6-12.48L311.38,92Z"/><polygon class="cls-7" points="311.38 91.95 304.23 99.74 306.88 102.97 312.1 92.81 311.38 91.95"/><path class="cls-15" d="M275.53,72.32l-1.27-7.7a14.76,14.76,0,0,1-2.2,4.57,9.45,9.45,0,0,1-5.8,3.75l.27,1.39c-1,.3-2,.62-2.93,1a8,8,0,0,0,5.5,4A9.56,9.56,0,0,0,276.87,77a11.88,11.88,0,0,0,3.48-5.27C278.78,71.9,277.17,72.08,275.53,72.32Z"/><path class="cls-7" d="M272.06,69.19a14.76,14.76,0,0,0,2.2-4.57h0l-.39-2.38-8.63,5.37,1,5.32h0A9.45,9.45,0,0,0,272.06,69.19Z"/><circle class="cls-18" cx="250.57" cy="58.95" r="4.57"/><circle class="cls-13" cx="250.57" cy="58.95" r="2.61"/><path class="cls-15" d="M263.37,71h0A13,13,0,0,1,249.9,58.49l-.38-10.6a13,13,0,0,1,12.54-13.47h0A13,13,0,0,1,275.54,47l.38,10.6A13,13,0,0,1,263.37,71Z"/><path class="cls-19" d="M275.91,58.6c-2.32-1.7-3-2.92-2.84-7.08a7.06,7.06,0,0,1-2.66-4.32,14,14,0,0,1,.45-5.44,3.92,3.92,0,0,0-3.77,0c-1.21.56-2.25,1.43-3.41,2.07a4.7,4.7,0,0,1-3.83.58c-1.2-.45-2.1-1.66-3.38-1.75s-2.11.77-3,1.47a8.11,8.11,0,0,1-4.68,1.95,4.09,4.09,0,0,1-4-2.61c-.48-1.62.38-3.33,1.37-4.7s2.18-2.71,2.47-4.38-.39-3.44,0-5.09a4.82,4.82,0,0,1,3.94-3.3,8.12,8.12,0,0,1,5.21,1.15A9.65,9.65,0,0,0,261,28.69a5.6,5.6,0,0,0,3.3-.79,26.9,26.9,0,0,1,3.06-1.6,6.85,6.85,0,0,1,9.2,7,5.18,5.18,0,0,1,6,2.21,8.72,8.72,0,0,1,1,4.79,35.36,35.36,0,0,1-4.9,17.4C278.08,57.93,276.53,58.36,275.91,58.6Z"/><circle class="cls-15" cx="279.17" cy="56.34" r="4.57"/><circle class="cls-18" cx="279.17" cy="56.34" r="2.61"/><path class="cls-19" d="M265.1,47.1A4.79,4.79,0,0,0,261,48.35l7.54,1.25A4.79,4.79,0,0,0,265.1,47.1Z"/><circle class="cls-7" cx="264.37" cy="53.2" r="1.18"/><path class="cls-19" d="M252.72,46.77A3.05,3.05,0,0,1,255.78,48l-5.65,1.25A3.86,3.86,0,0,1,252.72,46.77Z"/><ellipse class="cls-7" cx="253.27" cy="52.87" rx="0.88" ry="1.18"/><path class="cls-18" d="M260.75,58.39a5.39,5.39,0,0,0-4.7-.17,3.14,3.14,0,0,0,2.18,1.18A3.77,3.77,0,0,0,260.75,58.39Z"/><path class="cls-20" d="M267.8,60.56a26.21,26.21,0,0,1-10.36,1.95,5.75,5.75,0,0,0,3.47,3.54,5.54,5.54,0,0,0,4.8-.78A6.19,6.19,0,0,0,267.8,60.56Z"/><polygon class="cls-18" points="242.06 125.84 251.74 110.22 242.06 104.09 240.56 107.88 242.06 125.84"/><polygon class="cls-7" points="242.06 104.09 251.74 110.22 248.96 114.71 241.47 105.59 242.06 104.09"/><path class="cls-15" d="M233.4,94.29l-1.72,2.64a3.32,3.32,0,0,0,.17,3.86l2.76,3.52Z"/><path class="cls-15" d="M234.6,104.31l-4.38,17.22a6.33,6.33,0,0,0,6.14,7.9h0a6.33,6.33,0,0,0,6.27-7.24l-2.07-14.31H235Z"/><polygon class="cls-21" points="247.03 107.88 235.03 107.88 232.55 87.23 249.52 87.23 247.03 107.88"/><polygon class="cls-22" points="232.9 90.17 235.03 107.88 247.03 107.88 247.03 107.88 232.9 90.17"/><path class="cls-20" d="M239.38,81.58a3.12,3.12,0,0,0-1.72-2.74,6.49,6.49,0,0,0-2.7-.12,2.5,2.5,0,0,1-2.39-1c-.67-1.25.68-2.85.11-4.15a2.29,2.29,0,0,0-1.75-1.17c-.72-.13-1.46-.07-2.19-.16a6.21,6.21,0,0,1-4.65-3.4,8,8,0,0,1-.4-5.85,11.43,11.43,0,0,1,3.22-5,9.78,9.78,0,0,1,4.29-2.47,6,6,0,0,1,4.79.78,4.3,4.3,0,0,1,1.77,4.37,22.81,22.81,0,0,1-1.51,3.13c-.45,1.07-.41,2.55.59,3.13.65.38,1.5.26,2.12.68a2.18,2.18,0,0,1,.28,2.87,26.72,26.72,0,0,1-2.09,2.39,2.56,2.56,0,0,0-.42,2.93A5,5,0,0,0,238.47,77a4.7,4.7,0,0,1,2.29,3.69c.06.92-.21,2.64-1,3.23C238.57,84.73,239.42,82.21,239.38,81.58Z"/><path class="cls-20" d="M243.71,79.49c-.52-.61-1.36-1.14-1.28-1.93,0-.49.45-.87.7-1.3a4.16,4.16,0,0,0,0-3.26,5.32,5.32,0,0,1-.35-3.28,2.75,2.75,0,0,1,2.6-1.74,3.35,3.35,0,0,1,2.74,1.65,4.31,4.31,0,0,1,.42,3.23,8.54,8.54,0,0,1-1.22,2.54c-.33.5-.67,1-1,1.49a3.39,3.39,0,0,0-.75,1.67c0,.78.46,1.49.55,2.27a2.17,2.17,0,0,1-.59,1.68c-.23.25-1.34,1.13-1.69.71-.06-.07.54-1.53.55-1.83A2.78,2.78,0,0,0,243.71,79.49Z"/><path class="cls-7" d="M222.71,105.56a32.76,32.76,0,0,1-46.5,1,15.9,15.9,0,0,0,5.81-6.5,49.15,49.15,0,0,0,2.72-7.75,30.92,30.92,0,0,1,3.09-7.6,11.86,11.86,0,0,1,6.16-5.2,7.42,7.42,0,0,1,7.61,1.67c2.47-1.36,5.92-1,8.53.07a9.63,9.63,0,0,1,5.5,6.08c1.19,4-.32,8.56,1.37,12.38C218,102,220.69,104.14,222.71,105.56Z"/><path class="cls-23" d="M182.35,133.65l1.5-9.66a11.58,11.58,0,0,1,6.79-8.83l5.74-2.52,8.52,0,4.4,2.26a9.94,9.94,0,0,1,5,5.89l3.13,10-15.69,6Z"/><path class="cls-24" d="M193.37,130.86a19.06,19.06,0,0,0-4.2-12.46c.7,1.72,1.62,3.9,2.37,6.14S192.89,129.06,193.37,130.86Z"/><path class="cls-24" d="M203.46,121.63a8.79,8.79,0,0,1-9.44-5.48,6.31,6.31,0,0,0,.95,2.74,6.93,6.93,0,0,0,5.64,3.28A6.31,6.31,0,0,0,203.46,121.63Z"/><path class="cls-24" d="M206.49,115.44a8,8,0,0,1-5.77,5.24,5.62,5.62,0,0,0,5.77-5.24Z"/><path class="cls-24" d="M207,132.14c.15-2,.29-4.56.61-7.1s.77-5.06,1.1-7A21.68,21.68,0,0,0,207,132.14Z"/><path class="cls-24" d="M204.67,128.26a31,31,0,0,1-10.38-5.45,13.39,13.39,0,0,0,10.38,5.45Z"/><path class="cls-7" d="M198,115.82a5.55,5.55,0,0,0,5.73-.52,5.44,5.44,0,0,0,1.17-1.34c0-.43.06-.85.07-1.28a41.1,41.1,0,0,1-9.33-.28,10.15,10.15,0,0,0,.1,1.66A6.84,6.84,0,0,0,198,115.82Z"/><path class="cls-18" d="M203.69,115.3a5.55,5.55,0,0,1-5.73.52,6.84,6.84,0,0,1-2.26-1.76,7.1,7.1,0,0,0,1.53,3.65,4.23,4.23,0,0,0,4.89,1.3,4.78,4.78,0,0,0,2.25-2.7,9,9,0,0,0,.49-2.35A5.44,5.44,0,0,1,203.69,115.3Z"/><circle class="cls-18" cx="214.35" cy="105.22" r="3.53"/><circle class="cls-13" cx="214.35" cy="105.22" r="2.13"/><path class="cls-15" d="M201.89,89.85a23.53,23.53,0,0,1-13.35,8.47l-1.43,3c0,.09,0,.18,0,.27a13.3,13.3,0,1,0,26.22-3.12A20.31,20.31,0,0,0,201.89,89.85Z"/><circle class="cls-15" cx="185.49" cy="104.09" r="3.53"/><circle class="cls-18" cx="185.49" cy="104.09" r="2.13"/><path class="cls-7" d="M195.42,96.51a4.08,4.08,0,0,0-3.32,2.24,38.13,38.13,0,0,1,7-.61A4.08,4.08,0,0,0,195.42,96.51Z"/><circle class="cls-7" cx="195.88" cy="100.89" r="1.26"/><path class="cls-7" d="M208.21,96.83a4.08,4.08,0,0,1,3.19,2.43,38.13,38.13,0,0,0-6.93-1A4.08,4.08,0,0,1,208.21,96.83Z"/><circle class="cls-7" cx="207.51" cy="101.17" r="1.26" transform="translate(94.93 302.72) rotate(-86.8)"/><path class="cls-18" d="M203.74,104.81a6.59,6.59,0,0,0-3.63-.09,2.18,2.18,0,0,0,1.74,1.24A2.33,2.33,0,0,0,203.74,104.81Z"/><path class="cls-20" d="M207.76,107.24a19,19,0,0,1-11.36.2,7.17,7.17,0,0,0,2,3.78,5,5,0,0,0,4,1.38,5.48,5.48,0,0,0,3.29-1.85A13.37,13.37,0,0,0,207.76,107.24Z"/><path class="cls-7" d="M163,198.36l-1-2.79-8.49-1.7-1.8,2.7A11.36,11.36,0,0,0,163,198.36Z"/><path class="cls-18" d="M172.19,211.39l-2.83-.7a3.89,3.89,0,0,1-2.71-2.43L163,198.36a11.36,11.36,0,0,1-11.31-1.79l-.78,1.18a3.52,3.52,0,0,0,1.37,5.12,10.14,10.14,0,0,1,4.77,5l1.79,4a4.72,4.72,0,0,0,4.31,2.8h6.62a3,3,0,0,0,2.94-2.38A.72.72,0,0,0,172.19,211.39Z"/><path class="cls-25" d="M174.06,143.15l-19.51-8.22c-16.66-6.91-31.11-8.89-39.3-7.11a20.6,20.6,0,0,0-1.62,1.83c-3,3.92-4.59,5.26-3.86,10.16.44,3,51.23,17.74,51.23,17.74-2.35,3.26-3.33,7.36-3.71,11.36s-.28,8-.81,12a37.77,37.77,0,0,1-5.19,14.64c4.71,3.18,11.82,1.6,11.82,1.6L165,190.6l14.54-34A10.2,10.2,0,0,0,174.06,143.15Z"/><path class="cls-7" d="M162.68,195c-1.31-.18-2.82-.33-4.32-.59s-3-.62-4.28-.87a7,7,0,0,0,8.6,1.46Z"/><path class="cls-7" d="M160.69,194c-.53-.22-1.15-.45-1.76-.71s-1.21-.56-1.73-.78a3.14,3.14,0,0,0,3.49,1.49Z"/><path class="cls-7" d="M142.38,199.26a13.31,13.31,0,0,0,5.42-1.44l-.31-.83-8.49-1.7-2,3.06A13.31,13.31,0,0,0,142.38,199.26Z"/><path class="cls-18" d="M157.7,212.8l-2.83-.7a3.89,3.89,0,0,1-2.71-2.43l-4.36-11.84a13.17,13.17,0,0,1-10.84.53l-.54.81a3.52,3.52,0,0,0,1.37,5.12h0a10.14,10.14,0,0,1,4.77,5l1.79,4a4.72,4.72,0,0,0,4.31,2.8h6.62a3,3,0,0,0,2.94-2.38A.72.72,0,0,0,157.7,212.8Z"/><path class="cls-14" d="M161.53,139.68l-21-8.83c-17.9-7.43-33.42-9.55-42.22-7.64a22.14,22.14,0,0,0-1.75,2,20.07,20.07,0,0,0-3.94,15c.47,3.21,1.4,6.44,3.75,8.71l.65.6a19,19,0,0,0,12.13,4.64l38.31,1c-2.53,3.5-3.58,7.91-4,12.21s-.3,8.64-.87,12.92A40.58,40.58,0,0,1,137.05,196c5.06,3.42,12.7,1.72,12.7,1.72l2-7.07,15.62-36.58A11,11,0,0,0,161.53,139.68Z"/><path class="cls-25" d="M160.9,144.06a15.41,15.41,0,0,0-4,1.27,18.21,18.21,0,0,0-7.27,6.2,15.42,15.42,0,0,0-1.89,3.76,34.85,34.85,0,0,1,13.18-11.23Z"/><path class="cls-25" d="M155.46,143.07a11.26,11.26,0,0,0-3,1.87,13.27,13.27,0,0,0-4.19,6.79,11.26,11.26,0,0,0-.33,3.5,22.12,22.12,0,0,1,7.49-12.15Z"/><path class="cls-25" d="M110.42,142.71a133,133,0,0,1,11.24-7.62,133,133,0,0,1,12.08-6.2,36,36,0,0,0-23.32,13.82Z"/><path class="cls-25" d="M122.11,145.38c1.24-2.06,2.82-4.69,4.62-7.17s3.8-4.81,5.37-6.63a23.4,23.4,0,0,0-10,13.8Z"/><path class="cls-25" d="M149.1,195.24c-1.43,0-3.07,0-4.71-.17s-3.26-.43-4.67-.65a7.24,7.24,0,0,0,9.38.82Z"/><path class="cls-25" d="M146.74,194.29c-.7-.22-1.54-.42-2.36-.65s-1.64-.49-2.36-.67a4.23,4.23,0,0,0,4.72,1.32Z"/><path class="cls-18" d="M139.08,94.2l12.52,23.86,32.27,3.64a10.52,10.52,0,0,1,4.82,1.81l5.34,3.71-4.19,3.64-6.83-1-2.49-2.48-29.63.72a11.47,11.47,0,0,1-10.05-5.46L128,101.7Z"/><polygon class="cls-7" points="139.08 94.2 127.97 101.7 130.14 105.22 139.63 95.27 139.08 94.2"/><path class="cls-11" d="M126.11,103l13.66-9.22L135,85.37a7.25,7.25,0,0,0-9.81-2.76h0a7.25,7.25,0,0,0-3.29,8.83Z"/><path class="cls-12" d="M138.18,92.7a49.21,49.21,0,0,0-11.59,5.95A49.21,49.21,0,0,0,138.18,92.7Z"/><path class="cls-12" d="M137.31,92a39.49,39.49,0,0,0-10.25,2.09A39.49,39.49,0,0,0,137.31,92Z"/><path class="cls-13" d="M149.1,79.23a12.64,12.64,0,0,1-1.42-2.43,30.42,30.42,0,0,0,2.41,8.61l3.09-2.65A12.76,12.76,0,0,1,149.1,79.23Z"/><path class="cls-7" d="M147.49,74.78c0,.67.11,1.34.19,2a12.64,12.64,0,0,0,1.42,2.43,12.76,12.76,0,0,0,4.08,3.54l3.29-2.82A21.86,21.86,0,0,1,147.49,74.78Z"/><path class="cls-7" d="M146.89,70.25q2.2,6.57,4.25,13.2c.67,2.18,1.34,4.52.73,6.72a7.06,7.06,0,0,1-5.38,4.78,9.59,9.59,0,0,1-7.19-1.62,15.18,15.18,0,0,1-4.82-5.74,21.86,21.86,0,0,1,.07-19.71c2.57-4.94,4.7-7.07,5.91-12.51.48-2.16.66-4.41,1.55-6.44a13,13,0,0,1,3.72-4.67A18.73,18.73,0,0,1,173,48.07c3.28.15,6.17,3.37,7.14,6.5s.5,6.53-.31,9.71-2,6.29-2.37,9.54c-.53,4.18.2,8.4.6,12.6s.44,8.6-1.32,12.42-5.79,6.89-10,6.31a8.08,8.08,0,0,1-6.35-5.27c-1.16-3.34-.07-7,.68-10.44s1-7.5-1.43-10.09A39,39,0,0,0,146.89,70.25Z"/><circle class="cls-13" cx="168.17" cy="74.39" r="4.16"/><circle class="cls-26" cx="168.17" cy="74.39" r="2.53"/><path class="cls-18" d="M169.75,58a24.4,24.4,0,0,1-18.8.81,10.74,10.74,0,0,1-3.26,2.51l-1.07,2.59a12.62,12.62,0,0,0,6.81,16.5h0a12.62,12.62,0,0,0,16.5-6.81l2.9-7c.12-.3.23-.6.33-.9A29.83,29.83,0,0,0,169.75,58Z"/><path class="cls-7" d="M159.23,61.7a4.77,4.77,0,0,0-4.4,1.23,58.72,58.72,0,0,1,7.85,1.78A4.77,4.77,0,0,0,159.23,61.7Z"/><circle class="cls-7" cx="158.55" cy="66.79" r="1.18"/><path class="cls-7" d="M170.52,66.18a2.68,2.68,0,0,1,1.3,3,30.37,30.37,0,0,0-5.11-2.56A4.05,4.05,0,0,1,170.52,66.18Z"/><path class="cls-7" d="M168.22,70.09a1.41,1.41,0,0,0-1,1.31c0,.62.35,1,.85.93a1.41,1.41,0,0,0,1-1.31C169.1,70.4,168.72,70,168.22,70.09Z"/><path class="cls-26" d="M164.07,74.32a7.46,7.46,0,0,0-3.84-2,4.46,4.46,0,0,1,.36,1.15,2.18,2.18,0,0,0,.56,1.05,1.68,1.68,0,0,0,1.38.34A6.18,6.18,0,0,0,164.07,74.32Z"/><path class="cls-20" d="M162.2,77a15.14,15.14,0,0,1-7-4,9.4,9.4,0,0,0,.42,3,4.46,4.46,0,0,0,1.8,2.27,3.57,3.57,0,0,0,2.59.41A3.93,3.93,0,0,0,162.2,77Z"/><circle class="cls-18" cx="143.69" cy="62.37" r="4.16"/><circle class="cls-13" cx="143.69" cy="62.37" r="2.53"/><polygon class="cls-27" points="90.07 194.06 94.5 213.49 98.34 213.49 98.34 194.06 90.07 194.06"/><polygon class="cls-7" points="98.34 189.35 88.99 189.35 90.07 194.06 98.34 194.06 98.34 189.35"/><polygon class="cls-7" points="311.01 189.35 301.66 189.35 301.66 194.06 309.93 194.06 311.01 189.35"/><polygon class="cls-27" points="301.66 194.06 301.66 213.49 305.5 213.49 309.93 194.06 301.66 194.06"/><path class="cls-28" d="M201.75,132.44a29.24,29.24,0,0,1,17-7.36L216.44,122c-5.48.7-12.56,5.45-14.69,9.19v1.26Z"/><path class="cls-28" d="M201.75,132.44v-1.26l0,.08c-1.8-2.19-6.83-5.73-17.65-6.86l-1.54,2.81A32.05,32.05,0,0,1,201.75,132.44Z"/><path class="cls-29" d="M218.71,125.08a29.24,29.24,0,0,0-17,7.36v2.92l-.07,15A91.66,91.66,0,0,1,218.75,141c.52-5.31,1.14-10.66,1.66-16C219.84,125,219.28,125,218.71,125.08Z"/><path class="cls-30" d="M182.52,127.21c-.67,0-1.34.08-2,.16a130.07,130.07,0,0,1,4.26,17.4,108.63,108.63,0,0,0,16.9,5.56l.07-15v-2.92A32.05,32.05,0,0,0,182.52,127.21Z"/><path class="cls-15" d="M180.29,140.12a5.51,5.51,0,0,1-.68-4,6.37,6.37,0,0,1,2.39-3.67l.32,1.18a2.76,2.76,0,0,1,1.93-.58,2.19,2.19,0,0,1,1.58.83,3.94,3.94,0,0,1,.64,2.23,8.65,8.65,0,0,1-.11,2.3,4,4,0,0,1-1,2,3.2,3.2,0,0,1-2.38.92A3.66,3.66,0,0,1,180.29,140.12Z"/><path class="cls-31" d="M199.37,153.32a8.41,8.41,0,0,1-4.4-6.64c7.07-4.29,14.11-8.58,21-13.08A7.11,7.11,0,0,1,226.06,136l.18.31a7.07,7.07,0,0,1-3.81,10C215,149,207.19,151.11,199.37,153.32Z"/><path class="cls-32" d="M222.09,143.52l-23.14,9.56.42.24c7.82-2.21,15.65-4.3,23.07-7a7.08,7.08,0,0,0,4.09-9.42A7.18,7.18,0,0,1,222.09,143.52Z"/><path class="cls-32" d="M213.89,146.71v0a2,2,0,0,0-1.51-1.76l.07-.57a2.3,2.3,0,0,0-1.72-2.51l-.42-.11a1.09,1.09,0,0,0-1.22.51l-.79,1.34-4.56,1.66L198,145l-.09-.08-2.9,1.77a8.41,8.41,0,0,0,4.4,6.64c4.82-1.37,9.65-2.68,14.38-4.12A9.82,9.82,0,0,0,213.89,146.71Z"/><path class="cls-15" d="M202.44,147.53l6.36-3,.53-1.16a.77.77,0,0,1,1.15-.31h0a2,2,0,0,1,.55,2.67h0a1.05,1.05,0,0,1,1.17,1.23l-.31,1.72a10.43,10.43,0,0,1-1.34,3.56l-.51.85a1.12,1.12,0,0,1-1.21.51l-1.39-.33-6.54-.42Z"/><path class="cls-7" d="M202.94,147.29l-.5.24-1.53,5.28,1.52.1A8.94,8.94,0,0,0,202.94,147.29Z"/><path class="cls-31" d="M200.18,154a8.41,8.41,0,0,0,2.68-7.51c-7.89-2.47-15.76-4.94-23.56-7.65a7.11,7.11,0,0,0-9.19,4.73l-.1.35a7.07,7.07,0,0,0,6.1,8.82C184,153.62,192.05,153.76,200.18,154Z"/><path class="cls-32" d="M176.13,150.61A6.68,6.68,0,0,1,170,144h0a7.07,7.07,0,0,0,6.1,8.82c7.85.85,15.95,1,24.07,1.26a8,8,0,0,0,1.17-1.3Z"/></svg>