<svg xmlns="http://www.w3.org/2000/svg" xmlns:xlink="http://www.w3.org/1999/xlink" viewBox="0 0 400 240"><defs><style>.cls-1{isolation:isolate;}.cls-2{fill:#231f20;}.cls-2,.cls-71{opacity:0.2;}.cls-110,.cls-123,.cls-137,.cls-15,.cls-150,.cls-163,.cls-177,.cls-2,.cls-22,.cls-28,.cls-55,.cls-60,.cls-68,.cls-75,.cls-84,.cls-97{mix-blend-mode:multiply;}.cls-3{fill:url(#linear-gradient);}.cls-4{fill:#9d9eb3;}.cls-5{fill:url(#New_Gradient_Swatch_copy_36);}.cls-6{fill:url(#New_Gradient_Swatch_copy_36-2);}.cls-7{fill:url(#New_Gradient_Swatch_copy_36-3);}.cls-8{fill:url(#New_Gradient_Swatch_copy_36-4);}.cls-9{fill:url(#New_Gradient_Swatch_copy_36-5);}.cls-10{fill:url(#New_Gradient_Swatch_copy_36-6);}.cls-11{fill:url(#New_Gradient_Swatch_copy_36-7);}.cls-12{fill:url(#New_Gradient_Swatch_copy_36-8);}.cls-13{fill:url(#New_Gradient_Swatch_copy_36-9);}.cls-14{fill:url(#New_Gradient_Swatch_copy_36-10);}.cls-15{fill:url(#radial-gradient);}.cls-16{fill:url(#radial-gradient-2);}.cls-17{fill:url(#New_Gradient_Swatch_copy_43);}.cls-18{fill:url(#radial-gradient-3);}.cls-19{fill:url(#New_Gradient_Swatch_copy_43-2);}.cls-20{fill:url(#radial-gradient-4);}.cls-21{fill:url(#New_Gradient_Swatch_copy_43-3);}.cls-22{fill:url(#linear-gradient-2);}.cls-23{fill:url(#New_Gradient_Swatch_copy_25);}.cls-24{fill:url(#New_Gradient_Swatch_copy_35);}.cls-25{fill:url(#New_Gradient_Swatch_copy_35-2);}.cls-26{fill:#d1b4e3;}.cls-27{fill:url(#New_Gradient_Swatch_copy_36-11);}.cls-28{fill:#e6e7e8;}.cls-29{fill:url(#New_Gradient_Swatch_copy_35-3);}.cls-30{fill:url(#New_Gradient_Swatch_copy_25-2);}.cls-31{fill:#f1e8f6;}.cls-32{fill:url(#New_Gradient_Swatch_copy_35-4);}.cls-33{fill:url(#New_Gradient_Swatch_copy_35-5);}.cls-34{fill:url(#linear-gradient-3);}.cls-35,.cls-36,.cls-41,.cls-43,.cls-45,.cls-46,.cls-49,.cls-63,.cls-65,.cls-67,.cls-72{opacity:0.5;}.cls-35{fill:url(#linear-gradient-4);}.cls-36{fill:url(#New_Gradient_Swatch_copy_36-12);}.cls-37{fill:url(#New_Gradient_Swatch_copy_35-6);}.cls-38{fill:url(#linear-gradient-5);}.cls-39{fill:url(#linear-gradient-6);}.cls-40{fill:url(#linear-gradient-7);}.cls-41{fill:url(#linear-gradient-8);}.cls-42{fill:url(#linear-gradient-9);}.cls-43{fill:url(#New_Gradient_Swatch_copy_36-13);}.cls-44{fill:url(#linear-gradient-10);}.cls-45{fill:url(#New_Gradient_Swatch_copy_36-14);}.cls-46{fill:url(#New_Gradient_Swatch_copy_36-15);}.cls-47{fill:url(#New_Gradient_Swatch_copy_36-16);}.cls-48{fill:url(#linear-gradient-11);}.cls-49{fill:url(#New_Gradient_Swatch_copy_36-17);}.cls-50{fill:url(#New_Gradient_Swatch_copy_25-3);}.cls-51{fill:url(#New_Gradient_Swatch_copy_35-7);}.cls-52{fill:url(#New_Gradient_Swatch_copy_35-8);}.cls-53{fill:url(#New_Gradient_Swatch_copy_35-9);}.cls-54{fill:url(#linear-gradient-12);}.cls-55{fill:url(#linear-gradient-13);}.cls-56{fill:url(#New_Gradient_Swatch_copy_35-10);}.cls-57{fill:#7f8091;}.cls-58,.cls-59{fill:#fff;}.cls-58,.cls-73{opacity:0.15;}.cls-59{opacity:0.3;}.cls-60{fill:url(#White_Black_2);}.cls-61{fill:url(#New_Gradient_Swatch_copy_43-4);}.cls-62{fill:url(#radial-gradient-5);}.cls-101,.cls-111,.cls-114,.cls-124,.cls-125,.cls-128,.cls-138,.cls-141,.cls-151,.cls-154,.cls-164,.cls-165,.cls-168,.cls-178,.cls-179,.cls-182,.cls-63,.cls-65,.cls-67,.cls-85,.cls-88,.cls-98{mix-blend-mode:color-dodge;}.cls-63{fill:url(#radial-gradient-6);}.cls-64{fill:url(#radial-gradient-7);}.cls-65{fill:url(#radial-gradient-8);}.cls-66{fill:url(#radial-gradient-9);}.cls-67{fill:url(#radial-gradient-10);}.cls-68{fill:url(#White_Black_2-2);}.cls-69{fill:#6b3a12;}.cls-70,.cls-71,.cls-72{fill:#f7aa90;}.cls-70{opacity:0.1;}.cls-74{fill:url(#linear-gradient-14);}.cls-76{fill:url(#linear-gradient-15);}.cls-77{fill:url(#linear-gradient-16);}.cls-78{fill:url(#linear-gradient-17);}.cls-79{fill:#fdd65b;}.cls-80{fill:url(#linear-gradient-18);}.cls-107,.cls-109,.cls-120,.cls-122,.cls-134,.cls-136,.cls-147,.cls-149,.cls-160,.cls-162,.cls-174,.cls-176,.cls-81,.cls-83,.cls-94,.cls-96{mix-blend-mode:screen;}.cls-81{fill:url(#White_Black_Radial);}.cls-82{fill:url(#linear-gradient-19);}.cls-83{fill:url(#White_Black_Radial-2);}.cls-84{fill:url(#linear-gradient-20);}.cls-85{fill:url(#radial-gradient-11);}.cls-86{fill:url(#linear-gradient-21);}.cls-87{fill:url(#linear-gradient-22);}.cls-88{fill:url(#radial-gradient-12);}.cls-89{fill:url(#linear-gradient-23);}.cls-90{fill:url(#linear-gradient-24);}.cls-91{fill:url(#linear-gradient-25);}.cls-92{fill:url(#linear-gradient-26);}.cls-93{fill:url(#linear-gradient-27);}.cls-94{fill:url(#White_Black_Radial-3);}.cls-95{fill:url(#linear-gradient-28);}.cls-96{fill:url(#White_Black_Radial-4);}.cls-97{fill:url(#linear-gradient-29);}.cls-98{fill:url(#radial-gradient-13);}.cls-99{fill:url(#linear-gradient-30);}.cls-100{fill:url(#linear-gradient-31);}.cls-101{fill:url(#radial-gradient-14);}.cls-102{fill:url(#linear-gradient-32);}.cls-103{fill:url(#linear-gradient-33);}.cls-104{fill:url(#linear-gradient-34);}.cls-105{fill:url(#linear-gradient-35);}.cls-106{fill:url(#linear-gradient-36);}.cls-107{fill:url(#White_Black_Radial-5);}.cls-108{fill:url(#linear-gradient-37);}.cls-109{fill:url(#White_Black_Radial-6);}.cls-110{fill:url(#linear-gradient-38);}.cls-111{fill:url(#radial-gradient-15);}.cls-112{fill:url(#linear-gradient-39);}.cls-113{fill:url(#linear-gradient-40);}.cls-114{fill:url(#radial-gradient-16);}.cls-115{fill:url(#linear-gradient-41);}.cls-116{fill:url(#linear-gradient-42);}.cls-117{fill:url(#linear-gradient-43);}.cls-118{fill:url(#linear-gradient-44);}.cls-119{fill:url(#linear-gradient-45);}.cls-120{fill:url(#White_Black_Radial-7);}.cls-121{fill:url(#linear-gradient-46);}.cls-122{fill:url(#White_Black_Radial-8);}.cls-123{fill:url(#linear-gradient-47);}.cls-124{fill:url(#radial-gradient-17);}.cls-125{fill:url(#radial-gradient-18);}.cls-126{fill:url(#linear-gradient-48);}.cls-127{fill:url(#linear-gradient-49);}.cls-128{fill:url(#radial-gradient-19);}.cls-129{fill:url(#linear-gradient-50);}.cls-130{fill:url(#linear-gradient-51);}.cls-131{fill:url(#linear-gradient-52);}.cls-132{fill:url(#linear-gradient-53);}.cls-133{fill:url(#linear-gradient-54);}.cls-134{fill:url(#White_Black_Radial-9);}.cls-135{fill:url(#linear-gradient-55);}.cls-136{fill:url(#White_Black_Radial-10);}.cls-137{fill:url(#linear-gradient-56);}.cls-138{fill:url(#radial-gradient-20);}.cls-139{fill:url(#linear-gradient-57);}.cls-140{fill:url(#linear-gradient-58);}.cls-141{fill:url(#radial-gradient-21);}.cls-142{fill:url(#linear-gradient-59);}.cls-143{fill:url(#linear-gradient-60);}.cls-144{fill:url(#linear-gradient-61);}.cls-145{fill:url(#linear-gradient-62);}.cls-146{fill:url(#linear-gradient-63);}.cls-147{fill:url(#White_Black_Radial-11);}.cls-148{fill:url(#linear-gradient-64);}.cls-149{fill:url(#White_Black_Radial-12);}.cls-150{fill:url(#linear-gradient-65);}.cls-151{fill:url(#radial-gradient-22);}.cls-152{fill:url(#linear-gradient-66);}.cls-153{fill:url(#linear-gradient-67);}.cls-154{fill:url(#radial-gradient-23);}.cls-155{fill:url(#linear-gradient-68);}.cls-156{fill:url(#linear-gradient-69);}.cls-157{fill:url(#linear-gradient-70);}.cls-158{fill:url(#linear-gradient-71);}.cls-159{fill:url(#linear-gradient-72);}.cls-160{fill:url(#White_Black_Radial-13);}.cls-161{fill:url(#linear-gradient-73);}.cls-162{fill:url(#White_Black_Radial-14);}.cls-163{fill:url(#linear-gradient-74);}.cls-164{fill:url(#radial-gradient-24);}.cls-165{fill:url(#radial-gradient-25);}.cls-166{fill:url(#linear-gradient-75);}.cls-167{fill:url(#linear-gradient-76);}.cls-168{fill:url(#radial-gradient-26);}.cls-169{fill:url(#linear-gradient-77);}.cls-170{fill:url(#linear-gradient-78);}.cls-171{fill:url(#linear-gradient-79);}.cls-172{fill:url(#linear-gradient-80);}.cls-173{fill:url(#linear-gradient-81);}.cls-174{fill:url(#White_Black_Radial-15);}.cls-175{fill:url(#linear-gradient-82);}.cls-176{fill:url(#White_Black_Radial-16);}.cls-177{fill:url(#linear-gradient-83);}.cls-178{fill:url(#radial-gradient-27);}.cls-179{fill:url(#radial-gradient-28);}.cls-180{fill:url(#linear-gradient-84);}.cls-181{fill:url(#linear-gradient-85);}.cls-182{fill:url(#radial-gradient-29);}</style><linearGradient id="linear-gradient" x1="164.45" y1="222.55" x2="274.17" y2="35.63" gradientUnits="userSpaceOnUse"><stop offset="0.06" stop-color="#e6e7e8"/><stop offset="0.08" stop-color="#ecedee"/><stop offset="0.12" stop-color="#f3f4f5"/><stop offset="0.22" stop-color="#e6e7e8"/><stop offset="0.58" stop-color="#fafafb"/><stop offset="0.69" stop-color="#e6e7e8"/><stop offset="1" stop-color="#e6e7e8"/></linearGradient><linearGradient id="New_Gradient_Swatch_copy_36" x1="289.16" y1="97.45" x2="213.59" y2="8.78" gradientUnits="userSpaceOnUse"><stop offset="0.1" stop-color="#45108a"/><stop offset="1" stop-color="#7c1dc9"/></linearGradient><linearGradient id="New_Gradient_Swatch_copy_36-2" x1="291.24" y1="95.68" x2="215.66" y2="7.01" xlink:href="#New_Gradient_Swatch_copy_36"/><linearGradient id="New_Gradient_Swatch_copy_36-3" x1="293.79" y1="93.51" x2="218.21" y2="4.84" xlink:href="#New_Gradient_Swatch_copy_36"/><linearGradient id="New_Gradient_Swatch_copy_36-4" x1="296.65" y1="91.07" x2="221.07" y2="2.4" xlink:href="#New_Gradient_Swatch_copy_36"/><linearGradient id="New_Gradient_Swatch_copy_36-5" x1="298.67" y1="89.35" x2="223.09" y2="0.68" xlink:href="#New_Gradient_Swatch_copy_36"/><linearGradient id="New_Gradient_Swatch_copy_36-6" x1="301.02" y1="87.35" x2="225.44" y2="-1.32" xlink:href="#New_Gradient_Swatch_copy_36"/><linearGradient id="New_Gradient_Swatch_copy_36-7" x1="304.24" y1="84.6" x2="228.66" y2="-4.07" xlink:href="#New_Gradient_Swatch_copy_36"/><linearGradient id="New_Gradient_Swatch_copy_36-8" x1="307.24" y1="82.05" x2="231.66" y2="-6.62" xlink:href="#New_Gradient_Swatch_copy_36"/><linearGradient id="New_Gradient_Swatch_copy_36-9" x1="309.25" y1="80.33" x2="233.67" y2="-8.33" xlink:href="#New_Gradient_Swatch_copy_36"/><linearGradient id="New_Gradient_Swatch_copy_36-10" x1="189.23" y1="233.43" x2="176.56" y2="191.95" xlink:href="#New_Gradient_Swatch_copy_36"/><radialGradient id="radial-gradient" cx="1049.55" cy="-3812.52" r="47.13" gradientTransform="translate(-989.54 4013.75) scale(1.18 1.02)" gradientUnits="userSpaceOnUse"><stop offset="0.19" stop-color="#5f5c5d"/><stop offset="1" stop-color="#fff"/></radialGradient><radialGradient id="radial-gradient-2" cx="290.14" cy="200.08" r="170.99" gradientUnits="userSpaceOnUse"><stop offset="0" stop-color="#ff63ce"/><stop offset="0.41" stop-color="#9f19ab"/><stop offset="0.62" stop-color="#901bb8"/><stop offset="0.82" stop-color="#7c1dc9"/><stop offset="0.99" stop-color="#6d23d5"/><stop offset="1" stop-color="#6b24d6"/></radialGradient><linearGradient id="New_Gradient_Swatch_copy_43" x1="234.81" y1="100.25" x2="293.69" y2="100.25" gradientUnits="userSpaceOnUse"><stop offset="0" stop-color="#25054d"/><stop offset="0.58" stop-color="#2f085f"/><stop offset="1" stop-color="#370b6f"/></linearGradient><radialGradient id="radial-gradient-3" cx="14.12" cy="83.47" r="193.86" xlink:href="#radial-gradient-2"/><linearGradient id="New_Gradient_Swatch_copy_43-2" x1="114.73" y1="54.85" x2="236.05" y2="54.85" xlink:href="#New_Gradient_Swatch_copy_43"/><radialGradient id="radial-gradient-4" cx="156.5" cy="203.57" r="179.51" xlink:href="#radial-gradient-2"/><linearGradient id="New_Gradient_Swatch_copy_43-3" x1="148.93" y1="100.16" x2="250.37" y2="100.16" xlink:href="#New_Gradient_Swatch_copy_43"/><linearGradient id="linear-gradient-2" x1="255.74" y1="193.21" x2="145.61" y2="105.9" gradientUnits="userSpaceOnUse"><stop offset="0" stop-color="#fff"/><stop offset="1" stop-color="#939598"/></linearGradient><linearGradient id="New_Gradient_Swatch_copy_25" x1="204.15" y1="113.49" x2="222.73" y2="90.61" gradientUnits="userSpaceOnUse"><stop offset="0" stop-color="#25054d"/><stop offset="1" stop-color="#45108a"/></linearGradient><linearGradient id="New_Gradient_Swatch_copy_35" x1="236.77" y1="159.96" x2="268.47" y2="231.1" gradientUnits="userSpaceOnUse"><stop offset="0" stop-color="#9f79c8"/><stop offset="0.14" stop-color="#a580cb"/><stop offset="0.33" stop-color="#b492d3"/><stop offset="0.55" stop-color="#cdb0e1"/><stop offset="0.58" stop-color="#d1b4e3"/><stop offset="0.76" stop-color="#dbc4e9"/><stop offset="1" stop-color="#ebdef3"/></linearGradient><linearGradient id="New_Gradient_Swatch_copy_35-2" x1="175.99" y1="124.31" x2="216.44" y2="146.47" xlink:href="#New_Gradient_Swatch_copy_35"/><linearGradient id="New_Gradient_Swatch_copy_36-11" x1="219.92" y1="157.6" x2="280.94" y2="127.24" xlink:href="#New_Gradient_Swatch_copy_36"/><linearGradient id="New_Gradient_Swatch_copy_35-3" x1="155.31" y1="111.23" x2="170.57" y2="191.64" xlink:href="#New_Gradient_Swatch_copy_35"/><linearGradient id="New_Gradient_Swatch_copy_25-2" x1="164.8" y1="192.17" x2="179.75" y2="88.32" xlink:href="#New_Gradient_Swatch_copy_25"/><linearGradient id="New_Gradient_Swatch_copy_35-4" x1="186.97" y1="156.38" x2="251.75" y2="118.76" xlink:href="#New_Gradient_Swatch_copy_35"/><linearGradient id="New_Gradient_Swatch_copy_35-5" x1="170.2" y1="150.3" x2="212.93" y2="107.72" xlink:href="#New_Gradient_Swatch_copy_35"/><linearGradient id="linear-gradient-3" x1="128.71" y1="149.81" x2="166.14" y2="141.42" gradientUnits="userSpaceOnUse"><stop offset="0.04" stop-color="#138bbd"/><stop offset="0.23" stop-color="#169ac7"/><stop offset="0.59" stop-color="#1fc3df"/><stop offset="1" stop-color="#2af6ff"/></linearGradient><linearGradient id="linear-gradient-4" x1="159.33" y1="123.09" x2="143.27" y2="143.4" xlink:href="#linear-gradient-3"/><linearGradient id="New_Gradient_Swatch_copy_36-12" x1="128.71" y1="149.81" x2="166.14" y2="141.42" xlink:href="#New_Gradient_Swatch_copy_36"/><linearGradient id="New_Gradient_Swatch_copy_35-6" x1="139.1" y1="142.22" x2="178.45" y2="150.44" xlink:href="#New_Gradient_Swatch_copy_35"/><linearGradient id="linear-gradient-5" x1="141.59" y1="161.47" x2="179.02" y2="153.08" xlink:href="#linear-gradient-3"/><linearGradient id="linear-gradient-6" x1="146.24" y1="140.01" x2="163.71" y2="162.23" xlink:href="#linear-gradient-3"/><linearGradient id="linear-gradient-7" x1="162.73" y1="169.15" x2="200.16" y2="160.76" xlink:href="#linear-gradient-3"/><linearGradient id="linear-gradient-8" x1="193.08" y1="131.03" x2="173.99" y2="169.31" xlink:href="#linear-gradient-3"/><linearGradient id="linear-gradient-9" x1="145.99" y1="135.26" x2="174.42" y2="128.89" xlink:href="#linear-gradient-3"/><linearGradient id="New_Gradient_Swatch_copy_36-13" x1="162.73" y1="169.15" x2="200.16" y2="160.76" xlink:href="#New_Gradient_Swatch_copy_36"/><linearGradient id="linear-gradient-10" x1="148.89" y1="132.37" x2="164.35" y2="127.11" xlink:href="#linear-gradient-3"/><linearGradient id="New_Gradient_Swatch_copy_36-14" x1="145.99" y1="135.26" x2="174.42" y2="128.89" xlink:href="#New_Gradient_Swatch_copy_36"/><linearGradient id="New_Gradient_Swatch_copy_36-15" x1="141.59" y1="161.47" x2="179.02" y2="153.08" xlink:href="#New_Gradient_Swatch_copy_36"/><linearGradient id="New_Gradient_Swatch_copy_36-16" x1="197.48" y1="164.37" x2="229.79" y2="154.69" xlink:href="#New_Gradient_Swatch_copy_36"/><linearGradient id="linear-gradient-11" x1="200.89" y1="139.32" x2="219.39" y2="133.78" xlink:href="#linear-gradient-3"/><linearGradient id="New_Gradient_Swatch_copy_36-17" x1="200.89" y1="139.32" x2="219.39" y2="133.78" xlink:href="#New_Gradient_Swatch_copy_36"/><linearGradient id="New_Gradient_Swatch_copy_25-3" x1="175.81" y1="174.61" x2="169.34" y2="99.45" xlink:href="#New_Gradient_Swatch_copy_25"/><linearGradient id="New_Gradient_Swatch_copy_35-7" x1="206.23" y1="180.77" x2="209.03" y2="187.06" xlink:href="#New_Gradient_Swatch_copy_35"/><linearGradient id="New_Gradient_Swatch_copy_35-8" x1="178.87" y1="129.33" x2="192.41" y2="189.24" xlink:href="#New_Gradient_Swatch_copy_35"/><linearGradient id="New_Gradient_Swatch_copy_35-9" x1="225.16" y1="136.33" x2="199.39" y2="185.45" xlink:href="#New_Gradient_Swatch_copy_35"/><linearGradient id="linear-gradient-12" x1="207.75" y1="158.45" x2="198.81" y2="163.91" gradientUnits="userSpaceOnUse"><stop offset="0.02" stop-color="#45108a"/><stop offset="0.29" stop-color="#3d065f"/><stop offset="1" stop-color="#12054e"/><stop offset="1" stop-color="#10054d"/></linearGradient><linearGradient id="linear-gradient-13" x1="187.32" y1="132.72" x2="176.1" y2="123.83" gradientUnits="userSpaceOnUse"><stop offset="0" stop-color="#fff"/><stop offset="1" stop-color="#bcbec0"/></linearGradient><linearGradient id="New_Gradient_Swatch_copy_35-10" x1="204.12" y1="156.55" x2="203.42" y2="185.84" xlink:href="#New_Gradient_Swatch_copy_35"/><linearGradient id="White_Black_2" x1="200.4" y1="122.24" x2="225.95" y2="10" gradientUnits="userSpaceOnUse"><stop offset="0" stop-color="#fff"/><stop offset="1"/></linearGradient><linearGradient id="New_Gradient_Swatch_copy_43-4" x1="174.08" y1="76.17" x2="251.86" y2="76.17" xlink:href="#New_Gradient_Swatch_copy_43"/><radialGradient id="radial-gradient-5" cx="197.12" cy="114.91" r="133.44" xlink:href="#radial-gradient-2"/><radialGradient id="radial-gradient-6" cx="306.09" cy="66.11" r="62.77" gradientUnits="userSpaceOnUse"><stop offset="0" stop-color="#972a74"/><stop offset="0.04" stop-color="#8a266a"/><stop offset="0.19" stop-color="#601b4a"/><stop offset="0.35" stop-color="#3d112f"/><stop offset="0.51" stop-color="#230a1b"/><stop offset="0.67" stop-color="#0f040c"/><stop offset="0.83" stop-color="#040103"/><stop offset="1"/></radialGradient><radialGradient id="radial-gradient-7" cx="210.22" cy="0.49" r="113.52" xlink:href="#radial-gradient-2"/><radialGradient id="radial-gradient-8" cx="162.61" cy="12.39" r="66.19" xlink:href="#radial-gradient-6"/><radialGradient id="radial-gradient-9" cx="564.69" cy="1563.82" r="116.64" gradientTransform="matrix(0.9, 0.43, -0.43, 0.9, 388.13, -1637.84)" xlink:href="#radial-gradient-2"/><radialGradient id="radial-gradient-10" cx="202.25" cy="38.27" r="52.76" xlink:href="#radial-gradient-6"/><linearGradient id="White_Black_2-2" x1="218.46" y1="133.79" x2="100.99" y2="202.61" xlink:href="#White_Black_2"/><linearGradient id="linear-gradient-14" x1="244.44" y1="156.78" x2="262.22" y2="156.78" gradientUnits="userSpaceOnUse"><stop offset="0" stop-color="#ffbb96"/><stop offset="0.23" stop-color="#fffbc9"/><stop offset="0.54" stop-color="#f9b673"/><stop offset="0.64" stop-color="#f9b876"/><stop offset="0.72" stop-color="#fabe81"/><stop offset="0.81" stop-color="#fcc993"/><stop offset="0.86" stop-color="#fed2a3"/><stop offset="0.97" stop-color="#ffc28c"/></linearGradient><linearGradient id="linear-gradient-15" x1="244.36" y1="155.09" x2="244.36" y2="155.09" xlink:href="#linear-gradient-14"/><linearGradient id="linear-gradient-16" x1="244.44" y1="157.81" x2="262.22" y2="157.81" xlink:href="#linear-gradient-14"/><linearGradient id="linear-gradient-17" x1="262.42" y1="155.09" x2="262.42" y2="155.09" xlink:href="#linear-gradient-14"/><linearGradient id="linear-gradient-18" x1="270.08" y1="136.08" x2="252.41" y2="153.86" gradientUnits="userSpaceOnUse"><stop offset="0.04" stop-color="#ffba78"/><stop offset="0.4" stop-color="#ffc987"/><stop offset="1" stop-color="#feeca8"/></linearGradient><radialGradient id="White_Black_Radial" cx="249.51" cy="156.74" r="11.35" xlink:href="#White_Black_2"/><linearGradient id="linear-gradient-19" x1="260.65" y1="145.57" x2="247.44" y2="158.86" xlink:href="#linear-gradient-18"/><radialGradient id="White_Black_Radial-2" cx="256.57" cy="148.57" r="4.99" xlink:href="#White_Black_2"/><linearGradient id="linear-gradient-20" x1="263.08" y1="142.69" x2="250.62" y2="155.23" xlink:href="#linear-gradient-14"/><radialGradient id="radial-gradient-11" cx="15214.24" cy="-9393.85" r="12.82" gradientTransform="matrix(0.15, 0, 0, 0.3, -2024.82, 2994.27)" gradientUnits="userSpaceOnUse"><stop offset="0" stop-color="#f49587"/><stop offset="0.12" stop-color="#bd7368"/><stop offset="0.24" stop-color="#8b554d"/><stop offset="0.36" stop-color="#603b35"/><stop offset="0.48" stop-color="#3e2622"/><stop offset="0.61" stop-color="#231513"/><stop offset="0.74" stop-color="#0f0908"/><stop offset="0.86" stop-color="#040202"/><stop offset="1"/></radialGradient><linearGradient id="linear-gradient-21" x1="250.02" y1="152.93" x2="256.75" y2="152.93" xlink:href="#linear-gradient-14"/><linearGradient id="linear-gradient-22" x1="259.98" y1="149.06" x2="254.24" y2="152.19" xlink:href="#linear-gradient-18"/><radialGradient id="radial-gradient-12" cx="248.78" cy="153.14" r="6.03" gradientTransform="matrix(1, 0, 0, 1, 0, 0)" xlink:href="#radial-gradient-11"/><linearGradient id="linear-gradient-23" x1="244.44" y1="153.93" x2="262.22" y2="153.93" xlink:href="#linear-gradient-14"/><linearGradient id="linear-gradient-24" x1="244.36" y1="152.23" x2="244.36" y2="152.23" xlink:href="#linear-gradient-14"/><linearGradient id="linear-gradient-25" x1="244.44" y1="154.96" x2="262.22" y2="154.96" xlink:href="#linear-gradient-14"/><linearGradient id="linear-gradient-26" x1="262.42" y1="152.23" x2="262.42" y2="152.23" xlink:href="#linear-gradient-14"/><linearGradient id="linear-gradient-27" x1="270.08" y1="133.23" x2="252.41" y2="151.01" xlink:href="#linear-gradient-18"/><radialGradient id="White_Black_Radial-3" cx="249.51" cy="153.89" r="11.35" xlink:href="#White_Black_2"/><linearGradient id="linear-gradient-28" x1="260.65" y1="142.72" x2="247.44" y2="156.01" xlink:href="#linear-gradient-18"/><radialGradient id="White_Black_Radial-4" cx="256.57" cy="145.71" r="4.99" xlink:href="#White_Black_2"/><linearGradient id="linear-gradient-29" x1="263.08" y1="139.84" x2="250.62" y2="152.38" xlink:href="#linear-gradient-14"/><radialGradient id="radial-gradient-13" cx="15232.23" cy="-9396.88" r="12.82" gradientTransform="matrix(0.15, 0, 0, 0.3, -2027.52, 2992.34)" xlink:href="#radial-gradient-11"/><linearGradient id="linear-gradient-30" x1="250.02" y1="150.07" x2="256.75" y2="150.07" xlink:href="#linear-gradient-14"/><linearGradient id="linear-gradient-31" x1="259.98" y1="146.21" x2="254.24" y2="149.34" xlink:href="#linear-gradient-18"/><radialGradient id="radial-gradient-14" cx="248.78" cy="150.29" r="6.03" gradientTransform="matrix(1, 0, 0, 1, 0, 0)" xlink:href="#radial-gradient-11"/><linearGradient id="linear-gradient-32" x1="244.44" y1="150.93" x2="262.22" y2="150.93" xlink:href="#linear-gradient-14"/><linearGradient id="linear-gradient-33" x1="244.36" y1="149.23" x2="244.36" y2="149.23" xlink:href="#linear-gradient-14"/><linearGradient id="linear-gradient-34" x1="244.44" y1="151.96" x2="262.22" y2="151.96" xlink:href="#linear-gradient-14"/><linearGradient id="linear-gradient-35" x1="262.42" y1="149.23" x2="262.42" y2="149.23" xlink:href="#linear-gradient-14"/><linearGradient id="linear-gradient-36" x1="270.08" y1="130.22" x2="252.41" y2="148.01" xlink:href="#linear-gradient-18"/><radialGradient id="White_Black_Radial-5" cx="249.51" cy="150.89" r="11.35" xlink:href="#White_Black_2"/><linearGradient id="linear-gradient-37" x1="260.65" y1="139.72" x2="247.44" y2="153.01" xlink:href="#linear-gradient-18"/><radialGradient id="White_Black_Radial-6" cx="256.57" cy="142.71" r="4.99" xlink:href="#White_Black_2"/><linearGradient id="linear-gradient-38" x1="263.08" y1="136.84" x2="250.62" y2="149.38" xlink:href="#linear-gradient-14"/><radialGradient id="radial-gradient-15" cx="15251.17" cy="-9400.07" r="12.82" gradientTransform="matrix(0.15, 0, 0, 0.3, -2030.35, 2990.32)" xlink:href="#radial-gradient-11"/><linearGradient id="linear-gradient-39" x1="250.02" y1="147.07" x2="256.75" y2="147.07" xlink:href="#linear-gradient-14"/><linearGradient id="linear-gradient-40" x1="259.98" y1="143.21" x2="254.24" y2="146.34" xlink:href="#linear-gradient-18"/><radialGradient id="radial-gradient-16" cx="248.78" cy="147.29" r="6.03" gradientTransform="matrix(1, 0, 0, 1, 0, 0)" xlink:href="#radial-gradient-11"/><linearGradient id="linear-gradient-41" x1="244.44" y1="147.88" x2="262.22" y2="147.88" xlink:href="#linear-gradient-14"/><linearGradient id="linear-gradient-42" x1="244.36" y1="146.19" x2="244.36" y2="146.19" xlink:href="#linear-gradient-14"/><linearGradient id="linear-gradient-43" x1="244.44" y1="148.91" x2="262.22" y2="148.91" xlink:href="#linear-gradient-14"/><linearGradient id="linear-gradient-44" x1="262.42" y1="146.19" x2="262.42" y2="146.19" xlink:href="#linear-gradient-14"/><linearGradient id="linear-gradient-45" x1="270.08" y1="127.18" x2="252.41" y2="144.96" xlink:href="#linear-gradient-18"/><radialGradient id="White_Black_Radial-7" cx="249.51" cy="147.84" r="11.35" xlink:href="#White_Black_2"/><linearGradient id="linear-gradient-46" x1="260.65" y1="136.67" x2="247.44" y2="149.96" xlink:href="#linear-gradient-18"/><radialGradient id="White_Black_Radial-8" cx="256.57" cy="139.67" r="4.99" xlink:href="#White_Black_2"/><linearGradient id="linear-gradient-47" x1="263.08" y1="133.79" x2="250.62" y2="146.33" xlink:href="#linear-gradient-14"/><radialGradient id="radial-gradient-17" cx="7988.85" cy="-10948.47" r="12.82" gradientTransform="matrix(0.44, 0, 0, 0.26, -3289.64, 3047.94)" xlink:href="#radial-gradient-11"/><radialGradient id="radial-gradient-18" cx="15270.41" cy="-9403.32" r="12.82" gradientTransform="matrix(0.15, 0, 0, 0.3, -2033.25, 2988.24)" xlink:href="#radial-gradient-11"/><linearGradient id="linear-gradient-48" x1="250.02" y1="144.02" x2="256.75" y2="144.02" xlink:href="#linear-gradient-14"/><linearGradient id="linear-gradient-49" x1="259.98" y1="140.16" x2="254.24" y2="143.29" xlink:href="#linear-gradient-18"/><radialGradient id="radial-gradient-19" cx="248.78" cy="144.24" r="6.03" gradientTransform="matrix(1, 0, 0, 1, 0, 0)" xlink:href="#radial-gradient-11"/><linearGradient id="linear-gradient-50" x1="258.77" y1="160.54" x2="276.55" y2="160.54" xlink:href="#linear-gradient-14"/><linearGradient id="linear-gradient-51" x1="258.69" y1="158.85" x2="258.69" y2="158.85" xlink:href="#linear-gradient-14"/><linearGradient id="linear-gradient-52" x1="258.77" y1="161.57" x2="276.55" y2="161.57" xlink:href="#linear-gradient-14"/><linearGradient id="linear-gradient-53" x1="276.75" y1="158.85" x2="276.75" y2="158.85" xlink:href="#linear-gradient-14"/><linearGradient id="linear-gradient-54" x1="284.41" y1="139.84" x2="266.74" y2="157.63" xlink:href="#linear-gradient-18"/><radialGradient id="White_Black_Radial-9" cx="263.84" cy="160.51" r="11.35" xlink:href="#White_Black_2"/><linearGradient id="linear-gradient-55" x1="274.98" y1="149.33" x2="261.77" y2="162.63" xlink:href="#linear-gradient-18"/><radialGradient id="White_Black_Radial-10" cx="270.9" cy="152.33" r="4.99" xlink:href="#White_Black_2"/><linearGradient id="linear-gradient-56" x1="277.41" y1="146.46" x2="264.94" y2="159" xlink:href="#linear-gradient-14"/><radialGradient id="radial-gradient-20" cx="15221.26" cy="-9345.04" r="12.82" gradientTransform="matrix(0.15, 0, 0, 0.3, -2011.55, 2983.26)" xlink:href="#radial-gradient-11"/><linearGradient id="linear-gradient-57" x1="264.35" y1="156.69" x2="271.08" y2="156.69" xlink:href="#linear-gradient-14"/><linearGradient id="linear-gradient-58" x1="274.31" y1="152.82" x2="268.57" y2="155.96" xlink:href="#linear-gradient-18"/><radialGradient id="radial-gradient-21" cx="263.1" cy="156.91" r="6.03" gradientTransform="matrix(1, 0, 0, 1, 0, 0)" xlink:href="#radial-gradient-11"/><linearGradient id="linear-gradient-59" x1="258.77" y1="157.69" x2="276.55" y2="157.69" xlink:href="#linear-gradient-14"/><linearGradient id="linear-gradient-60" x1="258.69" y1="156" x2="258.69" y2="156" xlink:href="#linear-gradient-14"/><linearGradient id="linear-gradient-61" x1="258.77" y1="158.72" x2="276.55" y2="158.72" xlink:href="#linear-gradient-14"/><linearGradient id="linear-gradient-62" x1="276.75" y1="156" x2="276.75" y2="156" xlink:href="#linear-gradient-14"/><linearGradient id="linear-gradient-63" x1="284.41" y1="136.99" x2="266.74" y2="154.77" xlink:href="#linear-gradient-18"/><radialGradient id="White_Black_Radial-11" cx="263.84" cy="157.66" r="11.35" xlink:href="#White_Black_2"/><linearGradient id="linear-gradient-64" x1="274.98" y1="146.48" x2="261.77" y2="159.78" xlink:href="#linear-gradient-18"/><radialGradient id="White_Black_Radial-12" cx="270.9" cy="149.48" r="4.99" xlink:href="#White_Black_2"/><linearGradient id="linear-gradient-65" x1="277.41" y1="143.6" x2="264.94" y2="156.15" xlink:href="#linear-gradient-14"/><radialGradient id="radial-gradient-22" cx="15239.26" cy="-9348.07" r="12.82" gradientTransform="matrix(0.15, 0, 0, 0.3, -2014.25, 2981.33)" xlink:href="#radial-gradient-11"/><linearGradient id="linear-gradient-66" x1="264.35" y1="153.84" x2="271.08" y2="153.84" xlink:href="#linear-gradient-14"/><linearGradient id="linear-gradient-67" x1="274.31" y1="149.97" x2="268.57" y2="153.11" xlink:href="#linear-gradient-18"/><radialGradient id="radial-gradient-23" cx="263.1" cy="154.06" r="6.03" gradientTransform="matrix(1, 0, 0, 1, 0, 0)" xlink:href="#radial-gradient-11"/><linearGradient id="linear-gradient-68" x1="258.77" y1="154.69" x2="276.55" y2="154.69" xlink:href="#linear-gradient-14"/><linearGradient id="linear-gradient-69" x1="258.69" y1="153" x2="258.69" y2="153" xlink:href="#linear-gradient-14"/><linearGradient id="linear-gradient-70" x1="258.77" y1="155.72" x2="276.55" y2="155.72" xlink:href="#linear-gradient-14"/><linearGradient id="linear-gradient-71" x1="276.75" y1="153" x2="276.75" y2="153" xlink:href="#linear-gradient-14"/><linearGradient id="linear-gradient-72" x1="284.41" y1="133.99" x2="266.74" y2="151.77" xlink:href="#linear-gradient-18"/><radialGradient id="White_Black_Radial-13" cx="263.84" cy="154.66" r="11.35" xlink:href="#White_Black_2"/><linearGradient id="linear-gradient-73" x1="274.98" y1="143.48" x2="261.77" y2="156.78" xlink:href="#linear-gradient-18"/><radialGradient id="White_Black_Radial-14" cx="270.9" cy="146.48" r="4.99" xlink:href="#White_Black_2"/><linearGradient id="linear-gradient-74" x1="277.41" y1="140.6" x2="264.94" y2="153.15" xlink:href="#linear-gradient-14"/><radialGradient id="radial-gradient-24" cx="10866.56" cy="-10559.47" r="12.82" gradientTransform="matrix(0.35, 0, 0, 0.25, -3577.97, 2753.25)" xlink:href="#radial-gradient-11"/><radialGradient id="radial-gradient-25" cx="15258.2" cy="-9351.26" r="12.82" gradientTransform="matrix(0.15, 0, 0, 0.3, -2017.09, 2979.29)" xlink:href="#radial-gradient-11"/><linearGradient id="linear-gradient-75" x1="264.35" y1="150.84" x2="271.08" y2="150.84" xlink:href="#linear-gradient-14"/><linearGradient id="linear-gradient-76" x1="274.31" y1="146.97" x2="268.57" y2="150.1" xlink:href="#linear-gradient-18"/><radialGradient id="radial-gradient-26" cx="263.1" cy="151.06" r="6.03" gradientTransform="matrix(1, 0, 0, 1, 0, 0)" xlink:href="#radial-gradient-11"/><linearGradient id="linear-gradient-77" x1="245.27" y1="165.05" x2="263.05" y2="165.05" xlink:href="#linear-gradient-14"/><linearGradient id="linear-gradient-78" x1="245.18" y1="163.35" x2="245.18" y2="163.35" xlink:href="#linear-gradient-14"/><linearGradient id="linear-gradient-79" x1="245.27" y1="166.08" x2="263.05" y2="166.08" xlink:href="#linear-gradient-14"/><linearGradient id="linear-gradient-80" x1="263.24" y1="163.35" x2="263.25" y2="163.35" xlink:href="#linear-gradient-14"/><linearGradient id="linear-gradient-81" x1="270.9" y1="144.34" x2="253.23" y2="162.13" xlink:href="#linear-gradient-18"/><radialGradient id="White_Black_Radial-15" cx="250.33" cy="165.01" r="11.35" xlink:href="#White_Black_2"/><linearGradient id="linear-gradient-82" x1="261.47" y1="153.84" x2="248.26" y2="167.13" xlink:href="#linear-gradient-18"/><radialGradient id="White_Black_Radial-16" cx="257.39" cy="156.83" r="4.99" xlink:href="#White_Black_2"/><linearGradient id="linear-gradient-83" x1="263.9" y1="150.96" x2="251.44" y2="163.5" xlink:href="#linear-gradient-14"/><radialGradient id="radial-gradient-27" cx="15095.58" cy="-9402.2" r="12.82" gradientTransform="matrix(0.15, 0, 0, 0.3, -2015.11, 3012.87)" xlink:href="#radial-gradient-11"/><radialGradient id="radial-gradient-28" cx="15163.83" cy="-9382.48" r="12.82" gradientTransform="matrix(0.15, 0, 0, 0.3, -2016.44, 2999.1)" xlink:href="#radial-gradient-11"/><linearGradient id="linear-gradient-84" x1="250.84" y1="161.19" x2="257.57" y2="161.19" xlink:href="#linear-gradient-14"/><linearGradient id="linear-gradient-85" x1="260.8" y1="157.33" x2="255.06" y2="160.46" xlink:href="#linear-gradient-18"/><radialGradient id="radial-gradient-29" cx="249.6" cy="161.41" r="6.03" gradientTransform="matrix(1, 0, 0, 1, 0, 0)" xlink:href="#radial-gradient-11"/></defs><title>family-6</title><g class="cls-1"><g id="Layer_1" data-name="Layer 1"><path class="cls-2" d="M309.45,58.66,217.37,6.34c-.23,12.26,0,52.57-.09,65.12-.11,20.32-3.15,36.33-26.61,54.69-7.46,5.84-40.4,23.79-67.13,37.83-10.84,5.7-11.67,8.1-17.15,12.75-5.31,4.5-13.46,8.68-15.85,10.07L182,239.69c1.71-1,10.61-5.48,16.45-10.43,5.48-4.64,6.31-9.6,17.15-15.29,26.72-14,72.51-42.16,80.64-47,10.43-6.26,13.1-10.2,13.1-26.65C309.36,127.66,309.21,70.69,309.45,58.66Z"/><path class="cls-3" d="M309.45,52.64,217.37.31c-.23,12.26,0,52.57-.09,65.12-.11,20.32-3.15,36.33-26.61,54.69-7.46,5.84-40.4,23.79-67.13,37.83-10.84,5.7-12.59,13-18.07,17.61-5.31,4.5-11.2,5.73-13.59,7.12l91.47,52.89c1.71-1,8.35-2.53,14.19-7.48,5.48-4.64,7.23-11.91,18.07-17.61,26.72-14,59.66-32,67.13-37.83,23.46-18.36,26.5-34.37,26.61-54.69C309.43,105.35,309.21,64.67,309.45,52.64Z"/><path class="cls-4" d="M296.34,85.75V88l2.55,1.47V87.22Zm-.1,22.87,2.65,1.53V107.9l-2.65-1.53Zm0,10.27,2.65,1.53v-2.24l-2.65-1.53Zm-2.1-27,3,1.76V91.4l-3-1.76Zm.6-7.06-6.35-3.65v2.24l6.35,3.65Zm-8-4.57L276,74.08v2.24l10.75,6.18Zm5.75,8.47-14.3-8.2v2.24l14.3,8.2ZM288.29,104l6.35,3.65v-2.24l-6.35-3.65Zm-2.3-6.5,8.19,4.71V100L286,95.3Zm-5.75-8.46,7,4V90.88l-7-4Zm8.65,5,10,5.75V97.56l-10-5.75Zm7.35,30.4,2.65,1.53v-2.24l-2.65-1.53Zm-8-4.57,6.35,3.65v-2.24l-6.35-3.65Zm-2.3-6.5,8.19,4.71v-2.24L286,111.14Zm2.9-3.49,10,5.75V113.4l-10-5.75Z"/><path class="cls-4" d="M219.56,156.21l2.33-1.34-4.69-2.71-2.33,1.34ZM239.1,159l-26.28-15.17-2.33,1.34,26.28,15.17Zm-9.06-8.3,2.33-1.34L224,144.56l-2.33,1.34Zm12.84-1-18.83-10.87-2.33,1.34L240.56,151ZM194,141.47l18.83,10.87,2.33-1.34-18.83-10.87Zm6.8-7.6,18.83,10.87L222,143.4l-18.83-10.87Zm56.6,35.75-16.32-9.42-2.33,1.34L255.1,171Zm9.36-11.88-26.28-15.17-2.33,1.34,26.28,15.17ZM238.5,141.41l-18.83-10.87-2.33,1.34,18.83,10.87Zm6.39,9.45-2.33,1.34,4.69,2.71,2.33-1.34Zm-.16,17.2L223.9,156l-2.33,1.34,20.84,12ZM232.05,151.9l15.9,9.18,2.33-1.34-15.9-9.18ZM250,162.24l17,9.83,2.33-1.34-17-9.83Zm7.15,9.89,4.88,2.82,2.33-1.34-4.88-2.82ZM194.35,139,186,134.15l-2.33,1.34,8.34,4.82ZM268.8,158.9l-2.33,1.34L277,166.3,279.3,165Zm3.63,7.86-20.84-12-2.33,1.34,20.84,12Zm-54.78-37.39L206,122.62,203.64,124l11.69,6.75Zm-6.85,13.33L191,131.27l-2.33,1.34L208.48,144Zm-9.66-11.34-5.16-3-2.33,1.34,5.16,3Zm20.9,6.3L201,125.5l-2.33,1.34L219.71,139Z"/><path class="cls-4" d="M194.43,170.57l2.33-1.34-4.69-2.71-2.33,1.34ZM214,173.4l-26.28-15.17-2.33,1.34,26.28,15.17Zm-9.06-8.3,2.33-1.34-8.37-4.83-2.33,1.34Zm12.84-1-18.83-10.87-2.33,1.34,18.83,10.87Zm-48.86-8.23,18.83,10.87,2.33-1.34-18.83-10.87Zm6.8-7.6,18.83,10.87,2.33-1.34L178,146.88ZM232.31,184,216,174.56l-2.33,1.34L230,185.32Zm9.36-11.88-26.28-15.17-2.33,1.34,26.28,15.17Zm-28.29-16.33-18.83-10.87-2.33,1.34,18.83,10.87Zm6.39,9.45-2.33,1.34,4.69,2.71,2.33-1.34Zm-.16,17.2-20.84-12-2.33,1.34,20.84,12Zm-12.69-16.16,15.9,9.18,2.33-1.34-15.9-9.18Zm17.91,10.34,17,9.83,2.33-1.34-17-9.83Zm7.15,9.89,4.88,2.82L239.2,188l-4.88-2.82Zm-62.76-33.16-8.34-4.82-2.33,1.34,8.34,4.82Zm74.46,19.94-2.33,1.34,10.49,6.06,2.33-1.34Zm3.63,7.86-20.84-12-2.33,1.34,20.84,12Zm-54.78-37.39L180.85,137l-2.33,1.34,11.69,6.75Zm-6.85,13.33-19.81-11.44L163.54,147l19.81,11.44ZM176,145.72l-5.16-3-2.33,1.34,5.16,3Zm20.9,6.3-21.07-12.16-2.33,1.34,21.07,12.16Z"/><path class="cls-4" d="M167.55,187l2.33-1.34-8.37-4.83-2.33,1.34Zm12.84-1-18.83-10.87-2.33,1.34,18.83,10.87Zm-42.06-15.83,18.83,10.87,2.33-1.34-18.83-10.87Zm66,23.87L178,178.88l-2.33,1.34L202,195.4ZM176,177.72l-18.83-10.87-2.33,1.34,18.83,10.87Zm6.39,9.45-2.33,1.34,4.69,2.71,2.33-1.34Zm23.91,8L204,196.56l10.49,6.06,2.33-1.34Zm3.63,7.86L189.1,191l-2.33,1.34,20.84,12Zm-54.78-37.39-11.69-6.75-2.33,1.34L152.84,167Zm-21,23.47-19.81-11.44L112,179.06l19.81,11.44Zm4.49-21.47-5.16-3L131.17,166l5.16,3Zm20.9,6.3-21.07-12.16-2.33,1.34,21.07,12.16Z"/><path class="cls-5" d="M226.47,17.69l2.15,1.24v13.7l-2.15-1.24Z"/><path class="cls-6" d="M233.4,28.66l-.78-2.86-.08,0,.27,2.53V35l-2-1.17V20.07l1.65,1,3.43,8.87.73,2.79.1.06-.27-2.49V23.43l2,1.17V38.4l-1.65-1Z"/><path class="cls-7" d="M244.59,38.33a2.72,2.72,0,0,0-.32-1.25,10.36,10.36,0,0,0-.81-1.3q-.49-.67-1.06-1.41a14.82,14.82,0,0,1-1.06-1.57,9.9,9.9,0,0,1-.81-1.76,6.06,6.06,0,0,1-.32-2,3.6,3.6,0,0,1,.26-1.54,1.35,1.35,0,0,1,.72-.72,1.8,1.8,0,0,1,1.09,0,5.36,5.36,0,0,1,1.35.57,11.33,11.33,0,0,1,1.62,1.13,9,9,0,0,1,1.25,1.25l-.67,1.79a6.55,6.55,0,0,0-.86-.93,7,7,0,0,0-1.24-.91,1.43,1.43,0,0,0-1-.28q-.36.11-.36.71a2.46,2.46,0,0,0,.32,1.16,11.15,11.15,0,0,0,.81,1.28q.49.67,1.06,1.42a15.32,15.32,0,0,1,1.06,1.59,10.09,10.09,0,0,1,.81,1.78,6,6,0,0,1,.32,2,4.22,4.22,0,0,1-.26,1.65,1.51,1.51,0,0,1-.75.83,1.89,1.89,0,0,1-1.17.08,5.21,5.21,0,0,1-1.52-.62,11.67,11.67,0,0,1-1.85-1.3A9.79,9.79,0,0,1,240,38.69l.7-1.81a10.75,10.75,0,0,0,.94,1,6.5,6.5,0,0,0,1.28,1Q244.59,39.86,244.59,38.33Z"/><path class="cls-8" d="M253.59,33.35l2,1.17v8.89q0,2.66-.95,3.31t-2.62-.32a7.29,7.29,0,0,1-2.87-2.82,8.48,8.48,0,0,1-.91-4.08V30.28l2.15,1.24v8.79a6.32,6.32,0,0,0,.38,2.46A2.89,2.89,0,0,0,252,44.12q.84.48,1.19,0a3.66,3.66,0,0,0,.36-2Z"/><path class="cls-9" d="M257.54,35.76a12.26,12.26,0,0,1,1.5.61q.8.39,1.38.72a11,11,0,0,1,1.43,1,6.81,6.81,0,0,1,1.24,1.32,6.7,6.7,0,0,1,.87,1.7,6.28,6.28,0,0,1,.33,2.1,4.15,4.15,0,0,1-.54,2.4,1.42,1.42,0,0,1-1.48.59l.68,1,2.2,6.52-2.47-1.43-2.08-6.6-.92-.79v5.66l-2.15-1.24Zm2.15,7.47.73.42q.8.46,1.21.14t.41-1.5a3.92,3.92,0,0,0-.34-1.64,2.54,2.54,0,0,0-1.07-1.18l-.53-.29a1.73,1.73,0,0,0-.41-.16Z"/><path class="cls-10" d="M270.82,53.87,268,52.24l-.7,2.73-2.13-1.23,3.46-11.8,1.69,1,3.48,15.81-2.25-1.3Zm-2.35-3.36,2,1.14-.68-3.58-.27-2.31-.07,0-.29,2Z"/><path class="cls-11" d="M277.6,54.18l-.78-2.86-.09,0,.27,2.53v6.77l-2-1.17V45.59l1.65,1,3.43,8.87.73,2.79.1.06-.27-2.49V49l2,1.17v13.8L281,63Z"/><path class="cls-12" d="M291.38,68.32a1.81,1.81,0,0,1-1.19-.06,7.36,7.36,0,0,1-1.48-.66A7.81,7.81,0,0,1,287,66.25a8.07,8.07,0,0,1-1.39-2,11.59,11.59,0,0,1-.94-2.75,16.83,16.83,0,0,1-.34-3.56,10.63,10.63,0,0,1,.38-3.22,3.16,3.16,0,0,1,1-1.6,1.83,1.83,0,0,1,1.42-.32,4.76,4.76,0,0,1,1.62.6,10.5,10.5,0,0,1,1.46,1,10.87,10.87,0,0,1,1,.94l-.43,1.93a6,6,0,0,0-.76-.74,7.68,7.68,0,0,0-1-.7q-1.18-.68-1.81.13a5.89,5.89,0,0,0-.63,3.32,13.92,13.92,0,0,0,.15,2.05,8.58,8.58,0,0,0,.46,1.8,5.73,5.73,0,0,0,.8,1.46,4,4,0,0,0,1.17,1,3,3,0,0,0,1,.41,2.52,2.52,0,0,0,.77,0Z"/><path class="cls-13" d="M292.83,56l6,3.45v2.27L295,59.51v3.37l3.46,2v2.27l-3.46-2v3.52l3.89,2.25v2.27l-6-3.49Z"/><path class="cls-14" d="M182.34,224.76a.32.32,0,0,1-.26-.24c-.86-3.53,1.11-7,3.16-9.64a5.15,5.15,0,0,0-1.52-1.89l-.45-.33c-.27-.2-.55-.4-.8-.62a5,5,0,0,1-1,2.61.32.32,0,0,1-.32.12.32.32,0,0,1-.24-.24,9.82,9.82,0,0,1-.28-4.8,5,5,0,0,1,1.84-2.65l-3.61.54a8.91,8.91,0,0,1-.4,7.68.31.31,0,0,1-.14.13,4.84,4.84,0,0,1-3.33.23,12.55,12.55,0,0,1-1.42,5.79.31.31,0,0,1-.31.17,2.79,2.79,0,0,1-2.2-1.43,4.57,4.57,0,0,1-.38-2.14c0-1.86,0-3.74.06-5.62a6.79,6.79,0,0,1-1.21-2.61l-.18-.37a5.92,5.92,0,0,1-.78-2.63,5.34,5.34,0,0,0-.72-2.39l.57-.27a5.92,5.92,0,0,1,.78,2.63,4,4,0,0,0,.3,1.42,4,4,0,0,1,.26-.89.32.32,0,0,1,.25-.19l1.23-.14a.32.32,0,0,1,.35.33q-.11,1.77-.18,3.55l.11,0a4.87,4.87,0,0,0,.85.15,3.44,3.44,0,0,1,1.37.36,2,2,0,0,1,.87,1.36,11.84,11.84,0,0,1,.34,2.22,4.38,4.38,0,0,0,3-.09,8.36,8.36,0,0,0,.18-7.42.32.32,0,0,1,.24-.44l6.35-.95a.32.32,0,0,1,.11.62,4.53,4.53,0,0,0-3.58,3.16,7.84,7.84,0,0,0,.12,3.76,4.18,4.18,0,0,0,.5-2.37,1.29,1.29,0,0,1-.14-.86.32.32,0,0,1,.3-.26.29.29,0,0,1,.32.23,4.57,4.57,0,0,1,.14.68,4.8,4.8,0,0,0,1.19,1.06l.46.34a5.79,5.79,0,0,1,1.57,1.85l.76-.91c.52-.6,1.05-1.2,1.59-1.8,1.12-1.25,2.26-2.52,3.25-3.84.1-.65.25-1.32.44-2a3.22,3.22,0,0,1,2.18-2.55.32.32,0,0,1,.31.09.32.32,0,0,1,.07.31,15.41,15.41,0,0,1-2.39,4.44,11.18,11.18,0,0,0,.06,4.08,8.43,8.43,0,0,0,3.77,5.35l-.34.53a9.06,9.06,0,0,1-4-5.75,11,11,0,0,1-.19-3.24c-.83,1-1.74,2-2.63,3-.53.59-1.07,1.19-1.58,1.79-.31.36-.63.74-.95,1.14a6.32,6.32,0,0,1,.37,3,16.33,16.33,0,0,1-2,5.48,2.08,2.08,0,0,1-1.75,1.33Zm.3-.62c.55-.06.92-.62,1.1-1a15.86,15.86,0,0,0,2-5.27,5.77,5.77,0,0,0-.2-2.32C183.67,218,182,221.06,182.64,224.14Zm-11-10.58-.33-.36c0,1.62-.05,3.24,0,4.84a4,4,0,0,0,.31,1.85,2.14,2.14,0,0,0,1.48,1.07,11.88,11.88,0,0,0,1.25-5.51A7.53,7.53,0,0,1,171.66,213.56Zm-.31-1.34a9.81,9.81,0,0,0,.76.9,7.21,7.21,0,0,0,2.18,1.63,11.16,11.16,0,0,0-.3-1.82,1.41,1.41,0,0,0-.58-1,3,3,0,0,0-1.12-.27,5.68,5.68,0,0,1-.91-.16C171.36,211.76,171.36,212,171.35,212.22Zm-1.1-4.49a3.53,3.53,0,0,0-.15,1.87,3.21,3.21,0,0,0,.67.9q.06-1.42.14-2.84Zm22.07-1.83c-.05.19-.1.39-.14.57a13.92,13.92,0,0,0,1.25-2.41A3,3,0,0,0,192.32,205.9Z"/><ellipse class="cls-15" cx="249.98" cy="127.27" rx="55.67" ry="48.05"/><path class="cls-16" d="M287.06,155.79c19-40.17-4-90.88-51.36-113.25h0c21.66,10.24,19.46,60.69-4.45,114.19C247.46,154.73,278.9,154.13,287.06,155.79Z"/><path class="cls-17" d="M285.59,158.05a.62.62,0,0,1-.27-.06.63.63,0,0,1-.3-.84l.79-1.77.43-1c17.93-39.29-5-89-51.07-110.75a.63.63,0,0,1,.54-1.15C258.41,53.24,276.27,70.81,286,92s10.24,43.55,1.38,63l-.43,1-.8,1.79A.63.63,0,0,1,285.59,158.05Z"/><path class="cls-18" d="M235.7,42.54c-47.35-22.37-101.12-7.95-120.11,32.23,8.78,8.46,24.07,23.65,34.71,43.72C176.46,66,214,32.31,235.7,42.54Z"/><path class="cls-19" d="M115.37,77.66a.63.63,0,0,1-.57-.9c.15-.33,1.22-2.57,1.38-2.9,9.39-19.09,27-32.86,49.49-38.75s47.38-3.24,70,7.46a.63.63,0,1,1-.54,1.15c-46-21.72-98.83-7.95-117.84,30.7-.16.32-1.21,2.55-1.37,2.88A.63.63,0,0,1,115.37,77.66Z"/><path class="cls-20" d="M235.7,42.54h0C214,32.31,176.46,66,150.31,118.48c13.65,1.86,69.34,28.66,80.94,38.25C255.16,103.23,257.36,52.78,235.7,42.54Z"/><path class="cls-21" d="M229.89,159.41a.63.63,0,0,1-.58-.89c23.89-53.44,26.47-104.88,5.76-114.67s-58.83,24.86-84.95,77.25a.63.63,0,0,1-1.13-.57C161.69,95.09,177.56,73,193.7,58.25c16.47-15,31.35-20.54,41.92-15.55s15.75,20,14.59,42.25c-1.13,21.81-8.14,48.12-19.74,74.08A.63.63,0,0,1,229.89,159.41Z"/><polygon class="cls-22" points="137.22 154.77 150.46 162.35 150.56 166.64 168.14 176.87 193.4 186.9 241.68 175.38 237.44 173.41 254.56 147.8 255.62 136.3 209 108.22 198.78 118.04 137.22 154.77"/><polygon class="cls-23" points="166.59 93.21 217.71 122.95 247.09 127.15 195.95 98 166.59 93.21"/><polygon class="cls-24" points="217.69 122.95 217.69 173.11 222.97 170.13 222.98 169.02 241.76 157.91 242.9 158.33 247.09 155.85 247.09 127.15 217.69 122.95"/><polygon class="cls-25" points="217.71 122.95 217.71 173.11 166.59 143.35 166.59 93.21 217.71 122.95"/><polygon class="cls-26" points="221.77 144.39 244.13 130.96 244.13 157.6 242.9 158.33 241.76 157.91 222.98 169.02 222.97 170.13 221.77 170.84 221.77 144.39"/><polygon class="cls-27" points="241.76 157.91 241.76 133.8 222.98 145.08 222.98 169.02 241.76 157.91"/><polygon class="cls-28" points="241.76 135.63 241.76 133.8 222.98 145.08 222.98 146.75 241.76 135.63"/><polygon class="cls-28" points="241.76 135.99 241.76 135.01 222.98 146.29 222.98 147.1 241.76 135.99"/><polygon class="cls-28" points="241.76 137.89 241.76 136.91 222.98 148.19 222.98 149 241.76 137.89"/><polygon class="cls-28" points="241.76 139.79 241.76 138.81 222.98 150.09 222.98 150.9 241.76 139.79"/><polygon class="cls-28" points="241.76 141.69 241.76 140.71 222.98 151.99 222.98 152.81 241.76 141.69"/><polygon class="cls-28" points="241.76 143.59 241.76 142.61 222.98 153.9 222.98 154.71 241.76 143.59"/><polygon class="cls-28" points="241.76 145.49 241.76 144.51 222.98 155.8 222.98 156.61 241.76 145.49"/><polygon class="cls-28" points="241.76 147.39 241.76 146.41 222.98 157.7 222.98 158.51 241.76 147.39"/><polygon class="cls-28" points="241.76 149.29 241.76 148.31 222.98 159.6 222.98 160.41 241.76 149.29"/><polygon class="cls-28" points="241.76 151.19 241.76 150.22 222.98 161.5 222.98 162.31 241.76 151.19"/><polygon class="cls-28" points="241.76 153.09 241.76 152.12 222.98 163.4 222.98 164.21 241.76 153.09"/><polygon class="cls-28" points="241.76 155 241.76 154.02 222.98 165.3 222.98 166.11 241.76 155"/><polygon class="cls-28" points="241.76 156.9 241.76 155.92 222.98 167.2 222.98 168.01 241.76 156.9"/><polygon class="cls-29" points="189.52 152.68 189.52 184.62 137.22 154.77 137.22 122.65 189.52 152.68"/><polygon class="cls-30" points="189.52 152.98 214.05 110.79 161.75 80.94 137.22 122.95 189.52 152.98"/><polygon class="cls-31" points="140.88 156.72 140.88 128.73 152.05 135.28 152.05 163.22 140.88 156.72"/><polygon class="cls-26" points="150.84 135.97 150.84 161.11 142.09 156.02 142.09 130.84 150.84 135.97"/><polygon class="cls-32" points="189.52 184.62 189.52 152.98 213.94 110.47 213.94 170.95 189.52 184.62"/><polygon class="cls-33" points="190.73 113.12 168.14 126.33 168.14 176.87 171.81 174.71 171.81 142.74 190.73 113.12"/><polygon class="cls-34" points="143.21 155.47 150.84 159.91 150.84 135.97 143.21 131.5 143.21 155.47"/><polygon class="cls-35" points="143.21 155.47 150.84 135.97 143.21 131.5 143.21 155.47"/><path class="cls-36" d="M143.21,131.5v24l7.63,4.44V136Zm7,27.36-6.42-3.74V132.55l6.42,3.76Z"/><polygon class="cls-37" points="168.14 126.33 168.14 176.87 150.56 166.64 150.56 116.03 168.14 126.33"/><polygon class="cls-31" points="153.76 168.39 153.76 140.4 164.93 146.94 164.93 174.88 153.76 168.39"/><polygon class="cls-26" points="163.72 147.64 163.72 172.78 154.97 167.69 154.97 142.51 163.72 147.64"/><polygon class="cls-31" points="174.9 176.06 174.9 148.07 186.07 154.62 186.07 182.56 174.9 176.06"/><polygon class="cls-26" points="184.86 155.31 184.86 180.45 176.11 175.37 176.11 150.19 184.86 155.31"/><polygon class="cls-31" points="153.76 136.72 153.76 121.61 164.93 128.15 164.93 143.22 153.76 136.72"/><polygon class="cls-26" points="163.72 128.85 163.72 141.11 154.97 136.02 154.97 123.72 163.72 128.85"/><polygon class="cls-38" points="156.09 167.13 163.72 171.57 163.72 147.64 156.09 143.16 156.09 167.13"/><polygon class="cls-39" points="156.09 167.13 163.72 147.64 156.09 143.16 156.09 167.13"/><polygon class="cls-40" points="177.22 174.81 184.86 179.25 184.86 155.31 177.22 150.84 177.22 174.81"/><polygon class="cls-41" points="177.22 174.81 184.86 155.31 177.22 150.84 177.22 174.81"/><polygon class="cls-42" points="156.09 135.47 163.72 139.91 163.72 128.85 156.09 124.37 156.09 135.47"/><path class="cls-43" d="M177.22,150.84v24l7.63,4.44V155.32Zm7,27.36-6.42-3.73V151.9l6.42,3.76Z"/><polygon class="cls-44" points="156.09 135.47 163.72 128.85 156.09 124.37 156.09 135.47"/><path class="cls-45" d="M156.09,124.37v11.09l7.63,4.44V128.85Zm7,14.48-6.42-3.74v-9.68l6.42,3.76Z"/><path class="cls-46" d="M156.09,143.16v24l7.63,4.44V147.64Zm7,27.36-6.42-3.74V144.22l6.42,3.76Z"/><polygon class="cls-26" points="196.07 149.62 197.99 148.52 209.25 141.97 209.25 125.63 196.07 149.62"/><polygon class="cls-31" points="199.29 146.36 208.04 141.28 208.04 130.49 199.29 146.36"/><polygon class="cls-26" points="196.28 152.95 209.25 145.52 209.25 173.51 196.28 180.89 196.28 152.95"/><polygon class="cls-31" points="197.49 153.64 197.49 178.78 208.04 172.82 208.04 147.64 197.49 153.64"/><polygon class="cls-47" points="207.03 172.26 207.03 148.23 197.49 153.64 197.49 177.64 207.03 172.26"/><path class="cls-28" d="M197.49,153.64v24l9.54-5.38v-24Zm8.93,18.26-8.33,4.69V154l8.33-4.72Z"/><polygon class="cls-48" points="207.03 132.33 200.22 144.68 207.03 140.72 207.03 132.33"/><path class="cls-49" d="M200.22,144.68l6.81-4v-8.39Zm6.2-4.31-4.61,2.68,4.61-8.37Z"/><polygon class="cls-50" points="168.14 126.33 190.73 113.12 173.15 102.89 150.56 116.03 168.14 126.33"/><polygon class="cls-51" points="193.39 185.43 193.39 186.9 217.72 173.09 217.72 171.62 193.39 185.43"/><polygon class="cls-52" points="193.4 185.43 193.4 186.9 189.51 184.62 189.51 183.15 193.4 185.43"/><polygon class="cls-53" points="189.51 183.15 193.4 185.43 217.72 171.62 213.94 169.42 189.51 183.15"/><path class="cls-54" d="M199.69,163.39a1.37,1.37,0,0,1-.62,1.08c-.34.2-.62,0-.62-.36a1.37,1.37,0,0,1,.62-1.08C199.41,162.84,199.69,163,199.69,163.39Z"/><polygon class="cls-55" points="171.81 142.74 190.73 113.12 177.13 145.78 171.81 142.74"/><polygon class="cls-56" points="189.51 183.15 217.72 171.62 213.94 169.42 189.51 183.15"/><polygon class="cls-31" points="241.76 133.8 241.76 157.91 242.9 158.33 242.9 133.18 241.76 133.8"/><rect class="cls-57" x="114.82" y="124.29" width="161.39" height="4.59" transform="translate(-3.66 247.32) rotate(-64.14)"/><path class="cls-57" d="M221.35,75.72a2.29,2.29,0,0,1-2.07-3.29l17.43-36.28a2.29,2.29,0,0,1,4.13,2L223.42,74.42A2.29,2.29,0,0,1,221.35,75.72Z"/><rect class="cls-58" x="114.08" y="125.51" width="161.39" height="1.64" transform="translate(-3.83 246.56) rotate(-64.16)"/><rect class="cls-59" x="114.57" y="126.09" width="160.08" height="0.33" transform="translate(-3.87 246.33) rotate(-64.15)"/><path class="cls-58" d="M220.86,73.83a.82.82,0,0,1-.74-1.17l17.43-36.28a.82.82,0,0,1,1.48.71L221.6,73.37A.82.82,0,0,1,220.86,73.83Z"/><path class="cls-59" d="M220.7,73.1l-.07,0a.16.16,0,0,1-.08-.22L238,36.58a.16.16,0,0,1,.15-.09l.07,0a.16.16,0,0,1,.08.22L220.85,73A.16.16,0,0,1,220.7,73.1Z"/><rect class="cls-58" x="116.65" y="127.29" width="160.08" height="0.33" transform="translate(-3.78 248.88) rotate(-64.15)"/><path class="cls-58" d="M222.78,74.3l-.07,0a.16.16,0,0,1-.08-.22l17.43-36.28a.16.16,0,0,1,.15-.09l.07,0a.16.16,0,0,1,.08.22L222.92,74.2A.16.16,0,0,1,222.78,74.3Z"/><path class="cls-60" d="M235.7,42.54c-47.35-22.37-101.12-7.95-120.11,32.23a234,234,0,0,1,17.14,18.08,69.67,69.67,0,0,1,27.7,9.2c20.53-.84,63.67,18.28,74.51,35.21,28.88-5,58.85,1,54.11,11.06a54.64,54.64,0,0,0,4.59-19.39C295.08,95.22,272.92,60.13,235.7,42.54Z"/><path class="cls-61" d="M248.39,111.71h-.11a.65.65,0,0,1-.52-.74,5.94,5.94,0,0,1,.35-1c.1-.26.26-.65.28-.74,5.49-35.08.67-59-13.24-65.56s-35.33,4.83-58.91,31.23c-.06.08-.3.49-.46.77a7.44,7.44,0,0,1-.6,1,.63.63,0,1,1-.95-.84c.06-.08.3-.49.45-.76a7.31,7.31,0,0,1,.61-1c24-26.85,46-38.34,60.39-31.54s19.53,31.23,13.94,66.94a5.9,5.9,0,0,1-.35,1c-.1.26-.26.64-.28.73A.61.61,0,0,1,248.39,111.71Z"/><path class="cls-62" d="M287.06,155.79c19-40.17-4-90.88-51.36-113.25h0c15,7.07,19.18,32.81,13.66,67.53C276.11,127.73,291.8,145.75,287.06,155.79Z"/><path class="cls-63" d="M288.65,131.09c-8.21-10.62-21.19-20.53-30.24-26.76,2.41-17.17,2.38-31.71,0-43.18C280.17,80,291.65,106.32,288.65,131.09Z"/><path class="cls-64" d="M235.7,42.54c-47.35-22.37-101.12-7.95-120.11,32.23,4.74-10,33.46-15,59.26.1C198.17,48.56,220.73,35.47,235.7,42.54Z"/><path class="cls-65" d="M173.44,64a75.2,75.2,0,0,0-32.94-7.92c-1.9,0-3.74.08-5.52.23,13.54-12.92,33-20.42,54.73-20.42a96.82,96.82,0,0,1,16.37,1.42C194.15,43.65,182.69,54.1,173.44,64Z"/><path class="cls-66" d="M235.7,42.54h0c-15-7.07-37.52,6-60.85,32.33,20.53-.84,63.67,18.28,74.51,35.21C254.87,75.35,250.67,49.61,235.7,42.54Z"/><path class="cls-67" d="M224.89,89.23c-10-8.17-26.14-15.33-38.68-17.89,10.17-10,33-28.06,39.82-28.06a9.58,9.58,0,0,1,4.18.88C236.86,47.31,230.62,69.35,224.89,89.23Z"/><path class="cls-68" d="M143.47,207l2,1.19a11.83,11.83,0,0,0,11.82.08l33.93-22.47,18.16-76.42-7.72-4.49-17.09,79Z"/><path class="cls-69" d="M177.62,171.61h0c.29-.59-.91-1.76-2.66-2.61s-3.41-1.06-3.69-.47c0,0,0,0,0,0l-.08,0-14.12,29.13a8.44,8.44,0,0,1-15.19-7.36l3.15-6.5-.09,0h0c.29-.59-.91-1.76-2.66-2.61s-3.41-1.06-3.69-.47h0l0,0-3.15,6.5a15.65,15.65,0,1,0,28.16,13.65l14.12-29.13Z"/><path class="cls-70" d="M148.33,207.49a13.88,13.88,0,0,1-5.75-1.25,13.7,13.7,0,0,1-7.25-7.92A14.63,14.63,0,0,1,135.9,187l2.56-5.28a2,2,0,0,1,1.77-1.11,2,2,0,0,1,1.77,2.82l-2.61,5.38a10.41,10.41,0,0,0-.79,7.19,10.11,10.11,0,0,0,7.23,7.21,9.58,9.58,0,0,0,2.49.33,9.44,9.44,0,0,0,1.32-.09,10.05,10.05,0,0,0,7.78-5.61l13.69-28.25a2,2,0,0,1,1.77-1.11,2,2,0,0,1,1.77,2.82l-13.69,28.25a14,14,0,0,1-12.62,7.91Z"/><path class="cls-71" d="M148.33,206.51a13,13,0,0,1-5.34-1.16,13.31,13.31,0,0,1-6.2-17.9l2.56-5.28a1,1,0,0,1,1.31-.46h0a1,1,0,0,1,.46,1.31l-2.61,5.38a11.4,11.4,0,0,0-.86,7.87,11.06,11.06,0,0,0,7.93,7.91,10.52,10.52,0,0,0,4.2.26,11.07,11.07,0,0,0,8.53-6.16L172,170.06a1,1,0,0,1,1.31-.46h0a1,1,0,0,1,.46,1.31l-13.69,28.25a13.06,13.06,0,0,1-11.73,7.35Z"/><path class="cls-72" d="M148.08,205.78a12.25,12.25,0,0,1-5.07-1.1,12.07,12.07,0,0,1-6.39-7,13,13,0,0,1,.51-10l2.56-5.28a.33.33,0,1,1,.59.29l-2.61,5.38a12,12,0,0,0-.9,8.33,11.73,11.73,0,0,0,8.39,8.37,11.16,11.16,0,0,0,4.46.28,11.67,11.67,0,0,0,9-6.52l13.69-28.25a.33.33,0,1,1,.59.29l-13.69,28.25a12.41,12.41,0,0,1-11.14,7Z"/><g class="cls-73"><path class="cls-72" d="M143,183.86l-2.56,5.28a10.57,10.57,0,0,0-.65,4.44,12.7,12.7,0,0,1,1.19-4l2.61-5.38a.33.33,0,0,0-.15-.44.32.32,0,0,0-.14,0A.33.33,0,0,0,143,183.86Z"/><path class="cls-72" d="M176.12,171.58a.32.32,0,0,0-.14,0,.33.33,0,0,0-.29.18L162,200a11.73,11.73,0,0,1-2.61,3.52,15.43,15.43,0,0,1-3.35,2.84,12.27,12.27,0,0,0,6.54-6.08L176.27,172A.33.33,0,0,0,176.12,171.58Z"/></g><path class="cls-74" d="M262.42,152.84H244.36v2.55h0s0,0,0,.07c0,2.91,4,5.26,9,5.26s9-2.36,9-5.26c0,0,0,0,0-.07h0Z"/><g class="cls-75"><path class="cls-76" d="M244.36,155v.07s0,0,0-.07Z"/><path class="cls-77" d="M253.39,160.16c-5,0-9-2.36-9-5.26v.49h0s0,0,0,.07c0,2.91,4,5.26,9,5.26s9-2.36,9-5.26c0,0,0,0,0-.07h0v-.49C262.42,157.8,258.38,160.16,253.39,160.16Z"/><path class="cls-78" d="M262.42,155.12V155h0S262.42,155.1,262.42,155.12Z"/></g><g class="cls-75"><path class="cls-79" d="M256.16,160.47l.25-.05v-6.68h-.25Z"/><path class="cls-79" d="M257.29,160.2l.25-.07v-6.39h-.25Z"/><path class="cls-79" d="M258.43,159.83l.25-.11v-6h-.25Z"/><path class="cls-79" d="M255,160.63l.25,0v-6.87H255Z"/><path class="cls-79" d="M260.7,158.54l.25-.21v-4.6h-.25Z"/><path class="cls-79" d="M261.83,157.32a3.93,3.93,0,0,0,.25-.45v-3.14h-.25Z"/><path class="cls-79" d="M259.56,159.29l.25-.14v-5.42h-.25Z"/><path class="cls-79" d="M253.89,160.71h.25v-7h-.25Z"/><path class="cls-79" d="M252.75,160.7H253v-7h-.25Z"/><path class="cls-79" d="M250.48,160.44l.25.05v-6.76h-.25Z"/><path class="cls-79" d="M251.62,160.62l.25,0v-6.91h-.25Z"/><path class="cls-79" d="M249.35,160.16l.25.07v-6.5h-.25Z"/><path class="cls-79" d="M244.81,157.1a4.16,4.16,0,0,0,.25.4v-3.77h-.25Z"/><path class="cls-79" d="M245.94,158.44l.25.2v-4.9h-.25Z"/><path class="cls-79" d="M248.21,159.77l.25.1v-6.13h-.25Z"/><path class="cls-79" d="M247.08,159.22l.25.13v-5.62h-.25Z"/></g><ellipse class="cls-80" cx="253.39" cy="152.87" rx="9.03" ry="5.26"/><path class="cls-81" d="M253.39,158c-4.88,0-8.85-2.26-9-5.08,0,.06,0,.12,0,.18,0,2.91,4,5.26,9,5.26s9-2.36,9-5.26c0-.06,0-.12,0-.18C262.24,155.74,258.27,158,253.39,158Z"/><ellipse class="cls-82" cx="253.39" cy="152.87" rx="6.75" ry="3.93"/><path class="cls-83" d="M253.62,149.14c3.61,0,6.55,1.65,6.73,3.72,0-.07,0-.14,0-.21,0-2.17-3-3.93-6.75-3.93s-6.75,1.76-6.75,3.93c0,.07,0,.14,0,.21C247.07,150.79,250,149.14,253.62,149.14Z"/><path class="cls-84" d="M253.39,149.36c3.61,0,6.54,1.65,6.73,3.72,0-.07,0-.14,0-.21,0-2.17-3-3.93-6.75-3.93s-6.75,1.76-6.75,3.93c0,.07,0,.14,0,.21C246.85,151,249.78,149.36,253.39,149.36Z"/><ellipse class="cls-85" cx="257.52" cy="149.63" rx="1.92" ry="3.88" transform="translate(32.89 345.19) rotate(-71.2)"/><g class="cls-75"><path class="cls-86" d="M253.91,151.64l-.52.12-.5.15-.51.19.54.31.18-.06.2-.07q.46-.16.87-.27a4.87,4.87,0,0,1,.77-.15,2.5,2.5,0,0,1,.68,0,1.89,1.89,0,0,1,.63.23,1,1,0,0,1,.45.44.62.62,0,0,1,0,.47,1.37,1.37,0,0,1-.34.47,3.72,3.72,0,0,1-.58.45l.73.42-.61.35-.74-.43a10.11,10.11,0,0,1-1.2.51,9.82,9.82,0,0,1-1.24.35l-.39-1L253,154l.61-.18a5.48,5.48,0,0,0,.64-.25l-.53-.31-.58.21q-.45.15-.82.23a3.87,3.87,0,0,1-.68.1,2.13,2.13,0,0,1-.57,0,1.75,1.75,0,0,1-.5-.19,1.07,1.07,0,0,1-.44-.41.67.67,0,0,1-.06-.46,1.16,1.16,0,0,1,.26-.48,2.64,2.64,0,0,1,.53-.47l-.61-.35.61-.35.62.36.56-.24.56-.2.54-.16.48-.13Zm-2,1a.38.38,0,0,0,.22,0,1.67,1.67,0,0,0,.33-.07l-.46-.26Q251.7,152.51,251.87,152.61Zm2.9.48a.4.4,0,0,0-.24,0,2,2,0,0,0-.35.08l.45.26a.52.52,0,0,0,.2-.18A.09.09,0,0,0,254.77,153.09Z"/></g><path class="cls-87" d="M253.91,151.41l-.52.12-.5.15-.51.19.54.31.18-.06.2-.07q.46-.16.87-.27a4.87,4.87,0,0,1,.77-.15,2.5,2.5,0,0,1,.68,0,1.89,1.89,0,0,1,.63.23,1,1,0,0,1,.45.44.62.62,0,0,1,0,.47,1.37,1.37,0,0,1-.34.47,3.72,3.72,0,0,1-.58.45l.73.42-.61.35-.74-.43a10.11,10.11,0,0,1-1.2.51,9.82,9.82,0,0,1-1.24.35l-.39-1,.63-.14.61-.18a5.48,5.48,0,0,0,.64-.25l-.53-.31-.58.21q-.45.15-.82.23a3.87,3.87,0,0,1-.68.1,2.13,2.13,0,0,1-.57,0,1.75,1.75,0,0,1-.5-.19,1.07,1.07,0,0,1-.44-.41.67.67,0,0,1-.06-.46,1.16,1.16,0,0,1,.26-.48,2.64,2.64,0,0,1,.53-.47l-.61-.35.61-.35.62.36L252,151l.56-.2.54-.16.48-.13Zm-2,1a.38.38,0,0,0,.22,0,1.67,1.67,0,0,0,.33-.07l-.46-.26Q251.7,152.28,251.87,152.38Zm2.9.48a.4.4,0,0,0-.24,0,2,2,0,0,0-.35.08l.45.26a.52.52,0,0,0,.2-.18A.09.09,0,0,0,254.77,152.87Z"/><path class="cls-88" d="M253.91,151.41l-.52.12-.5.15-.51.19.54.31.18-.06.2-.07q.46-.16.87-.27a4.87,4.87,0,0,1,.77-.15,2.5,2.5,0,0,1,.68,0,1.89,1.89,0,0,1,.63.23,1,1,0,0,1,.45.44.62.62,0,0,1,0,.47,1.37,1.37,0,0,1-.34.47,3.72,3.72,0,0,1-.58.45l.73.42-.61.35-.74-.43a10.11,10.11,0,0,1-1.2.51,9.82,9.82,0,0,1-1.24.35l-.39-1,.63-.14.61-.18a5.48,5.48,0,0,0,.64-.25l-.53-.31-.58.21q-.45.15-.82.23a3.87,3.87,0,0,1-.68.1,2.13,2.13,0,0,1-.57,0,1.75,1.75,0,0,1-.5-.19,1.07,1.07,0,0,1-.44-.41.67.67,0,0,1-.06-.46,1.16,1.16,0,0,1,.26-.48,2.64,2.64,0,0,1,.53-.47l-.61-.35.61-.35.62.36L252,151l.56-.2.54-.16.48-.13Zm-2,1a.38.38,0,0,0,.22,0,1.67,1.67,0,0,0,.33-.07l-.46-.26Q251.7,152.28,251.87,152.38Zm2.9.48a.4.4,0,0,0-.24,0,2,2,0,0,0-.35.08l.45.26a.52.52,0,0,0,.2-.18A.09.09,0,0,0,254.77,152.87Z"/><path class="cls-89" d="M262.42,150H244.36v2.55h0s0,0,0,.07c0,2.91,4,5.26,9,5.26s9-2.36,9-5.26c0,0,0,0,0-.07h0Z"/><g class="cls-75"><path class="cls-90" d="M244.36,152.2v.07s0,0,0-.07Z"/><path class="cls-91" d="M253.39,157.31c-5,0-9-2.36-9-5.26v.49h0s0,0,0,.07c0,2.91,4,5.26,9,5.26s9-2.36,9-5.26c0,0,0,0,0-.07h0V152C262.42,155,258.38,157.31,253.39,157.31Z"/><path class="cls-92" d="M262.42,152.27v-.07h0S262.42,152.25,262.42,152.27Z"/></g><g class="cls-75"><path class="cls-79" d="M256.16,157.62l.25-.05v-6.68h-.25Z"/><path class="cls-79" d="M257.29,157.35l.25-.07v-6.39h-.25Z"/><path class="cls-79" d="M258.43,157l.25-.11v-6h-.25Z"/><path class="cls-79" d="M255,157.78l.25,0v-6.87H255Z"/><path class="cls-79" d="M260.7,155.69l.25-.21v-4.6h-.25Z"/><path class="cls-79" d="M261.83,154.47a3.93,3.93,0,0,0,.25-.45v-3.14h-.25Z"/><path class="cls-79" d="M259.56,156.44l.25-.14v-5.42h-.25Z"/><path class="cls-79" d="M253.89,157.85h.25v-7h-.25Z"/><path class="cls-79" d="M252.75,157.85H253v-7h-.25Z"/><path class="cls-79" d="M250.48,157.59l.25.05v-6.76h-.25Z"/><path class="cls-79" d="M251.62,157.77l.25,0v-6.91h-.25Z"/><path class="cls-79" d="M249.35,157.31l.25.07v-6.5h-.25Z"/><path class="cls-79" d="M244.81,154.25a4.16,4.16,0,0,0,.25.4v-3.77h-.25Z"/><path class="cls-79" d="M245.94,155.58l.25.2v-4.9h-.25Z"/><path class="cls-79" d="M248.21,156.92l.25.1v-6.13h-.25Z"/><path class="cls-79" d="M247.08,156.37l.25.13v-5.62h-.25Z"/></g><ellipse class="cls-93" cx="253.39" cy="150.02" rx="9.03" ry="5.26"/><path class="cls-94" d="M253.39,155.14c-4.88,0-8.85-2.26-9-5.08,0,.06,0,.12,0,.18,0,2.91,4,5.26,9,5.26s9-2.36,9-5.26c0-.06,0-.12,0-.18C262.24,152.89,258.27,155.14,253.39,155.14Z"/><ellipse class="cls-95" cx="253.39" cy="150.02" rx="6.75" ry="3.93"/><path class="cls-96" d="M253.62,146.29c3.61,0,6.55,1.65,6.73,3.72,0-.07,0-.14,0-.21,0-2.17-3-3.93-6.75-3.93s-6.75,1.76-6.75,3.93c0,.07,0,.14,0,.21C247.07,147.94,250,146.29,253.62,146.29Z"/><path class="cls-97" d="M253.39,146.51c3.61,0,6.54,1.65,6.73,3.72,0-.07,0-.14,0-.21,0-2.17-3-3.93-6.75-3.93s-6.75,1.76-6.75,3.93c0,.07,0,.14,0,.21C246.85,148.16,249.78,146.51,253.39,146.51Z"/><ellipse class="cls-98" cx="257.52" cy="146.78" rx="1.92" ry="3.88" transform="translate(35.59 343.26) rotate(-71.2)"/><g class="cls-75"><path class="cls-99" d="M253.91,148.79l-.52.12-.5.15-.51.19.54.31.18-.06.2-.07q.46-.16.87-.27a4.88,4.88,0,0,1,.77-.15,2.49,2.49,0,0,1,.68,0,1.89,1.89,0,0,1,.63.23,1,1,0,0,1,.45.44.62.62,0,0,1,0,.47,1.37,1.37,0,0,1-.34.47,3.72,3.72,0,0,1-.58.45l.73.42-.61.35-.74-.43a10.11,10.11,0,0,1-1.2.51,9.81,9.81,0,0,1-1.24.35l-.39-1,.63-.14.61-.18a5.5,5.5,0,0,0,.64-.25l-.53-.31-.58.21q-.45.15-.82.23a3.87,3.87,0,0,1-.68.1,2.13,2.13,0,0,1-.57,0,1.75,1.75,0,0,1-.5-.19,1.07,1.07,0,0,1-.44-.41.67.67,0,0,1-.06-.46,1.16,1.16,0,0,1,.26-.48,2.64,2.64,0,0,1,.53-.47l-.61-.35.61-.35.62.36.56-.24.56-.2.54-.16.48-.13Zm-2,1a.38.38,0,0,0,.22,0,1.67,1.67,0,0,0,.33-.07l-.46-.26Q251.7,149.66,251.87,149.76Zm2.9.48a.4.4,0,0,0-.24,0,2,2,0,0,0-.35.08l.45.26a.52.52,0,0,0,.2-.18A.09.09,0,0,0,254.77,150.24Z"/></g><path class="cls-100" d="M253.91,148.56l-.52.12-.5.15-.51.19.54.31.18-.06.2-.07q.46-.16.87-.27a4.88,4.88,0,0,1,.77-.15,2.49,2.49,0,0,1,.68,0,1.89,1.89,0,0,1,.63.23,1,1,0,0,1,.45.44.62.62,0,0,1,0,.47,1.37,1.37,0,0,1-.34.47,3.72,3.72,0,0,1-.58.45l.73.42-.61.35-.74-.43a10.11,10.11,0,0,1-1.2.51,9.81,9.81,0,0,1-1.24.35l-.39-1L253,151l.61-.18a5.5,5.5,0,0,0,.64-.25l-.53-.31-.58.21q-.45.15-.82.23a3.87,3.87,0,0,1-.68.1,2.13,2.13,0,0,1-.57,0,1.75,1.75,0,0,1-.5-.19,1.07,1.07,0,0,1-.44-.41.67.67,0,0,1-.06-.46,1.16,1.16,0,0,1,.26-.48,2.64,2.64,0,0,1,.53-.47l-.61-.35.61-.35.62.36.56-.24.56-.2.54-.16.48-.13Zm-2,1a.38.38,0,0,0,.22,0,1.67,1.67,0,0,0,.33-.07l-.46-.26Q251.7,149.43,251.87,149.53Zm2.9.48a.4.4,0,0,0-.24,0,2,2,0,0,0-.35.08l.45.26a.52.52,0,0,0,.2-.18A.09.09,0,0,0,254.77,150Z"/><path class="cls-101" d="M253.91,148.56l-.52.12-.5.15-.51.19.54.31.18-.06.2-.07q.46-.16.87-.27a4.88,4.88,0,0,1,.77-.15,2.49,2.49,0,0,1,.68,0,1.89,1.89,0,0,1,.63.23,1,1,0,0,1,.45.44.62.62,0,0,1,0,.47,1.37,1.37,0,0,1-.34.47,3.72,3.72,0,0,1-.58.45l.73.42-.61.35-.74-.43a10.11,10.11,0,0,1-1.2.51,9.81,9.81,0,0,1-1.24.35l-.39-1L253,151l.61-.18a5.5,5.5,0,0,0,.64-.25l-.53-.31-.58.21q-.45.15-.82.23a3.87,3.87,0,0,1-.68.1,2.13,2.13,0,0,1-.57,0,1.75,1.75,0,0,1-.5-.19,1.07,1.07,0,0,1-.44-.41.67.67,0,0,1-.06-.46,1.16,1.16,0,0,1,.26-.48,2.64,2.64,0,0,1,.53-.47l-.61-.35.61-.35.62.36.56-.24.56-.2.54-.16.48-.13Zm-2,1a.38.38,0,0,0,.22,0,1.67,1.67,0,0,0,.33-.07l-.46-.26Q251.7,149.43,251.87,149.53Zm2.9.48a.4.4,0,0,0-.24,0,2,2,0,0,0-.35.08l.45.26a.52.52,0,0,0,.2-.18A.09.09,0,0,0,254.77,150Z"/><path class="cls-102" d="M262.42,147H244.36v2.55h0s0,0,0,.07c0,2.91,4,5.26,9,5.26s9-2.36,9-5.26c0,0,0,0,0-.07h0Z"/><g class="cls-75"><path class="cls-103" d="M244.36,149.2v.07s0,0,0-.07Z"/><path class="cls-104" d="M253.39,154.3c-5,0-9-2.36-9-5.26v.49h0s0,0,0,.07c0,2.91,4,5.26,9,5.26s9-2.36,9-5.26c0,0,0,0,0-.07h0V149C262.42,151.95,258.38,154.3,253.39,154.3Z"/><path class="cls-105" d="M262.42,149.27v-.07h0S262.42,149.25,262.42,149.27Z"/></g><g class="cls-75"><path class="cls-79" d="M256.16,154.61l.25-.05v-6.68h-.25Z"/><path class="cls-79" d="M257.29,154.35l.25-.07v-6.39h-.25Z"/><path class="cls-79" d="M258.43,154l.25-.11v-6h-.25Z"/><path class="cls-79" d="M255,154.78l.25,0v-6.87H255Z"/><path class="cls-79" d="M260.7,152.69l.25-.21v-4.6h-.25Z"/><path class="cls-79" d="M261.83,151.47a3.93,3.93,0,0,0,.25-.45v-3.14h-.25Z"/><path class="cls-79" d="M259.56,153.44l.25-.14v-5.42h-.25Z"/><path class="cls-79" d="M253.89,154.85h.25v-7h-.25Z"/><path class="cls-79" d="M252.75,154.85H253v-7h-.25Z"/><path class="cls-79" d="M250.48,154.58l.25.05v-6.76h-.25Z"/><path class="cls-79" d="M251.62,154.76l.25,0v-6.91h-.25Z"/><path class="cls-79" d="M249.35,154.31l.25.07v-6.5h-.25Z"/><path class="cls-79" d="M244.81,151.24a4.16,4.16,0,0,0,.25.4v-3.77h-.25Z"/><path class="cls-79" d="M245.94,152.58l.25.2v-4.9h-.25Z"/><path class="cls-79" d="M248.21,153.91l.25.1v-6.13h-.25Z"/><path class="cls-79" d="M247.08,153.37l.25.13v-5.62h-.25Z"/></g><ellipse class="cls-106" cx="253.39" cy="147.02" rx="9.03" ry="5.26"/><path class="cls-107" d="M253.39,152.14c-4.88,0-8.85-2.26-9-5.08,0,.06,0,.12,0,.18,0,2.91,4,5.26,9,5.26s9-2.36,9-5.26c0-.06,0-.12,0-.18C262.24,149.88,258.27,152.14,253.39,152.14Z"/><ellipse class="cls-108" cx="253.39" cy="147.02" rx="6.75" ry="3.93"/><path class="cls-109" d="M253.62,143.29c3.61,0,6.55,1.65,6.73,3.72,0-.07,0-.14,0-.21,0-2.17-3-3.93-6.75-3.93s-6.75,1.76-6.75,3.93c0,.07,0,.14,0,.21C247.07,144.93,250,143.29,253.62,143.29Z"/><path class="cls-110" d="M253.39,143.51c3.61,0,6.54,1.65,6.73,3.72,0-.07,0-.14,0-.21,0-2.17-3-3.93-6.75-3.93s-6.75,1.76-6.75,3.93c0,.07,0,.14,0,.21C246.85,145.16,249.78,143.51,253.39,143.51Z"/><ellipse class="cls-111" cx="257.52" cy="143.78" rx="1.92" ry="3.88" transform="translate(38.43 341.22) rotate(-71.2)"/><g class="cls-75"><path class="cls-112" d="M253.91,145.79l-.52.12-.5.15-.51.19.54.31.18-.06.2-.07q.46-.16.87-.27a4.88,4.88,0,0,1,.77-.15,2.49,2.49,0,0,1,.68,0,1.89,1.89,0,0,1,.63.23,1,1,0,0,1,.45.44.62.62,0,0,1,0,.47,1.37,1.37,0,0,1-.34.47,3.72,3.72,0,0,1-.58.45l.73.42-.61.35-.74-.43a10.11,10.11,0,0,1-1.2.51,9.81,9.81,0,0,1-1.24.35l-.39-1,.63-.14.61-.18a5.5,5.5,0,0,0,.64-.25l-.53-.31-.58.21q-.45.15-.82.23a3.87,3.87,0,0,1-.68.1,2.13,2.13,0,0,1-.57,0,1.75,1.75,0,0,1-.5-.19,1.07,1.07,0,0,1-.44-.41.67.67,0,0,1-.06-.46,1.16,1.16,0,0,1,.26-.48,2.64,2.64,0,0,1,.53-.47l-.61-.35.61-.35.62.36.56-.24.56-.2.54-.16.48-.13Zm-2,1a.38.38,0,0,0,.22,0,1.67,1.67,0,0,0,.33-.07l-.46-.26Q251.7,146.65,251.87,146.76Zm2.9.48a.4.4,0,0,0-.24,0,2,2,0,0,0-.35.08l.45.26a.52.52,0,0,0,.2-.18A.09.09,0,0,0,254.77,147.24Z"/></g><path class="cls-113" d="M253.91,145.56l-.52.12-.5.15-.51.19.54.31.18-.06.2-.07q.46-.16.87-.27a4.88,4.88,0,0,1,.77-.15,2.49,2.49,0,0,1,.68,0,1.89,1.89,0,0,1,.63.23,1,1,0,0,1,.45.44.62.62,0,0,1,0,.47,1.37,1.37,0,0,1-.34.47,3.72,3.72,0,0,1-.58.45l.73.42-.61.35-.74-.43a10.11,10.11,0,0,1-1.2.51,9.81,9.81,0,0,1-1.24.35l-.39-1L253,148l.61-.18a5.5,5.5,0,0,0,.64-.25l-.53-.31-.58.21q-.45.15-.82.23a3.87,3.87,0,0,1-.68.1,2.13,2.13,0,0,1-.57,0,1.75,1.75,0,0,1-.5-.19,1.07,1.07,0,0,1-.44-.41.67.67,0,0,1-.06-.46,1.16,1.16,0,0,1,.26-.48,2.64,2.64,0,0,1,.53-.47l-.61-.35.61-.35.62.36.56-.24.56-.2.54-.16.48-.13Zm-2,1a.38.38,0,0,0,.22,0,1.67,1.67,0,0,0,.33-.07l-.46-.26Q251.7,146.43,251.87,146.53Zm2.9.48a.4.4,0,0,0-.24,0,2,2,0,0,0-.35.08l.45.26a.52.52,0,0,0,.2-.18A.09.09,0,0,0,254.77,147Z"/><path class="cls-114" d="M253.91,145.56l-.52.12-.5.15-.51.19.54.31.18-.06.2-.07q.46-.16.87-.27a4.88,4.88,0,0,1,.77-.15,2.49,2.49,0,0,1,.68,0,1.89,1.89,0,0,1,.63.23,1,1,0,0,1,.45.44.62.62,0,0,1,0,.47,1.37,1.37,0,0,1-.34.47,3.72,3.72,0,0,1-.58.45l.73.42-.61.35-.74-.43a10.11,10.11,0,0,1-1.2.51,9.81,9.81,0,0,1-1.24.35l-.39-1L253,148l.61-.18a5.5,5.5,0,0,0,.64-.25l-.53-.31-.58.21q-.45.15-.82.23a3.87,3.87,0,0,1-.68.1,2.13,2.13,0,0,1-.57,0,1.75,1.75,0,0,1-.5-.19,1.07,1.07,0,0,1-.44-.41.67.67,0,0,1-.06-.46,1.16,1.16,0,0,1,.26-.48,2.64,2.64,0,0,1,.53-.47l-.61-.35.61-.35.62.36.56-.24.56-.2.54-.16.48-.13Zm-2,1a.38.38,0,0,0,.22,0,1.67,1.67,0,0,0,.33-.07l-.46-.26Q251.7,146.43,251.87,146.53Zm2.9.48a.4.4,0,0,0-.24,0,2,2,0,0,0-.35.08l.45.26a.52.52,0,0,0,.2-.18A.09.09,0,0,0,254.77,147Z"/><path class="cls-115" d="M262.42,143.94H244.36v2.55h0s0,0,0,.07c0,2.91,4,5.26,9,5.26s9-2.36,9-5.26c0,0,0,0,0-.07h0Z"/><g class="cls-75"><path class="cls-116" d="M244.36,146.15v.07s0,0,0-.07Z"/><path class="cls-117" d="M253.39,151.26c-5,0-9-2.36-9-5.26v.49h0s0,0,0,.07c0,2.91,4,5.26,9,5.26s9-2.36,9-5.26c0,0,0,0,0-.07h0V146C262.42,148.9,258.38,151.26,253.39,151.26Z"/><path class="cls-118" d="M262.42,146.22v-.07h0S262.42,146.2,262.42,146.22Z"/></g><g class="cls-75"><path class="cls-79" d="M256.16,151.57l.25-.05v-6.68h-.25Z"/><path class="cls-79" d="M257.29,151.3l.25-.07v-6.39h-.25Z"/><path class="cls-79" d="M258.43,150.93l.25-.11v-6h-.25Z"/><path class="cls-79" d="M255,151.73l.25,0v-6.87H255Z"/><path class="cls-79" d="M260.7,149.64l.25-.21v-4.6h-.25Z"/><path class="cls-79" d="M261.83,148.42a3.93,3.93,0,0,0,.25-.45v-3.14h-.25Z"/><path class="cls-79" d="M259.56,150.39l.25-.14v-5.42h-.25Z"/><path class="cls-79" d="M253.89,151.8h.25v-7h-.25Z"/><path class="cls-79" d="M252.75,151.8H253v-7h-.25Z"/><path class="cls-79" d="M250.48,151.54l.25.05v-6.76h-.25Z"/><path class="cls-79" d="M251.62,151.72l.25,0v-6.91h-.25Z"/><path class="cls-79" d="M249.35,151.26l.25.07v-6.5h-.25Z"/><path class="cls-79" d="M244.81,148.2a4.16,4.16,0,0,0,.25.4v-3.77h-.25Z"/><path class="cls-79" d="M245.94,149.53l.25.2v-4.9h-.25Z"/><path class="cls-79" d="M248.21,150.87l.25.1v-6.13h-.25Z"/><path class="cls-79" d="M247.08,150.32l.25.13v-5.62h-.25Z"/></g><ellipse class="cls-119" cx="253.39" cy="143.97" rx="9.03" ry="5.26"/><path class="cls-120" d="M253.39,149.09c-4.88,0-8.85-2.26-9-5.08,0,.06,0,.12,0,.18,0,2.91,4,5.26,9,5.26s9-2.36,9-5.26c0-.06,0-.12,0-.18C262.24,146.84,258.27,149.09,253.39,149.09Z"/><ellipse class="cls-121" cx="253.39" cy="143.97" rx="6.75" ry="3.93"/><path class="cls-122" d="M253.62,140.24c3.61,0,6.55,1.65,6.73,3.72,0-.07,0-.14,0-.21,0-2.17-3-3.93-6.75-3.93s-6.75,1.76-6.75,3.93c0,.07,0,.14,0,.21C247.07,141.89,250,140.24,253.62,140.24Z"/><path class="cls-123" d="M253.39,140.46c3.61,0,6.54,1.65,6.73,3.72,0-.07,0-.14,0-.21,0-2.17-3-3.93-6.75-3.93s-6.75,1.76-6.75,3.93c0,.07,0,.14,0,.21C246.85,142.11,249.78,140.46,253.39,140.46Z"/><ellipse class="cls-124" cx="248.08" cy="149.4" rx="5.68" ry="3.4" transform="translate(38.92 349.69) rotate(-74.81)"/><ellipse class="cls-125" cx="257.52" cy="140.73" rx="1.92" ry="3.88" transform="translate(41.31 339.16) rotate(-71.2)"/><g class="cls-75"><path class="cls-126" d="M253.91,142.74l-.52.12-.5.15-.51.19.54.31.18-.06.2-.07q.46-.16.87-.27a4.88,4.88,0,0,1,.77-.15,2.5,2.5,0,0,1,.68,0,1.89,1.89,0,0,1,.63.23,1,1,0,0,1,.45.44.62.62,0,0,1,0,.47,1.37,1.37,0,0,1-.34.47,3.72,3.72,0,0,1-.58.45l.73.42-.61.35-.74-.43a10.1,10.1,0,0,1-1.2.51,9.81,9.81,0,0,1-1.24.35l-.39-1,.63-.14.61-.18a5.49,5.49,0,0,0,.64-.25l-.53-.31-.58.21q-.45.15-.82.23a3.87,3.87,0,0,1-.68.1,2.13,2.13,0,0,1-.57,0,1.75,1.75,0,0,1-.5-.19,1.07,1.07,0,0,1-.44-.41.67.67,0,0,1-.06-.46,1.16,1.16,0,0,1,.26-.48,2.64,2.64,0,0,1,.53-.47l-.61-.35.61-.35.62.36.56-.24.56-.2.54-.16.48-.13Zm-2,1a.38.38,0,0,0,.22,0,1.67,1.67,0,0,0,.33-.07l-.46-.26Q251.7,143.61,251.87,143.71Zm2.9.48a.4.4,0,0,0-.24,0,2,2,0,0,0-.35.08l.45.26a.52.52,0,0,0,.2-.18A.09.09,0,0,0,254.77,144.19Z"/></g><path class="cls-127" d="M253.91,142.51l-.52.12-.5.15-.51.19.54.31.18-.06.2-.07q.46-.16.87-.27a4.88,4.88,0,0,1,.77-.15,2.5,2.5,0,0,1,.68,0,1.89,1.89,0,0,1,.63.23,1,1,0,0,1,.45.44.62.62,0,0,1,0,.47,1.37,1.37,0,0,1-.34.47,3.72,3.72,0,0,1-.58.45l.73.42-.61.35-.74-.43a10.1,10.1,0,0,1-1.2.51,9.81,9.81,0,0,1-1.24.35l-.39-1,.63-.14.61-.18a5.49,5.49,0,0,0,.64-.25l-.53-.31-.58.21q-.45.15-.82.23a3.87,3.87,0,0,1-.68.1,2.13,2.13,0,0,1-.57,0,1.75,1.75,0,0,1-.5-.19,1.07,1.07,0,0,1-.44-.41.67.67,0,0,1-.06-.46,1.16,1.16,0,0,1,.26-.48,2.64,2.64,0,0,1,.53-.47l-.61-.35.61-.35.62.36.56-.24.56-.2.54-.16.48-.13Zm-2,1a.38.38,0,0,0,.22,0,1.67,1.67,0,0,0,.33-.07l-.46-.26Q251.7,143.38,251.87,143.48Zm2.9.48a.4.4,0,0,0-.24,0,2,2,0,0,0-.35.08l.45.26a.52.52,0,0,0,.2-.18A.09.09,0,0,0,254.77,144Z"/><path class="cls-128" d="M253.91,142.51l-.52.12-.5.15-.51.19.54.31.18-.06.2-.07q.46-.16.87-.27a4.88,4.88,0,0,1,.77-.15,2.5,2.5,0,0,1,.68,0,1.89,1.89,0,0,1,.63.23,1,1,0,0,1,.45.44.62.62,0,0,1,0,.47,1.37,1.37,0,0,1-.34.47,3.72,3.72,0,0,1-.58.45l.73.42-.61.35-.74-.43a10.1,10.1,0,0,1-1.2.51,9.81,9.81,0,0,1-1.24.35l-.39-1,.63-.14.61-.18a5.49,5.49,0,0,0,.64-.25l-.53-.31-.58.21q-.45.15-.82.23a3.87,3.87,0,0,1-.68.1,2.13,2.13,0,0,1-.57,0,1.75,1.75,0,0,1-.5-.19,1.07,1.07,0,0,1-.44-.41.67.67,0,0,1-.06-.46,1.16,1.16,0,0,1,.26-.48,2.64,2.64,0,0,1,.53-.47l-.61-.35.61-.35.62.36.56-.24.56-.2.54-.16.48-.13Zm-2,1a.38.38,0,0,0,.22,0,1.67,1.67,0,0,0,.33-.07l-.46-.26Q251.7,143.38,251.87,143.48Zm2.9.48a.4.4,0,0,0-.24,0,2,2,0,0,0-.35.08l.45.26a.52.52,0,0,0,.2-.18A.09.09,0,0,0,254.77,144Z"/><path class="cls-129" d="M276.75,156.6H258.69v2.55h0s0,0,0,.07c0,2.91,4,5.26,9,5.26s9-2.36,9-5.26c0,0,0,0,0-.07h0Z"/><g class="cls-75"><path class="cls-130" d="M258.69,158.82v.07s0,0,0-.07Z"/><path class="cls-131" d="M267.72,163.92c-5,0-9-2.36-9-5.26v.49h0s0,0,0,.07c0,2.91,4,5.26,9,5.26s9-2.36,9-5.26c0,0,0,0,0-.07h0v-.49C276.75,161.57,272.71,163.92,267.72,163.92Z"/><path class="cls-132" d="M276.75,158.89v-.07h0S276.75,158.86,276.75,158.89Z"/></g><g class="cls-75"><path class="cls-79" d="M270.49,164.23l.25-.05V157.5h-.25Z"/><path class="cls-79" d="M271.62,164l.25-.07V157.5h-.25Z"/><path class="cls-79" d="M272.76,163.59l.25-.11v-6h-.25Z"/><path class="cls-79" d="M269.35,164.4l.25,0V157.5h-.25Z"/><path class="cls-79" d="M275,162.31l.25-.21v-4.6H275Z"/><path class="cls-79" d="M276.16,161.09a3.94,3.94,0,0,0,.25-.45V157.5h-.25Z"/><path class="cls-79" d="M273.89,163.06l.25-.14V157.5h-.25Z"/><path class="cls-79" d="M268.22,164.47h.25v-7h-.25Z"/><path class="cls-79" d="M267.08,164.47h.25v-7h-.25Z"/><path class="cls-79" d="M264.81,164.2l.25.05V157.5h-.25Z"/><path class="cls-79" d="M265.95,164.38l.25,0V157.5h-.25Z"/><path class="cls-79" d="M263.68,163.92l.25.07v-6.5h-.25Z"/><path class="cls-79" d="M259.14,160.86a4.16,4.16,0,0,0,.25.4V157.5h-.25Z"/><path class="cls-79" d="M260.27,162.2l.25.2v-4.9h-.25Z"/><path class="cls-79" d="M262.54,163.53l.25.1V157.5h-.25Z"/><path class="cls-79" d="M261.41,163l.25.13V157.5h-.25Z"/></g><ellipse class="cls-133" cx="267.72" cy="156.64" rx="9.03" ry="5.26"/><path class="cls-134" d="M267.72,161.76c-4.88,0-8.85-2.26-9-5.08,0,.06,0,.12,0,.18,0,2.91,4,5.26,9,5.26s9-2.36,9-5.26c0-.06,0-.12,0-.18C276.57,159.5,272.6,161.76,267.72,161.76Z"/><ellipse class="cls-135" cx="267.72" cy="156.64" rx="6.75" ry="3.93"/><path class="cls-136" d="M267.94,152.9c3.61,0,6.55,1.65,6.73,3.72,0-.07,0-.14,0-.21,0-2.17-3-3.93-6.75-3.93s-6.75,1.76-6.75,3.93c0,.07,0,.14,0,.21C261.4,154.55,264.34,152.9,267.94,152.9Z"/><path class="cls-137" d="M267.72,153.13c3.61,0,6.55,1.65,6.73,3.72,0-.07,0-.14,0-.21,0-2.17-3-3.93-6.75-3.93s-6.75,1.76-6.75,3.93c0,.07,0,.14,0,.21C261.17,154.78,264.11,153.13,267.72,153.13Z"/><ellipse class="cls-138" cx="271.84" cy="153.39" rx="1.92" ry="3.88" transform="translate(39.03 361.31) rotate(-71.2)"/><g class="cls-75"><path class="cls-139" d="M268.24,155.41l-.52.12-.5.15-.51.19.54.31.18-.06.2-.07q.46-.16.87-.27a4.88,4.88,0,0,1,.77-.15,2.5,2.5,0,0,1,.68,0,1.89,1.89,0,0,1,.63.23,1,1,0,0,1,.45.44.62.62,0,0,1,0,.47,1.37,1.37,0,0,1-.34.47,3.72,3.72,0,0,1-.58.45l.73.42-.61.35-.74-.43a10.09,10.09,0,0,1-1.2.51,9.81,9.81,0,0,1-1.24.35l-.39-1,.63-.14.61-.18a5.49,5.49,0,0,0,.64-.25l-.53-.31-.58.21q-.45.15-.82.23a3.87,3.87,0,0,1-.68.1,2.13,2.13,0,0,1-.57,0,1.75,1.75,0,0,1-.5-.19,1.07,1.07,0,0,1-.44-.41.67.67,0,0,1-.06-.46,1.16,1.16,0,0,1,.26-.48,2.65,2.65,0,0,1,.53-.47l-.61-.35.61-.35.62.36.56-.24.56-.2.54-.16.48-.13Zm-2,1a.38.38,0,0,0,.22,0,1.67,1.67,0,0,0,.33-.07l-.46-.26Q266,156.27,266.2,156.37Zm2.9.48a.4.4,0,0,0-.24,0,2,2,0,0,0-.35.08l.45.26a.52.52,0,0,0,.2-.18A.09.09,0,0,0,269.1,156.86Z"/></g><path class="cls-140" d="M268.24,155.18l-.52.12-.5.15-.51.19.54.31.18-.06.2-.07q.46-.16.87-.27a4.88,4.88,0,0,1,.77-.15,2.5,2.5,0,0,1,.68,0,1.89,1.89,0,0,1,.63.23,1,1,0,0,1,.45.44.62.62,0,0,1,0,.47,1.37,1.37,0,0,1-.34.47,3.72,3.72,0,0,1-.58.45l.73.42-.61.35-.74-.43a10.09,10.09,0,0,1-1.2.51,9.81,9.81,0,0,1-1.24.35l-.39-1,.63-.14.61-.18a5.5,5.5,0,0,0,.64-.25l-.53-.31-.58.21q-.45.15-.82.23a3.87,3.87,0,0,1-.68.1,2.13,2.13,0,0,1-.57,0,1.75,1.75,0,0,1-.5-.19,1.07,1.07,0,0,1-.44-.41.67.67,0,0,1-.06-.46,1.16,1.16,0,0,1,.26-.48,2.65,2.65,0,0,1,.53-.47l-.61-.35.61-.35.62.36.56-.24.56-.2.54-.16.48-.13Zm-2,1a.38.38,0,0,0,.22,0,1.67,1.67,0,0,0,.33-.07l-.46-.26Q266,156,266.2,156.15Zm2.9.48a.4.4,0,0,0-.24,0,2,2,0,0,0-.35.08l.45.26a.52.52,0,0,0,.2-.18A.09.09,0,0,0,269.1,156.63Z"/><path class="cls-141" d="M268.24,155.18l-.52.12-.5.15-.51.19.54.31.18-.06.2-.07q.46-.16.87-.27a4.88,4.88,0,0,1,.77-.15,2.5,2.5,0,0,1,.68,0,1.89,1.89,0,0,1,.63.23,1,1,0,0,1,.45.44.62.62,0,0,1,0,.47,1.37,1.37,0,0,1-.34.47,3.72,3.72,0,0,1-.58.45l.73.42-.61.35-.74-.43a10.09,10.09,0,0,1-1.2.51,9.81,9.81,0,0,1-1.24.35l-.39-1,.63-.14.61-.18a5.5,5.5,0,0,0,.64-.25l-.53-.31-.58.21q-.45.15-.82.23a3.87,3.87,0,0,1-.68.1,2.13,2.13,0,0,1-.57,0,1.75,1.75,0,0,1-.5-.19,1.07,1.07,0,0,1-.44-.41.67.67,0,0,1-.06-.46,1.16,1.16,0,0,1,.26-.48,2.65,2.65,0,0,1,.53-.47l-.61-.35.61-.35.62.36.56-.24.56-.2.54-.16.48-.13Zm-2,1a.38.38,0,0,0,.22,0,1.67,1.67,0,0,0,.33-.07l-.46-.26Q266,156,266.2,156.15Zm2.9.48a.4.4,0,0,0-.24,0,2,2,0,0,0-.35.08l.45.26a.52.52,0,0,0,.2-.18A.09.09,0,0,0,269.1,156.63Z"/><path class="cls-142" d="M276.75,153.75H258.69v2.55h0s0,0,0,.07c0,2.91,4,5.26,9,5.26s9-2.36,9-5.26c0,0,0,0,0-.07h0Z"/><g class="cls-75"><path class="cls-143" d="M258.69,156V156s0,0,0-.07Z"/><path class="cls-144" d="M267.72,161.07c-5,0-9-2.36-9-5.26v.49h0s0,0,0,.07c0,2.91,4,5.26,9,5.26s9-2.36,9-5.26c0,0,0,0,0-.07h0v-.49C276.75,158.72,272.71,161.07,267.72,161.07Z"/><path class="cls-145" d="M276.75,156V156h0S276.75,156,276.75,156Z"/></g><g class="cls-75"><path class="cls-79" d="M270.49,161.38l.25-.05v-6.68h-.25Z"/><path class="cls-79" d="M271.62,161.11l.25-.07v-6.39h-.25Z"/><path class="cls-79" d="M272.76,160.74l.25-.11v-6h-.25Z"/><path class="cls-79" d="M269.35,161.54l.25,0v-6.87h-.25Z"/><path class="cls-79" d="M275,159.46l.25-.21v-4.6H275Z"/><path class="cls-79" d="M276.16,158.23a3.94,3.94,0,0,0,.25-.45v-3.14h-.25Z"/><path class="cls-79" d="M273.89,160.21l.25-.14v-5.42h-.25Z"/><path class="cls-79" d="M268.22,161.62h.25v-7h-.25Z"/><path class="cls-79" d="M267.08,161.62h.25v-7h-.25Z"/><path class="cls-79" d="M264.81,161.35l.25.05v-6.76h-.25Z"/><path class="cls-79" d="M265.95,161.53l.25,0v-6.91h-.25Z"/><path class="cls-79" d="M263.68,161.07l.25.07v-6.5h-.25Z"/><path class="cls-79" d="M259.14,158a4.17,4.17,0,0,0,.25.4v-3.77h-.25Z"/><path class="cls-79" d="M260.27,159.35l.25.2v-4.9h-.25Z"/><path class="cls-79" d="M262.54,160.68l.25.1v-6.13h-.25Z"/><path class="cls-79" d="M261.41,160.13l.25.13v-5.62h-.25Z"/></g><ellipse class="cls-146" cx="267.72" cy="153.79" rx="9.03" ry="5.26"/><path class="cls-147" d="M267.72,158.91c-4.88,0-8.85-2.26-9-5.08,0,.06,0,.12,0,.18,0,2.91,4,5.26,9,5.26s9-2.36,9-5.26c0-.06,0-.12,0-.18C276.57,156.65,272.6,158.91,267.72,158.91Z"/><ellipse class="cls-148" cx="267.72" cy="153.79" rx="6.75" ry="3.93"/><path class="cls-149" d="M267.94,150.05c3.61,0,6.55,1.65,6.73,3.72,0-.07,0-.14,0-.21,0-2.17-3-3.93-6.75-3.93s-6.75,1.76-6.75,3.93c0,.07,0,.14,0,.21C261.4,151.7,264.34,150.05,267.94,150.05Z"/><path class="cls-150" d="M267.72,150.28c3.61,0,6.55,1.65,6.73,3.72,0-.07,0-.14,0-.21,0-2.17-3-3.93-6.75-3.93s-6.75,1.76-6.75,3.93c0,.07,0,.14,0,.21C261.17,151.93,264.11,150.28,267.72,150.28Z"/><ellipse class="cls-151" cx="271.84" cy="150.54" rx="1.92" ry="3.88" transform="translate(41.73 359.37) rotate(-71.2)"/><g class="cls-75"><path class="cls-152" d="M268.24,152.55l-.52.12-.5.15-.51.19.54.31.18-.06.2-.07q.46-.16.87-.27a4.87,4.87,0,0,1,.77-.15,2.49,2.49,0,0,1,.68,0,1.89,1.89,0,0,1,.63.23,1,1,0,0,1,.45.44.62.62,0,0,1,0,.47,1.37,1.37,0,0,1-.34.47,3.72,3.72,0,0,1-.58.45l.73.42-.61.35-.74-.43a10.1,10.1,0,0,1-1.2.51,9.82,9.82,0,0,1-1.24.35l-.39-1,.63-.14.61-.18a5.5,5.5,0,0,0,.64-.25l-.53-.31-.58.21q-.45.15-.82.23a3.87,3.87,0,0,1-.68.1,2.13,2.13,0,0,1-.57,0,1.76,1.76,0,0,1-.5-.19,1.07,1.07,0,0,1-.44-.41.67.67,0,0,1-.06-.46,1.16,1.16,0,0,1,.26-.48,2.65,2.65,0,0,1,.53-.47l-.61-.35.61-.35.62.36.56-.24.56-.2.54-.16.48-.13Zm-2,1a.38.38,0,0,0,.22,0,1.67,1.67,0,0,0,.33-.07l-.46-.26Q266,153.42,266.2,153.52Zm2.9.48a.4.4,0,0,0-.24,0,2,2,0,0,0-.35.08l.45.26a.52.52,0,0,0,.2-.18A.09.09,0,0,0,269.1,154Z"/></g><path class="cls-153" d="M268.24,152.33l-.52.12-.5.15-.51.19.54.31.18-.06.2-.07q.46-.16.87-.27a4.87,4.87,0,0,1,.77-.15,2.5,2.5,0,0,1,.68,0,1.89,1.89,0,0,1,.63.23,1,1,0,0,1,.45.44.62.62,0,0,1,0,.47,1.37,1.37,0,0,1-.34.47,3.72,3.72,0,0,1-.58.45l.73.42-.61.35-.74-.43a10.1,10.1,0,0,1-1.2.51,9.82,9.82,0,0,1-1.24.35l-.39-1,.63-.14.61-.18a5.5,5.5,0,0,0,.64-.25L268,154l-.58.21q-.45.15-.82.23a3.87,3.87,0,0,1-.68.1,2.13,2.13,0,0,1-.57,0,1.76,1.76,0,0,1-.5-.19,1.07,1.07,0,0,1-.44-.41.67.67,0,0,1-.06-.46,1.16,1.16,0,0,1,.26-.48,2.65,2.65,0,0,1,.53-.47l-.61-.35.61-.35.62.36.56-.24.56-.2.54-.16.48-.13Zm-2,1a.38.38,0,0,0,.22,0,1.67,1.67,0,0,0,.33-.07l-.46-.26Q266,153.2,266.2,153.3Zm2.9.48a.4.4,0,0,0-.24,0,2,2,0,0,0-.35.08l.45.26a.52.52,0,0,0,.2-.18A.09.09,0,0,0,269.1,153.78Z"/><path class="cls-154" d="M268.24,152.33l-.52.12-.5.15-.51.19.54.31.18-.06.2-.07q.46-.16.87-.27a4.87,4.87,0,0,1,.77-.15,2.5,2.5,0,0,1,.68,0,1.89,1.89,0,0,1,.63.23,1,1,0,0,1,.45.44.62.62,0,0,1,0,.47,1.37,1.37,0,0,1-.34.47,3.72,3.72,0,0,1-.58.45l.73.42-.61.35-.74-.43a10.1,10.1,0,0,1-1.2.51,9.82,9.82,0,0,1-1.24.35l-.39-1,.63-.14.61-.18a5.5,5.5,0,0,0,.64-.25L268,154l-.58.21q-.45.15-.82.23a3.87,3.87,0,0,1-.68.1,2.13,2.13,0,0,1-.57,0,1.76,1.76,0,0,1-.5-.19,1.07,1.07,0,0,1-.44-.41.67.67,0,0,1-.06-.46,1.16,1.16,0,0,1,.26-.48,2.65,2.65,0,0,1,.53-.47l-.61-.35.61-.35.62.36.56-.24.56-.2.54-.16.48-.13Zm-2,1a.38.38,0,0,0,.22,0,1.67,1.67,0,0,0,.33-.07l-.46-.26Q266,153.2,266.2,153.3Zm2.9.48a.4.4,0,0,0-.24,0,2,2,0,0,0-.35.08l.45.26a.52.52,0,0,0,.2-.18A.09.09,0,0,0,269.1,153.78Z"/><path class="cls-155" d="M276.75,150.75H258.69v2.55h0s0,0,0,.07c0,2.91,4,5.26,9,5.26s9-2.36,9-5.26c0,0,0,0,0-.07h0Z"/><g class="cls-75"><path class="cls-156" d="M258.69,153V153s0,0,0-.07Z"/><path class="cls-157" d="M267.72,158.07c-5,0-9-2.36-9-5.26v.49h0s0,0,0,.07c0,2.91,4,5.26,9,5.26s9-2.36,9-5.26c0,0,0,0,0-.07h0v-.49C276.75,155.72,272.71,158.07,267.72,158.07Z"/><path class="cls-158" d="M276.75,153V153h0S276.75,153,276.75,153Z"/></g><g class="cls-75"><path class="cls-79" d="M270.49,158.38l.25-.05v-6.68h-.25Z"/><path class="cls-79" d="M271.62,158.11l.25-.07v-6.39h-.25Z"/><path class="cls-79" d="M272.76,157.74l.25-.11v-6h-.25Z"/><path class="cls-79" d="M269.35,158.54l.25,0v-6.87h-.25Z"/><path class="cls-79" d="M275,156.46l.25-.21v-4.6H275Z"/><path class="cls-79" d="M276.16,155.23a3.94,3.94,0,0,0,.25-.45v-3.14h-.25Z"/><path class="cls-79" d="M273.89,157.21l.25-.14v-5.42h-.25Z"/><path class="cls-79" d="M268.22,158.62h.25v-7h-.25Z"/><path class="cls-79" d="M267.08,158.61h.25v-7h-.25Z"/><path class="cls-79" d="M264.81,158.35l.25.05v-6.76h-.25Z"/><path class="cls-79" d="M265.95,158.53l.25,0v-6.91h-.25Z"/><path class="cls-79" d="M263.68,158.07l.25.07v-6.5h-.25Z"/><path class="cls-79" d="M259.14,155a4.17,4.17,0,0,0,.25.4v-3.77h-.25Z"/><path class="cls-79" d="M260.27,156.35l.25.2v-4.9h-.25Z"/><path class="cls-79" d="M262.54,157.68l.25.1v-6.13h-.25Z"/><path class="cls-79" d="M261.41,157.13l.25.13v-5.62h-.25Z"/></g><ellipse class="cls-159" cx="267.72" cy="150.79" rx="9.03" ry="5.26"/><path class="cls-160" d="M267.72,155.91c-4.88,0-8.85-2.26-9-5.08,0,.06,0,.12,0,.18,0,2.91,4,5.26,9,5.26s9-2.36,9-5.26c0-.06,0-.12,0-.18C276.57,153.65,272.6,155.91,267.72,155.91Z"/><ellipse class="cls-161" cx="267.72" cy="150.79" rx="6.75" ry="3.93"/><path class="cls-162" d="M267.94,147.05c3.61,0,6.55,1.65,6.73,3.72,0-.07,0-.14,0-.21,0-2.17-3-3.93-6.75-3.93s-6.75,1.76-6.75,3.93c0,.07,0,.14,0,.21C261.4,148.7,264.34,147.05,267.94,147.05Z"/><path class="cls-163" d="M267.72,147.28c3.61,0,6.55,1.65,6.73,3.72,0-.07,0-.14,0-.21,0-2.17-3-3.93-6.75-3.93s-6.75,1.76-6.75,3.93c0,.07,0,.14,0,.21C261.17,148.93,264.11,147.28,267.72,147.28Z"/><ellipse class="cls-164" cx="262.54" cy="157.13" rx="4.53" ry="3.15" transform="translate(78.45 401.53) rotate(-83.91)"/><ellipse class="cls-165" cx="271.84" cy="147.54" rx="1.92" ry="3.88" transform="translate(44.57 357.34) rotate(-71.2)"/><g class="cls-75"><path class="cls-166" d="M268.24,149.55l-.52.12-.5.15-.51.19.54.31.18-.06.2-.07q.46-.16.87-.27a4.88,4.88,0,0,1,.77-.15,2.49,2.49,0,0,1,.68,0,1.89,1.89,0,0,1,.63.23,1,1,0,0,1,.45.44.62.62,0,0,1,0,.47,1.37,1.37,0,0,1-.34.47,3.72,3.72,0,0,1-.58.45l.73.42-.61.35-.74-.43a10.1,10.1,0,0,1-1.2.51,9.81,9.81,0,0,1-1.24.35l-.39-1,.63-.14.61-.18a5.5,5.5,0,0,0,.64-.25l-.53-.31-.58.21q-.45.15-.82.23a3.87,3.87,0,0,1-.68.1,2.13,2.13,0,0,1-.57,0,1.76,1.76,0,0,1-.5-.19,1.07,1.07,0,0,1-.44-.41.67.67,0,0,1-.06-.46,1.16,1.16,0,0,1,.26-.48,2.65,2.65,0,0,1,.53-.47l-.61-.35.61-.35.62.36.56-.24.56-.2.54-.16.48-.13Zm-2,1a.38.38,0,0,0,.22,0,1.67,1.67,0,0,0,.33-.07l-.46-.26Q266,150.42,266.2,150.52Zm2.9.48a.4.4,0,0,0-.24,0,2,2,0,0,0-.35.08l.45.26a.52.52,0,0,0,.2-.18A.09.09,0,0,0,269.1,151Z"/></g><path class="cls-167" d="M268.24,149.33l-.52.12-.5.15-.51.19.54.31.18-.06.2-.07q.46-.16.87-.27a4.87,4.87,0,0,1,.77-.15,2.49,2.49,0,0,1,.68,0,1.89,1.89,0,0,1,.63.23,1,1,0,0,1,.45.44.62.62,0,0,1,0,.47,1.37,1.37,0,0,1-.34.47,3.72,3.72,0,0,1-.58.45l.73.42-.61.35-.74-.43a10.1,10.1,0,0,1-1.2.51,9.82,9.82,0,0,1-1.24.35l-.39-1,.63-.14.61-.18a5.5,5.5,0,0,0,.64-.25L268,151l-.58.21q-.45.15-.82.23a3.87,3.87,0,0,1-.68.1,2.13,2.13,0,0,1-.57,0,1.76,1.76,0,0,1-.5-.19,1.07,1.07,0,0,1-.44-.41.67.67,0,0,1-.06-.46,1.16,1.16,0,0,1,.26-.48,2.65,2.65,0,0,1,.53-.47l-.61-.35.61-.35.62.36.56-.24.56-.2.54-.16.48-.13Zm-2,1a.38.38,0,0,0,.22,0,1.67,1.67,0,0,0,.33-.07l-.46-.26Q266,150.2,266.2,150.3Zm2.9.48a.4.4,0,0,0-.24,0,2,2,0,0,0-.35.08l.45.26a.52.52,0,0,0,.2-.18A.09.09,0,0,0,269.1,150.78Z"/><path class="cls-168" d="M268.24,149.33l-.52.12-.5.15-.51.19.54.31.18-.06.2-.07q.46-.16.87-.27a4.87,4.87,0,0,1,.77-.15,2.49,2.49,0,0,1,.68,0,1.89,1.89,0,0,1,.63.23,1,1,0,0,1,.45.44.62.62,0,0,1,0,.47,1.37,1.37,0,0,1-.34.47,3.72,3.72,0,0,1-.58.45l.73.42-.61.35-.74-.43a10.1,10.1,0,0,1-1.2.51,9.82,9.82,0,0,1-1.24.35l-.39-1,.63-.14.61-.18a5.5,5.5,0,0,0,.64-.25L268,151l-.58.21q-.45.15-.82.23a3.87,3.87,0,0,1-.68.1,2.13,2.13,0,0,1-.57,0,1.76,1.76,0,0,1-.5-.19,1.07,1.07,0,0,1-.44-.41.67.67,0,0,1-.06-.46,1.16,1.16,0,0,1,.26-.48,2.65,2.65,0,0,1,.53-.47l-.61-.35.61-.35.62.36.56-.24.56-.2.54-.16.48-.13Zm-2,1a.38.38,0,0,0,.22,0,1.67,1.67,0,0,0,.33-.07l-.46-.26Q266,150.2,266.2,150.3Zm2.9.48a.4.4,0,0,0-.24,0,2,2,0,0,0-.35.08l.45.26a.52.52,0,0,0,.2-.18A.09.09,0,0,0,269.1,150.78Z"/><path class="cls-169" d="M263.25,161.11H245.18v2.55h0s0,0,0,.07c0,2.91,4,5.26,9,5.26s9-2.36,9-5.26c0,0,0,0,0-.07h0Z"/><g class="cls-75"><path class="cls-170" d="M245.18,163.32v.07s0,0,0-.07Z"/><path class="cls-171" d="M254.21,168.42c-5,0-9-2.36-9-5.26v.49h0s0,0,0,.07c0,2.91,4,5.26,9,5.26s9-2.36,9-5.26c0,0,0,0,0-.07h0v-.49C263.25,166.07,259.2,168.42,254.21,168.42Z"/><path class="cls-172" d="M263.25,163.39v-.07h0S263.25,163.37,263.25,163.39Z"/></g><g class="cls-75"><path class="cls-79" d="M257,168.73l.25-.05V162H257Z"/><path class="cls-79" d="M258.12,168.47l.25-.07V162h-.25Z"/><path class="cls-79" d="M259.25,168.09l.25-.11v-6h-.25Z"/><path class="cls-79" d="M255.85,168.9l.25,0V162h-.25Z"/><path class="cls-79" d="M261.52,166.81l.25-.21V162h-.25Z"/><path class="cls-79" d="M262.65,165.59a3.93,3.93,0,0,0,.25-.45V162h-.25Z"/><path class="cls-79" d="M260.38,167.56l.25-.14V162h-.25Z"/><path class="cls-79" d="M254.71,169H255v-7h-.25Z"/><path class="cls-79" d="M253.58,169h.25v-7h-.25Z"/><path class="cls-79" d="M251.31,168.7l.25.05V162h-.25Z"/><path class="cls-79" d="M252.44,168.88l.25,0V162h-.25Z"/><path class="cls-79" d="M250.17,168.43l.25.07V162h-.25Z"/><path class="cls-79" d="M245.63,165.36a4.17,4.17,0,0,0,.25.4V162h-.25Z"/><path class="cls-79" d="M246.77,166.7l.25.2V162h-.25Z"/><path class="cls-79" d="M249,168l.25.1V162H249Z"/><path class="cls-79" d="M247.9,167.49l.25.13V162h-.25Z"/></g><ellipse class="cls-173" cx="254.21" cy="161.14" rx="9.03" ry="5.26"/><path class="cls-174" d="M254.21,166.26c-4.88,0-8.85-2.26-9-5.08,0,.06,0,.12,0,.18,0,2.91,4,5.26,9,5.26s9-2.36,9-5.26c0-.06,0-.12,0-.18C263.06,164,259.1,166.26,254.21,166.26Z"/><ellipse class="cls-175" cx="254.21" cy="161.14" rx="6.75" ry="3.93"/><path class="cls-176" d="M254.44,157.41c3.61,0,6.55,1.65,6.73,3.72,0-.07,0-.14,0-.21,0-2.17-3-3.93-6.75-3.93s-6.75,1.76-6.75,3.93c0,.07,0,.14,0,.21C247.89,159.05,250.83,157.41,254.44,157.41Z"/><path class="cls-177" d="M254.21,157.63c3.61,0,6.55,1.65,6.73,3.72,0-.07,0-.14,0-.21,0-2.17-3-3.93-6.75-3.93s-6.75,1.76-6.75,3.93c0,.07,0,.14,0,.21C247.67,159.28,250.61,157.63,254.21,157.63Z"/><ellipse class="cls-178" cx="249.39" cy="165.66" rx="1.92" ry="3.88" transform="translate(12.2 348.36) rotate(-71.2)"/><ellipse class="cls-179" cx="258.34" cy="157.9" rx="1.92" ry="3.88" transform="matrix(0.32, -0.95, 0.95, 0.32, 25.62, 351.57)"/><g class="cls-75"><path class="cls-180" d="M254.73,159.91l-.52.12-.5.15-.51.19.54.31.18-.06.2-.07q.46-.16.87-.27a4.88,4.88,0,0,1,.77-.15,2.49,2.49,0,0,1,.68,0,1.89,1.89,0,0,1,.63.23,1,1,0,0,1,.45.44.62.62,0,0,1,0,.47,1.37,1.37,0,0,1-.34.47,3.72,3.72,0,0,1-.58.45l.73.42-.61.35-.74-.43a10.11,10.11,0,0,1-1.2.51,9.81,9.81,0,0,1-1.24.35l-.39-1,.63-.14.61-.18a5.49,5.49,0,0,0,.64-.25l-.53-.31-.58.21q-.45.15-.82.23a3.87,3.87,0,0,1-.68.1,2.13,2.13,0,0,1-.57,0,1.75,1.75,0,0,1-.5-.19,1.07,1.07,0,0,1-.44-.41.67.67,0,0,1-.06-.46,1.16,1.16,0,0,1,.26-.48,2.65,2.65,0,0,1,.53-.47l-.61-.35.61-.35.62.36.56-.24.56-.2.54-.16.48-.13Zm-2,1a.38.38,0,0,0,.22,0,1.67,1.67,0,0,0,.33-.07l-.46-.26Q252.52,160.77,252.7,160.88Zm2.9.48a.4.4,0,0,0-.24,0,2,2,0,0,0-.35.08l.45.26a.52.52,0,0,0,.2-.18A.09.09,0,0,0,255.6,161.36Z"/></g><path class="cls-181" d="M254.73,159.68l-.52.12-.5.15-.51.19.54.31.18-.06.2-.07q.46-.16.87-.27a4.87,4.87,0,0,1,.77-.15,2.49,2.49,0,0,1,.68,0,1.89,1.89,0,0,1,.63.23,1,1,0,0,1,.45.44.62.62,0,0,1,0,.47,1.37,1.37,0,0,1-.34.47,3.72,3.72,0,0,1-.58.45l.73.42-.61.35-.74-.43a10.11,10.11,0,0,1-1.2.51,9.82,9.82,0,0,1-1.24.35l-.39-1,.63-.14.61-.18a5.49,5.49,0,0,0,.64-.25l-.53-.31-.58.21q-.45.15-.82.23a3.87,3.87,0,0,1-.68.1,2.13,2.13,0,0,1-.57,0,1.76,1.76,0,0,1-.5-.19,1.07,1.07,0,0,1-.44-.41.67.67,0,0,1-.06-.46,1.16,1.16,0,0,1,.26-.48,2.65,2.65,0,0,1,.53-.47l-.61-.35.61-.35.62.36.56-.24.56-.2.54-.16.48-.13Zm-2,1a.38.38,0,0,0,.22,0,1.67,1.67,0,0,0,.33-.07l-.46-.26Q252.52,160.55,252.7,160.65Zm2.9.48a.4.4,0,0,0-.24,0,2,2,0,0,0-.35.08l.45.26a.52.52,0,0,0,.2-.18A.09.09,0,0,0,255.6,161.13Z"/><path class="cls-182" d="M254.73,159.68l-.52.12-.5.15-.51.19.54.31.18-.06.2-.07q.46-.16.87-.27a4.87,4.87,0,0,1,.77-.15,2.49,2.49,0,0,1,.68,0,1.89,1.89,0,0,1,.63.23,1,1,0,0,1,.45.44.62.62,0,0,1,0,.47,1.37,1.37,0,0,1-.34.47,3.72,3.72,0,0,1-.58.45l.73.42-.61.35-.74-.43a10.11,10.11,0,0,1-1.2.51,9.82,9.82,0,0,1-1.24.35l-.39-1,.63-.14.61-.18a5.49,5.49,0,0,0,.64-.25l-.53-.31-.58.21q-.45.15-.82.23a3.87,3.87,0,0,1-.68.1,2.13,2.13,0,0,1-.57,0,1.76,1.76,0,0,1-.5-.19,1.07,1.07,0,0,1-.44-.41.67.67,0,0,1-.06-.46,1.16,1.16,0,0,1,.26-.48,2.65,2.65,0,0,1,.53-.47l-.61-.35.61-.35.62.36.56-.24.56-.2.54-.16.48-.13Zm-2,1a.38.38,0,0,0,.22,0,1.67,1.67,0,0,0,.33-.07l-.46-.26Q252.52,160.55,252.7,160.65Zm2.9.48a.4.4,0,0,0-.24,0,2,2,0,0,0-.35.08l.45.26a.52.52,0,0,0,.2-.18A.09.09,0,0,0,255.6,161.13Z"/></g></g></svg>