<svg id="Layer_1" data-name="Layer 1" xmlns="http://www.w3.org/2000/svg" viewBox="0 0 400 240"><defs><style>.cls-1{fill:#b0cff4;}.cls-2{fill:#3c8f7c;}.cls-3{fill:#96d9c9;}.cls-4{fill:#50bfa5;}.cls-5{fill:#f47458;}.cls-6{fill:#b75742;}.cls-7{fill:#f48c7f;}.cls-8{fill:#fae0b2;}.cls-9{fill:#fff;}.cls-10{fill:#86b1f2;}.cls-11{fill:#f7cc7f;}.cls-12{fill:#f7a491;}.cls-13{fill:#184655;}.cls-14{fill:#355389;}.cls-15{fill:#466eb6;}.cls-16{fill:#13375b;}.cls-17{fill:#f79c8d;}.cls-18{fill:#efefef;}.cls-19{fill:#f8a492;}.cls-20{fill:#fe875e;}.cls-21{fill:#bc4d26;}.cls-22{fill:#b7965c;}.cls-23{fill:#55bbf9;}</style></defs><title>family-3</title><path class="cls-1" d="M376,171.12h0c-5.72,0-10.35-5.08-10.35-11.35V157c0-6.27-4.63-11.35-10.35-11.35H332.11a4.57,4.57,0,0,1-4.57-4.57h0a11.27,11.27,0,0,0-11.27-11.27H288.79a4.57,4.57,0,0,1-4.57-4.57h0c0-6.27-4.63-11.35-10.35-11.35H250.62a9.54,9.54,0,0,1-1.19-.07h0a9.52,9.52,0,0,1-8.5-6.86L162.49,80.72l-27.62-4.88c-5.72,0-10.35,5.08-10.35,11.35v15.29c0,6.27-4.63,11.35-10.35,11.35H97.77c-5.72,0-10.35,5.08-10.35,11.35v9.06c0,6.27-4.63,11.35-10.35,11.35H38.28c-5.72,0-10.35,5.08-10.35,11.35v4.15c0,6.27,4.63,11.35,10.35,11.35H54.53c5.72,0,10.35,5.08,10.35,11.35v6.49c0,6.27-4.63,11.35-10.35,11.35H32.64c-5.72,0-4.12,8.77-4.12,15l-6.23,8.75c0,6.27,4.63,11.35,10.35,11.35H343.57c5.72,0,10.35-5.08,10.35-11.35V213c0-6.27,4.63-11.35,10.35-11.35H376c5.72,0,10.35-5.08,10.35-11.35v-7.83C386.39,176.2,381.75,171.12,376,171.12Z"/><path class="cls-2" d="M364.55,204.22c3.35-5.38,4-11.87,3.9-16.37a43.19,43.19,0,0,0-1-8.58l.24-.09a43.49,43.49,0,0,1,1,8.64c.07,4.54-.56,11.1-4,16.54Z"/><path class="cls-2" d="M366.67,178.38a3.71,3.71,0,0,0,1.24,2.6,4.34,4.34,0,0,0,.83-2.93,3.71,3.71,0,0,0-1.24-2.6A4.34,4.34,0,0,0,366.67,178.38Z"/><path class="cls-2" d="M368.93,180.93a4.34,4.34,0,0,0-.56,3,3.77,3.77,0,0,0,2.28-1.8,4.34,4.34,0,0,0,.56-3A3.77,3.77,0,0,0,368.93,180.93Z"/><path class="cls-2" d="M370.21,183.93a4.15,4.15,0,0,0-1.71,2.46,3.23,3.23,0,0,0,2.7-.49,4.15,4.15,0,0,0,1.71-2.46A3.23,3.23,0,0,0,370.21,183.93Z"/><path class="cls-2" d="M369.82,188.11a3,3,0,0,0-1.25,2.16,2.29,2.29,0,0,0,2.24-.19,3,3,0,0,0,1.25-2.16A2.29,2.29,0,0,0,369.82,188.11Z"/><path class="cls-2" d="M366.94,183.16a2.77,2.77,0,0,0-2.41-.14,3.11,3.11,0,0,0,1.51,2,2.77,2.77,0,0,0,2.41.14A3.11,3.11,0,0,0,366.94,183.16Z"/><path class="cls-2" d="M367,186a2.77,2.77,0,0,0-2.41-.14,3.11,3.11,0,0,0,1.51,2,2.77,2.77,0,0,0,2.41.14A3.11,3.11,0,0,0,367,186Z"/><path class="cls-3" d="M366.8,230.52c7.41-2.69,12.6-9.1,15.64-14a52.57,52.57,0,0,0,4.89-10.13l.33.13a52.93,52.93,0,0,1-4.92,10.2c-3.07,5-8.31,11.44-15.81,14.16Z"/><path class="cls-3" d="M387,204.65a5.32,5.32,0,0,0-.43,4,4.63,4.63,0,0,0,2.95-2.38,5.32,5.32,0,0,0,.43-4A4.63,4.63,0,0,0,387,204.65Z"/><path class="cls-3" d="M387.76,209.5a4.72,4.72,0,0,0-2.69,2.7,4.53,4.53,0,0,0,3.75.18,4.72,4.72,0,0,0,2.69-2.7A4.53,4.53,0,0,0,387.76,209.5Z"/><path class="cls-3" d="M387.09,213.92a4.47,4.47,0,0,0-3.59,1.07,4.89,4.89,0,0,0,3.32,2,4.47,4.47,0,0,0,3.59-1.07A4.89,4.89,0,0,0,387.09,213.92Z"/><path class="cls-3" d="M384.48,218.16a4.47,4.47,0,0,0-3.59,1.07,4.89,4.89,0,0,0,3.32,2,4.47,4.47,0,0,0,3.59-1.07A4.89,4.89,0,0,0,384.48,218.16Z"/><path class="cls-3" d="M384.69,211.56a5.2,5.2,0,0,0-1.46-3.37,4.52,4.52,0,0,0-1.08,3.32,5.2,5.2,0,0,0,1.46,3.37A4.52,4.52,0,0,0,384.69,211.56Z"/><path class="cls-3" d="M382,215.94a5.22,5.22,0,0,0-1.41-3.4,4.49,4.49,0,0,0-1.13,3.3,5.22,5.22,0,0,0,1.41,3.4A4.5,4.5,0,0,0,382,215.94Z"/><path class="cls-3" d="M380,222.54a1.84,1.84,0,0,0-1.59-.07,2.11,2.11,0,0,0,1,1.31,1.84,1.84,0,0,0,1.59.07A2.1,2.1,0,0,0,380,222.54Z"/><path class="cls-2" d="M350.78,224s-5.76-12.12-3.84-14.82c2.66-3.74,6,7.73,6.13,6.72,1.52-9.52,1.21-21.52,8.34-23.34,4.05-1-.27,9,.24,11.54s7.25-6.62,11.4-11.49,6.7-2.18,4.29,3.72c-2.33,5.71-10.76,12.4-8.87,13s12.47-7.38,14.07-4.45c2,3.59-14.35,9.94-12.71,10.65s9.4-2.65,9.4.21-10.73,3.58-10.45,4.82c.45,2,7.19-3.13,7.72-.35s-9.15,3.06-8.81,5.28c.19,1.28,2.64-.06,3.08,1.7,1,4-14.26,9.62-14.26,9.62Z"/><path class="cls-4" d="M356.49,236.69s5.93-9.47,8.84-11.29c3.1-1.94.82,3.74.82,3.74s6.26-7.73,8.06-6.21a2.3,2.3,0,0,1,.22,3.33s5.71-1.81,6.78.28c1.64,3.21-7.76,6.07-7.76,6.07s4.06-.12,3.35,2.08C375.73,238,356.49,236.69,356.49,236.69Z"/><path class="cls-3" d="M381.21,226.55c-1.07-2.09-6.78-.28-6.78-.28a2.3,2.3,0,0,0-.22-3.33c-1.81-1.51-6.84,3.21-6.84,3.21s.47-3.83-3.32-.39c-2.71,2.45-7.55,10.95-7.55,10.95Z"/><path class="cls-3" d="M338.61,226.2c-2.32,1.08-1.69,3.77-1.69,3.77s-6.29-4.89-8.64-2-1.12,8.45,1.64,9.36,26.73.27,26.73.27S340.7,225.22,338.61,226.2Z"/><path class="cls-4" d="M350.78,216.21l-.29-.17c4.43-7.86,5.31-16.88,5.28-23.06a60.06,60.06,0,0,0-1.16-11.67l.33-.12a60.44,60.44,0,0,1,1.17,11.74C356.15,199.17,355.26,208.27,350.78,216.21Z"/><path class="cls-4" d="M353.56,180.21a4.6,4.6,0,0,0,1.59,3.41,6.74,6.74,0,0,0,1.12-4.14,4.6,4.6,0,0,0-1.59-3.41A6.74,6.74,0,0,0,353.56,180.21Z"/><path class="cls-4" d="M356.48,183.41a6.59,6.59,0,0,0-.77,4.19,5.82,5.82,0,0,0,3-2.78,6.59,6.59,0,0,0,.77-4.19A5.82,5.82,0,0,0,356.48,183.41Z"/><path class="cls-4" d="M358.12,187.37a6.62,6.62,0,0,0-2.26,3.62,4.33,4.33,0,0,0,3.53-1,6.62,6.62,0,0,0,2.26-3.62A4.33,4.33,0,0,0,358.12,187.37Z"/><path class="cls-4" d="M357,194.55a2.76,2.76,0,0,0-1,1.45,1.77,1.77,0,0,0,1.5-.32,2.76,2.76,0,0,0,1-1.45A1.77,1.77,0,0,0,357,194.55Z"/><path class="cls-4" d="M356.79,197.2a2.76,2.76,0,0,0-1,1.45,1.77,1.77,0,0,0,1.5-.32,2.76,2.76,0,0,0,1-1.45A1.77,1.77,0,0,0,356.79,197.2Z"/><path class="cls-4" d="M353.85,186.75a3.44,3.44,0,0,0-3.15.13,3.66,3.66,0,0,0,2,2.56,3.44,3.44,0,0,0,3.15-.13A3.66,3.66,0,0,0,353.85,186.75Z"/><path class="cls-4" d="M353.93,190.71a3.44,3.44,0,0,0-3.15.13,3.66,3.66,0,0,0,2,2.56,3.44,3.44,0,0,0,3.15-.13A3.66,3.66,0,0,0,353.93,190.71Z"/><path class="cls-4" d="M354.52,196.35a2.24,2.24,0,0,0-2,.09,2.38,2.38,0,0,0,1.27,1.67,2.24,2.24,0,0,0,2-.09A2.38,2.38,0,0,0,354.52,196.35Z"/><path class="cls-4" d="M356.65,237.54s-10.48-2.15-12.76-4.24-1.27-2.91-1.27-2.91-4-3.17-4-5.24,2.69-1,2.69-1-4.45-5.7-3.39-6.79c2-2,7.1,3.91,7.1,3.91s-1.53-2.82.08-3.27c2.43-.68,4.21,6.28,4.21,6.28s-.45-2.75,1.22-2.38C353.57,222.53,356.65,237.54,356.65,237.54Z"/><rect class="cls-5" x="233.33" y="117.47" width="2.68" height="119.36"/><path class="cls-6" d="M152.77,113.59a9,9,0,0,0,18,0Z"/><path class="cls-6" d="M188.69,113.59a9,9,0,0,0,18,0Z"/><path class="cls-6" d="M224.61,113.59s0,.06,0,.1a9,9,0,1,0,18,0s0-.07,0-.1Z"/><path class="cls-7" d="M170.73,113.59a9,9,0,0,0,18,0Z"/><path class="cls-7" d="M206.65,113.59a9,9,0,0,0,18,0Z"/><path class="cls-7" d="M242.58,113.59a9,9,0,0,0,18,0Z"/><polygon class="cls-5" points="161.75 78.77 260.53 113.59 161.75 113.59 161.75 78.77"/><rect class="cls-8" x="24.47" y="51.5" width="137.82" height="186.65"/><rect class="cls-9" x="67.55" y="88.93" width="36.14" height="98.52"/><rect class="cls-10" x="38.35" y="122.12" width="94.53" height="32.14" transform="translate(223.81 52.57) rotate(90)"/><rect class="cls-9" x="27.98" y="88.93" width="36.14" height="98.52"/><rect class="cls-10" x="-1.21" y="122.12" width="94.53" height="32.14" transform="translate(184.24 92.14) rotate(90)"/><rect class="cls-9" x="107.8" y="88.93" width="36.14" height="98.52"/><rect class="cls-10" x="78.6" y="122.12" width="94.53" height="32.14" transform="translate(264.06 12.32) rotate(90)"/><rect class="cls-5" x="24.47" y="51.5" width="139.3" height="5.29"/><path class="cls-11" d="M163.29,187.2h0a2.87,2.87,0,0,1,2.87,2.87v46.79a0,0,0,0,1,0,0h-5.73a0,0,0,0,1,0,0V190.07a2.87,2.87,0,0,1,2.87-2.87Z"/><path class="cls-11" d="M175.19,187.2h0a2.87,2.87,0,0,1,2.87,2.87v46.79a0,0,0,0,1,0,0h-5.73a0,0,0,0,1,0,0V190.07A2.87,2.87,0,0,1,175.19,187.2Z"/><path class="cls-11" d="M185.9,187.2h0a2.87,2.87,0,0,1,2.87,2.87v46.79a0,0,0,0,1,0,0H183a0,0,0,0,1,0,0V190.07a2.87,2.87,0,0,1,2.87-2.87Z"/><rect class="cls-11" x="162.49" y="199.67" width="24.5" height="2.74"/><path class="cls-11" d="M19.05,187.2h0a2.87,2.87,0,0,1,2.87,2.87v46.79a0,0,0,0,1,0,0H16.19a0,0,0,0,1,0,0V190.07a2.87,2.87,0,0,1,2.87-2.87Z"/><path class="cls-11" d="M31,187.2h0a2.87,2.87,0,0,1,2.87,2.87v46.79a0,0,0,0,1,0,0H28.09a0,0,0,0,1,0,0V190.07A2.87,2.87,0,0,1,31,187.2Z"/><path class="cls-11" d="M41.66,187.2h0a2.87,2.87,0,0,1,2.87,2.87v46.79a0,0,0,0,1,0,0H38.8a0,0,0,0,1,0,0V190.07A2.87,2.87,0,0,1,41.66,187.2Z"/><rect class="cls-11" x="18.26" y="199.67" width="24.5" height="2.74"/><path class="cls-2" d="M162.53,227.57a13.13,13.13,0,0,0,.18-2.19c0-8.3-7.77-15-17.37-15s-17.37,6.72-17.37,15a13.14,13.14,0,0,0,.18,2.19Z"/><path class="cls-4" d="M182.18,223.87a26,26,0,0,0,.18-3.09c0-11.7-7.77-21.18-17.37-21.18s-17.37,9.48-17.37,21.18a26,26,0,0,0,.18,3.09Z"/><path class="cls-4" d="M175.82,236.86a13.14,13.14,0,0,1-.18-2.19c0-8.3,7.77-15,17.37-15s17.37,6.72,17.37,15a13.13,13.13,0,0,1-.18,2.19Z"/><path class="cls-2" d="M148,236.86a20.56,20.56,0,0,1-.23-3.09c0-11.7,9.86-21.18,22-21.18s22,9.48,22,21.18a20.56,20.56,0,0,1-.23,3.09Z"/><path class="cls-4" d="M164.93,212.58a19,19,0,0,0-15.09,7.73,25,25,0,0,0-5.77-.67c-10.79,0-19.53,6.72-19.53,15a11.72,11.72,0,0,0,.21,2.19h59.51a23.12,23.12,0,0,0,.21-3.09C184.47,222.07,175.72,212.58,164.93,212.58Z"/><path class="cls-2" d="M84.45,229.3a20.45,20.45,0,0,0,.11-2.09c0-7.9-4.49-14.3-10-14.3s-10,6.4-10,14.3a20.46,20.46,0,0,0,.11,2.09Z"/><path class="cls-4" d="M95.81,225.79q.1-1.44.11-2.94c0-11.14-4.49-20.17-10-20.17s-10,9-10,20.17q0,1.5.11,2.94Z"/><path class="cls-4" d="M92.14,238.15a20.45,20.45,0,0,1-.11-2.09c0-7.9,4.49-14.3,10-14.3s10,6.4,10,14.3a20.45,20.45,0,0,1-.11,2.09Z"/><path class="cls-2" d="M76.08,238.15q-.13-1.44-.13-2.94c0-11.14,5.7-20.17,12.72-20.17s12.72,9,12.72,20.17q0,1.5-.13,2.94Z"/><path class="cls-4" d="M85.85,215c-3.51,0-6.65,2.87-8.72,7.36a9.12,9.12,0,0,0-3.34-.63c-6.24,0-11.29,6.4-11.29,14.3a18.21,18.21,0,0,0,.12,2.09H97q.12-1.44.12-2.94C97.14,224.06,92.08,215,85.85,215Z"/><path class="cls-2" d="M46.1,206.46c3.52-5.49,4.17-12.12,4.1-16.72a43,43,0,0,0-1-8.76l.25-.09a43.25,43.25,0,0,1,1,8.82c.07,4.64-.59,11.34-4.15,16.9Z"/><path class="cls-2" d="M48.33,180.06a3.75,3.75,0,0,0,1.31,2.66,4.35,4.35,0,0,0,.87-3,3.75,3.75,0,0,0-1.31-2.66A4.35,4.35,0,0,0,48.33,180.06Z"/><path class="cls-2" d="M50.71,182.67a4.33,4.33,0,0,0-.59,3.06,4,4,0,0,0,2.39-1.83,4.33,4.33,0,0,0,.59-3.06A4,4,0,0,0,50.71,182.67Z"/><path class="cls-2" d="M52.05,185.74a4.24,4.24,0,0,0-1.8,2.51,3.48,3.48,0,0,0,2.84-.5,4.24,4.24,0,0,0,1.8-2.51A3.48,3.48,0,0,0,52.05,185.74Z"/><path class="cls-2" d="M51.64,190a3.09,3.09,0,0,0-1.31,2.2,2.47,2.47,0,0,0,2.36-.19,3.09,3.09,0,0,0,1.31-2.2A2.47,2.47,0,0,0,51.64,190Z"/><path class="cls-2" d="M48.61,184.95a3,3,0,0,0-2.54-.15,3.19,3.19,0,0,0,1.59,2.06,3,3,0,0,0,2.54.15A3.19,3.19,0,0,0,48.61,184.95Z"/><path class="cls-2" d="M48.7,187.9a3,3,0,0,0-2.54-.15,3.19,3.19,0,0,0,1.59,2.06,3,3,0,0,0,2.54.15A3.19,3.19,0,0,0,48.7,187.9Z"/><path class="cls-2" d="M51.11,194.7a1.6,1.6,0,0,0-1,.78,1.32,1.32,0,0,0,1.16.27,1.6,1.6,0,0,0,1-.78A1.32,1.32,0,0,0,51.11,194.7Z"/><path class="cls-2" d="M47.55,210.34c8-1.92,14.18-7.87,17.91-12.53a53.43,53.43,0,0,0,6.24-9.75l.33.17a53.8,53.8,0,0,1-6.28,9.82c-3.77,4.7-10,10.71-18.11,12.66Z"/><path class="cls-2" d="M71.59,186.28a5.32,5.32,0,0,0-.89,4,4.88,4.88,0,0,0,3.34-2.1,5.32,5.32,0,0,0,.89-4A4.88,4.88,0,0,0,71.59,186.28Z"/><path class="cls-2" d="M71.81,191.28a4.93,4.93,0,0,0-3.11,2.45,4.87,4.87,0,0,0,3.9.59,4.93,4.93,0,0,0,3.11-2.45A4.87,4.87,0,0,0,71.81,191.28Z"/><path class="cls-2" d="M70.61,195.7a4.81,4.81,0,0,0-3.87.69A5.12,5.12,0,0,0,70,198.75a4.81,4.81,0,0,0,3.87-.69A5.13,5.13,0,0,0,70.61,195.7Z"/><path class="cls-2" d="M67.41,199.71a4.81,4.81,0,0,0-3.87.69,5.13,5.13,0,0,0,3.25,2.37,4.81,4.81,0,0,0,3.87-.69A5.13,5.13,0,0,0,67.41,199.71Z"/><path class="cls-2" d="M68.37,193a5.22,5.22,0,0,0-1.15-3.58,4.56,4.56,0,0,0-1.5,3.26,5.22,5.22,0,0,0,1.15,3.58A4.56,4.56,0,0,0,68.37,193Z"/><path class="cls-2" d="M65,197.19a5.23,5.23,0,0,0-1.09-3.6,4.54,4.54,0,0,0-1.55,3.23,5.23,5.23,0,0,0,1.09,3.6A4.54,4.54,0,0,0,65,197.19Z"/><path class="cls-2" d="M62.26,203.68a2,2,0,0,0-1.66-.25,2.14,2.14,0,0,0,.94,1.45,2,2,0,0,0,1.66.25A2.14,2.14,0,0,0,62.26,203.68Z"/><path class="cls-2" d="M26.25,221.71l-.35,0c.5-9.2-2.88-17.86-5.8-23.5A61.18,61.18,0,0,0,13.57,188l.26-.26A61.57,61.57,0,0,1,20.41,198C23.35,203.67,26.76,212.41,26.25,221.71Z"/><path class="cls-2" d="M12.06,187.49a4.82,4.82,0,0,0,3.09,2.4,6.72,6.72,0,0,0-.88-4.3,4.82,4.82,0,0,0-3.09-2.4A6.72,6.72,0,0,0,12.06,187.49Z"/><path class="cls-2" d="M16.31,189.1a6.6,6.6,0,0,0,1.24,4.18,5.86,5.86,0,0,0,1.52-3.9,6.6,6.6,0,0,0-1.24-4.18A5.86,5.86,0,0,0,16.31,189.1Z"/><path class="cls-2" d="M19.7,192a6.59,6.59,0,0,0-.44,4.33,4.51,4.51,0,0,0,2.84-2.56,6.59,6.59,0,0,0,.44-4.33A4.51,4.51,0,0,0,19.7,192Z"/><path class="cls-2" d="M22,199a2.75,2.75,0,0,0-.31,1.8,1.86,1.86,0,0,0,1.26-1,2.75,2.75,0,0,0,.31-1.8A1.86,1.86,0,0,0,22,199Z"/><path class="cls-2" d="M23,201.58a2.75,2.75,0,0,0-.31,1.8,1.86,1.86,0,0,0,1.26-1,2.75,2.75,0,0,0,.31-1.8A1.86,1.86,0,0,0,23,201.58Z"/><path class="cls-2" d="M15.39,193.35a3.65,3.65,0,0,0-2.9,1.55,3.89,3.89,0,0,0,3,1.46,3.65,3.65,0,0,0,2.9-1.55A3.89,3.89,0,0,0,15.39,193.35Z"/><path class="cls-2" d="M17.32,196.93a3.65,3.65,0,0,0-2.9,1.55,3.89,3.89,0,0,0,3,1.46,3.65,3.65,0,0,0,2.9-1.55A3.89,3.89,0,0,0,17.32,196.93Z"/><path class="cls-2" d="M20.5,201.82a2.37,2.37,0,0,0-1.89,1,2.53,2.53,0,0,0,2,1,2.37,2.37,0,0,0,1.89-1A2.53,2.53,0,0,0,20.5,201.82Z"/><path class="cls-2" d="M56.25,236.79c0-1.53-9.25.28-10-1.81s7.92-2.21,7.92-5-4.43-.84-7-.84,5.13-1.21,5.13-2.21-2.71-.48-2.71-1.54,14.23-1.86,12.57-4.46-9.32.76-11.42-.59,11.23-2.81,11.55-4.81-9.82,1.71-11.26.27,16-6.6,15.32-10.4-13.25,4.86-16.38,3.93,15.78-14.26,11.39-19.45-12.79,17.19-15.65,16.39,3.59-14.14.66-16.46S35,208.58,34.47,212.91s-1.6-9.32-6.19-10.92-.13,8.46-.93,11.52-4.53-7.86-9.56-7.06,9.09,10.79,7.69,13.72-12.3-9.78-15.72-6.37S22.9,226.71,22,229.3s-10.83-1.85-13.69,1S19,235,20.76,235s8.65,2.25,2,1.81S56.25,238.32,56.25,236.79Z"/><path class="cls-4" d="M29.89,238.56s-11.14.6-14.38-1.44-.68-3.63-.68-3.63-10.3-.22-10.27-2.66a2.31,2.31,0,0,1,2.52-2.3s-5.2-3.53-4.23-5.74c1.49-3.38,10,2.51,10,2.51s-2.78-3.3-.53-4.07C18.42,219.11,29.89,238.56,29.89,238.56Z"/><path class="cls-3" d="M2.84,222.79c-1,2.2,4.23,5.74,4.23,5.74s-3.75,0-3.14,2.32S14,234,14,234s-3.29.64-.05,2.69,16,1.87,16,1.87Z"/><path class="cls-7" d="M122.32,177.79a3.72,3.72,0,0,0-1.89-.25,30,30,0,0,1-2.23-2.82s-5.9-8-6.21-8.47l-1.86-10.38-5.59,0s2.34,11.21,2.57,11.76,9.58,10.35,10.38,11.24c0,0,.51,1.45.87,2.34A7.32,7.32,0,0,0,119.6,183a7.68,7.68,0,0,0,1.44,1.51c.78.63.37-.35.37-.35s-1.2-1.44-1.06-1.52.71.76,1.56,1.46l.64.52c.53.42,1,.2.5-.34a6.11,6.11,0,0,0-.69-.68,5,5,0,0,1-.6-.68,6.63,6.63,0,0,1-.62-.71s0-.15.26,0a15.45,15.45,0,0,0,1.23,1.12c.26.16.77.54.77.54a5.68,5.68,0,0,0,.94.37c.26-.25-.25-.71-.64-.89a4.12,4.12,0,0,0-.72-.62s-.91-1-.75-1.18a14.13,14.13,0,0,1,1.44.94c.68.41,1.44.71,1.55.58s-.5-.76-.5-.76-.51-.35-.67-.48-.7-.66-.7-.66-1.71-1.84-1.55-2a1.36,1.36,0,0,1,.84-.22c.15.07.34.36.49.43a.46.46,0,0,0,.55-.15c.12-.18-.43-.83-.43-.83A2.48,2.48,0,0,0,122.32,177.79Z"/><path class="cls-12" d="M113,229.86s-.2,3.58-.2,3.59c-.07.45-.36,1.58-.36,2,0,1.55,6.78-1.32,5.26-2-.14-.06-.86-.53-.9-1.06-.07-.81-.25-2.46-.25-2.46Z"/><path class="cls-13" d="M117.72,233.42a24.06,24.06,0,0,1-2.41.59c-.82.12-1.89-.88-2.47-.61s-.57,3.22-.57,3.22,8.5.51,10.9-.28C124.13,236,121,234.52,117.72,233.42Z"/><path class="cls-12" d="M98.09,230.2s-.2,3.58-.2,3.59c-.07.45-.36,1.58-.36,2,0,1.55,6.78-1.32,5.26-2-.14-.06-1.07-.88-1.12-1.41-.07-.81,0-2.11,0-2.11Z"/><path class="cls-13" d="M102.78,233.76a24.1,24.1,0,0,1-2.41.59c-.82.12-1.89-.88-2.47-.61s-.66,3-.66,3,9.09.67,11.22,0C109.43,236.47,106,234.87,102.78,233.76Z"/><path class="cls-14" d="M108.84,178.5l2.87,1.26,6,29.34-.24,22-4.84.11s-2.25-19.24-2.25-20.73S100,184.39,100,184.39Z"/><path class="cls-15" d="M106.63,180.12s-2.11,22.61-2.11,26.42-1.71,25.14-1.71,25.14l-4.85,0s-.35-6.5-.87-16.06c-.08-1.5.1-4.52,0-6.07-.75-11.15-2.25-21.65-1.53-25.81a8.34,8.34,0,0,1,.75-2.86C99.48,177.49,106.63,180.12,106.63,180.12Z"/><path class="cls-6" d="M112.54,162.28l-5.87-.4s-.29-5.34-.29-7.89c0-3.09-.92-7.65-.56-7.56a7.12,7.12,0,0,1,3.58,2.35C112.22,152.77,112.54,162.28,112.54,162.28Z"/><path class="cls-5" d="M98.65,146.31s-3.34.47-4.22,1.13a12,12,0,0,0-2.09,2.4s4.11,19.77,4.11,23.1c0,2.57-.89,8.89-.89,8.89s12.41.8,17.11-1.09c0,0-1.48-7.52-1.48-9.49s-1.78-19.92-2.18-21.17-1-3.18-3.3-3.68A32.81,32.81,0,0,0,98.65,146.31Z"/><path class="cls-12" d="M99.56,141l-.83,5.52s3,6.57,4.83,6c1.51-.48.58-6.29.58-6.29a16.11,16.11,0,0,1-.58-4.69C103.81,140,99.56,141,99.56,141Z"/><path class="cls-5" d="M103.56,141.53c.25-1.56-4-.54-4-.54l-.07.46a2.55,2.55,0,0,0,.46.77,5.57,5.57,0,0,0,3.72,1.7A8.62,8.62,0,0,1,103.56,141.53Z"/><path class="cls-12" d="M98.86,133.18c-.12,0-1,6.29.64,8s4.72,2.31,5.84.94,1.17-8.32-1.31-10.12S98.86,133.18,98.86,133.18Z"/><path class="cls-16" d="M103.07,128.64a6.9,6.9,0,0,0-3.63,2.09c-.87.1-2.06.59-3.29,2.65a5.17,5.17,0,0,0,1.36,6.69,4,4,0,0,1,1.73,3l.27-.83a4.63,4.63,0,0,0,.22-1.93,3.81,3.81,0,0,0-.28-1.16c-.42-.92.91-1.53,1.28-2.29.29-.59.3-1.93.75-2.9l.54-.74a3.4,3.4,0,0,1,2.46-.7C105.72,132.77,105.54,128.14,103.07,128.64Z"/><ellipse class="cls-12" cx="99.86" cy="137.98" rx="0.8" ry="1.4" transform="matrix(1, -0.02, 0.02, 1, -2.37, 1.75)"/><path class="cls-13" d="M103.23,172h0a.79.79,0,0,0,1,0l15.29-12.36-.12-.12-16.11,11.22A.79.79,0,0,0,103.23,172Z"/><path class="cls-13" d="M122.17,156s-3.37,3.14-2.79,3.71,4.46-2.61,4.46-2.61-3.27,2.14-3.59,1.82S122.17,156,122.17,156Z"/><path class="cls-7" d="M120.93,152.7a1.39,1.39,0,0,0-1.48,1.71,1.57,1.57,0,0,0,.86,1c1.65.85,3.53,2.43,4,4.16s3.13,1.2,2.46-1.13C126.18,156.37,123.89,153,120.93,152.7Z"/><path class="cls-12" d="M111.95,166c-.05-.28-1.6-.74-2.58-.57s-4.62,1.52-4.62,1.52l-10.62.27s.14-9.31.85-10.06-.28-8.31-1.41-8.27c-3.52.1-4.12,11.77-4.12,15.27s.7,8.06,1.4,8.24S104.28,170,104.28,170l2.94.11a20.64,20.64,0,0,0,3.33-1.57A7.89,7.89,0,0,0,111.95,166Z"/><path class="cls-5" d="M95,147.13a8.53,8.53,0,0,0-4,2.77c-1.84,2.11-3,13.9-3,13.9l6.35,1,.51-5.7,1.7-2.61Z"/><path class="cls-1" d="M116.54,198l-12.37,2.43a3.87,3.87,0,0,1-4.58-3.49L98,177.76l13.86-1.57Z"/><path class="cls-1" d="M95.83,177.14l-.33,1.34,5.5.66s.72-1.81.27-1.75l-3.3.37Z"/><path class="cls-11" d="M358.11,168.65l.06-1.6-1.28-1a.22.22,0,0,1,.07-.39l1.53-.44.51-1.51a.22.22,0,0,1,.39-.05l.89,1.32,1.6,0a.22.22,0,0,1,.17.35l-1,1.26.48,1.52a.22.22,0,0,1-.28.27l-1.5-.55-1.3.92A.22.22,0,0,1,358.11,168.65Z"/><path class="cls-11" d="M221.29,155.79l1.27-1.17-.25-1.71a.24.24,0,0,1,.35-.24l1.51.84,1.55-.76a.24.24,0,0,1,.34.26l-.34,1.69,1.2,1.24a.24.24,0,0,1-.14.4l-1.71.2-.8,1.53a.24.24,0,0,1-.43,0l-.72-1.57-1.7-.29A.24.24,0,0,1,221.29,155.79Z"/><path class="cls-11" d="M297.06,157.66l-.39-1.94-1.81-.78a.27.27,0,0,1,0-.49l1.72-1,.18-2a.27.27,0,0,1,.45-.17l1.45,1.34,1.93-.43a.27.27,0,0,1,.31.38l-.83,1.79,1,1.7a.27.27,0,0,1-.26.41l-2-.23-1.3,1.48A.27.27,0,0,1,297.06,157.66Z"/><path class="cls-11" d="M171.35,131.33l-.23-1.16-1.09-.47a.16.16,0,0,1,0-.29l1-.58.11-1.18a.16.16,0,0,1,.27-.1l.87.8,1.15-.26a.16.16,0,0,1,.18.23l-.49,1.07.6,1a.16.16,0,0,1-.16.24l-1.17-.14-.78.89A.16.16,0,0,1,171.35,131.33Z"/><circle class="cls-11" cx="217.24" cy="137.25" r="2.33" transform="translate(-33.42 193.81) rotate(-45)"/><path class="cls-11" d="M221.26,131.59a15.56,15.56,0,0,0-1.25,1.69.53.53,0,0,0,.84.64,16.69,16.69,0,0,0,1.38-1.78.56.56,0,0,0-.21-.75.57.57,0,0,0-.75.21Z"/><path class="cls-11" d="M216.46,130.47a23.16,23.16,0,0,1,.24,2.65.53.53,0,0,0,1.07,0,10.15,10.15,0,0,0-.21-2.94.57.57,0,0,0-.69-.4.58.58,0,0,0-.4.69Z"/><path class="cls-11" d="M214.27,134.32a.4.4,0,0,0,.47-.28c.19-.51-.27-1-.59-1.34a5,5,0,0,0-1.16-.91.57.57,0,0,0-.56,1C213.67,133.49,213.63,134.2,214.27,134.32Z"/><path class="cls-11" d="M211.34,137.85c1.2-.14,1.81.06,2.17-.37a.47.47,0,0,0-.1-.73c-.3-.22-.72-.12-1.07-.1s-.67,0-1,.07a.58.58,0,0,0-.56.56.57.57,0,0,0,.56.56Z"/><path class="cls-11" d="M212.94,140a2.48,2.48,0,0,0-.47,1.13.49.49,0,0,0,.73.42c.34-.24.4-.41.73-1a.57.57,0,0,0-1-.56Z"/><path class="cls-11" d="M215.92,141.16c.08,1.23.05,1.51.34,1.78a.47.47,0,0,0,.65,0c.29-.38.21-.67.12-1.78a.57.57,0,0,0-.55-.55.56.56,0,0,0-.55.55Z"/><path class="cls-11" d="M221.07,141.89a.52.52,0,0,0,.58-.75c-.22-.34-.37-.41-1.92-1.64a.58.58,0,0,0-.8,0,.57.57,0,0,0,0,.8C220.53,141.58,220.66,141.73,221.07,141.89Z"/><path class="cls-11" d="M221.47,137.51c1.48.13,1.44.36,2.19.27a.48.48,0,0,0,.22-.8,2,2,0,0,0-1.17-.44c-.41-.08-.82-.13-1.23-.17a.57.57,0,0,0-.57.57.58.58,0,0,0,.57.57Z"/><path class="cls-7" d="M316.33,153.34a1.33,1.33,0,0,1,1.26-.21,1.35,1.35,0,0,1,.69,1.71c-.24.82-1.13,1.59-2.94,1.88-1.31-1.4-1.63-2.59-1.38-3.41a1.18,1.18,0,0,1,1.47-.94A1.52,1.52,0,0,1,316.33,153.34Z"/><path class="cls-7" d="M310.94,151.79a13.2,13.2,0,0,0,1.56.79c.16.07.42.24.59.12a.24.24,0,0,0,.1-.28c-.06-.21-.33-.25-.49-.32a15.55,15.55,0,0,1-1.59-.78c-.1-.06-.24,0-.28.15a.26.26,0,0,0,.11.32Z"/><path class="cls-7" d="M318.69,156.83l.71.31a2,2,0,0,0,.72.26.23.23,0,0,0,.14-.39,2,2,0,0,0-.69-.35l-.71-.3c-.26-.1-.42.36-.17.47Z"/><path class="cls-7" d="M311.85,156.46a2.58,2.58,0,0,1,1.29-.62.21.21,0,0,0,0-.4,1.89,1.89,0,0,0-1.55.64c-.22.21,0,.59.26.38Z"/><path class="cls-7" d="M314.06,159.14a2.5,2.5,0,0,1,.41-.81c.11-.14.56-.49.31-.7s-.55.26-.69.46a3,3,0,0,0-.42.87c-.09.31.3.49.39.18Z"/><path class="cls-7" d="M316.68,158.2l.28.51c.09.17.16.39.35.42s.18-.08.21-.19-.12-.41-.21-.56l-.28-.51a.19.19,0,0,0-.3,0,.3.3,0,0,0,0,.36Z"/><path class="cls-7" d="M315.3,150.89c0-1.67,0-1.68,0-1.84a.18.18,0,0,0-.34,0c-.06.18,0,.15,0,1.91a.22.22,0,0,0,.24.21.28.28,0,0,0,.19-.3Z"/><path class="cls-7" d="M317.47,151.8a4.17,4.17,0,0,0,.43-.68c.11-.23.31-.55.19-.8a.14.14,0,0,0-.15-.07c-.22.07-.29.41-.4.61a5,5,0,0,1-.4.64.28.28,0,0,0,0,.35.2.2,0,0,0,.3-.06Z"/><path class="cls-7" d="M320.43,153.34a.25.25,0,0,0,0-.3c-.14-.15-.42,0-.59,0a3.42,3.42,0,0,0-.58.2.29.29,0,0,0-.12.34.2.2,0,0,0,.28.12C320.13,153.4,320.25,153.58,320.43,153.34Z"/><path class="cls-4" d="M348.07,154.92a2.34,2.34,0,0,0,2.52,2.37,3.13,3.13,0,0,0,2.8-2.63,2.3,2.3,0,0,0-2.06-2.8,1.73,1.73,0,0,0-1.83,2.31c.28.87,1.07,1.19,1.47,1a.4.4,0,0,0-.08-.74.39.39,0,0,0-.39.17,1.14,1.14,0,0,1-.43-1.38,1.32,1.32,0,0,1,2-.49,2,2,0,0,1,.66,2.4,2.55,2.55,0,0,1-2.14,1.65,2,2,0,0,1-2.11-1.82A.19.19,0,0,0,348.07,154.92Z"/><polygon class="cls-11" points="328.87 154.51 327.14 154.12 326.99 155.29 326.43 155.22 326.66 153.43 328.38 153.82 328.53 152.44 330.11 152.77 330.46 151.37 331.01 151.51 330.52 153.44 329.03 153.12 328.87 154.51"/><polygon class="cls-11" points="242.33 152.57 241.46 150.59 240.2 151.29 239.86 150.69 241.78 149.61 242.65 151.58 244.12 150.73 244.94 152.52 246.57 151.85 246.83 152.49 244.59 153.41 243.81 151.71 242.33 152.57"/><path class="cls-16" d="M158.85,237a.56.56,0,0,1-.55-.45l-8.41-41.26a.56.56,0,1,1,1.1-.22l8.41,41.26a.56.56,0,0,1-.44.66Z"/><path class="cls-16" d="M128.69,237h-.12a.56.56,0,0,1-.42-.67l9.51-42.51a.56.56,0,1,1,1.09.24l-9.51,42.51A.56.56,0,0,1,128.69,237Z"/><path class="cls-5" d="M126.85,180.53a17.44,17.44,0,0,0,34.88,0Z"/><path class="cls-6" d="M158.87,180.53c-1.33,8.31-8.14,13.58-16.82,13.58-4.14,0-8.34-.36-11.33-2.77a17.44,17.44,0,0,0,31-10.81Z"/><path class="cls-6" d="M127.35,180.4h34.39a0,0,0,0,1,0,0v1.26a0,0,0,0,1,0,0H126.09a0,0,0,0,1,0,0v0A1.26,1.26,0,0,1,127.35,180.4Z"/><circle class="cls-13" cx="161.73" cy="180.24" r="1.71" transform="translate(-47.51 302.16) rotate(-78.33)"/><circle class="cls-16" cx="161.73" cy="180.24" r="1.11" transform="translate(-47.5 302.17) rotate(-78.33)"/><rect class="cls-16" x="133.45" y="213.68" width="21.2" height="2.15"/><rect class="cls-7" x="130.71" y="176.74" width="15.83" height="2.16" rx="1.08" ry="1.08"/><rect class="cls-17" x="134.76" y="176.74" width="11.77" height="2.16" rx="1.08" ry="1.08"/><rect class="cls-17" x="148.16" y="176.74" width="9.14" height="2.1" rx="1.05" ry="1.05"/><rect class="cls-13" x="128.88" y="178.82" width="30.54" height="1.59" rx="0.79" ry="0.79"/><path class="cls-4" d="M275.66,154a2.1,2.1,0,0,0,2.05,1.09c1.39-.18,2-3.69,2.43-4.67s.91-1,.91-1-4.67-1.81-6.65,1C273.21,152.14,274.15,153.29,275.66,154Z"/><path class="cls-2" d="M279.18,151.11a4.3,4.3,0,0,1-1.41.65,28.92,28.92,0,0,1,2.45-2c-.47.27-1,.63-1.64,1.05-.27-.37.26-1.08.26-1.09a0,0,0,0,0-.07-.06s-.57.77-.26,1.2c-.27.19-.54.39-.81.6-.48-.67.13-1.8.14-1.81a0,0,0,0,0,0-.06,0,0,0,0,0-.06,0c0,.05-.64,1.2-.13,1.91-.28.22-.55.45-.81.69-.71-.76-.2-2.27-.19-2.29a0,0,0,0,0-.09,0c0,.07-.54,1.58.21,2.38a8.5,8.5,0,0,0-.84.89,2.78,2.78,0,0,1-.7-2.13,0,0,0,0,0,0-.05,0,0,0,0,0-.05,0,2.82,2.82,0,0,0,.74,2.22,4.53,4.53,0,0,0-.26.38,1.52,1.52,0,0,1-2,.8.18.18,0,0,0-.23.08c-.19.35.78.55,1.28.46.84-.16,1.11-.71,1.54-1.36a2.26,2.26,0,0,0,2-.06h0a0,0,0,0,0,0-.06,0,0,0,0,0-.06,0,2.17,2.17,0,0,1-1.93.06,6.27,6.27,0,0,1,.57-.73c.72.25,1.8-.48,1.85-.51h0a0,0,0,0,0,0-.06,0,0,0,0,0-.06,0s-1,.72-1.73.52c.26-.29.54-.58.84-.86a3.91,3.91,0,0,0,1.56-.67,0,0,0,0,0,0-.06A0,0,0,0,0,279.18,151.11Z"/><rect class="cls-11" x="47.74" y="61.98" width="18.08" height="6.93"/><rect class="cls-11" x="30.36" y="74.1" width="18.08" height="6.93"/><rect class="cls-11" x="54.72" y="72.91" width="18.5" height="5.86"/><rect class="cls-11" x="72.58" y="65.45" width="17.97" height="5.86"/><rect class="cls-11" x="142.41" y="83.07" width="14.61" height="5.24"/><rect class="cls-11" x="144.33" y="68.69" width="14.61" height="5.24"/><rect class="cls-11" x="83.24" y="81.03" width="14.61" height="5.24"/><path class="cls-8" d="M243.87,168.21c-5.15-.84-9.75,1-10.27,4.21a5,5,0,0,0,2.07,4.5l-2.86,4.33,5-2.91a14.4,14.4,0,0,0,4.18,1.34c5.15.84,9.75-1,10.27-4.21S249,169,243.87,168.21Z"/><circle class="cls-11" cx="242.58" cy="173.59" r="3.3" transform="translate(-16.35 25.49) rotate(-5.82)"/><path class="cls-18" d="M244.39,173.93a1.76,1.76,0,1,1-3.51.36Z"/><path class="cls-2" d="M200.65,167.74s-1.85-4.11-1.76-4.81.8-1,1.22-.25.57,1.68.88,1.37-.8-3.63.47-3.85.45,4.25.95,4.15.77-4.86,2.11-4.48-.88,4.83-.37,4.83,1.35-4.21,2.85-3.56-1.89,3.89-1.35,4.43,2.7-3.43,4.08-2.3-3.41,3.43-3.23,3.61,4.1-2.67,5-1.59-3,1.64-2.8,2,2.24-.23,2.11.47-4.36.68-4.36.68Z"/><path class="cls-16" d="M197.54,142.53c.44-2,.87-4-.29-6.21a5.64,5.64,0,0,0-4.44-3c-5.33-.63-4.19,4.34-11.63,5.42a16.7,16.7,0,0,0-6.39,1.81c-3.49,2.08-4.8,5.41-2.49,10.84,5.66,13.29,19.21,1.74,21.28-.61S197.26,143.82,197.54,142.53Z"/><path class="cls-12" d="M176.24,226.48s-.38,3.85-1.35,4.56-2.27,3.32-1.62,4.74a1.64,1.64,0,0,0,1.07.84,2.84,2.84,0,0,0,3.41-1.6,8.1,8.1,0,0,0,.67-2.94,10.62,10.62,0,0,1,1.12-4.72Z"/><path class="cls-12" d="M191.22,228.06a32.44,32.44,0,0,1,.06,5.15c-.13.68-.88,2.07-.54,2.7a1.71,1.71,0,0,0,.73.8l8.84.14c.48,0,.16-.3-.22-.59a17.84,17.84,0,0,0-3.18-1.76c-.13-.06-.61-.37-.79-.48a6.11,6.11,0,0,1-1.26-1.12c-.63-.71-.69-4.13-.69-4.13Z"/><path class="cls-16" d="M198.13,176.42s1.11,6.31.38,10.44-4.24,42.46-4.24,42.46l-3.9.22s-.82-16-.67-18.24a34.46,34.46,0,0,1,1.3-6l-.39-12.93,4.92-17Z"/><path class="cls-14" d="M186.67,175.09s-3.07,4.61-3.8,8.43.54,15.55-.87,20.55c-.76,2.71-3.65,6.89-4.09,10.39s-2.16,12.66-2.16,12.66l3.9.77L188.71,205l7.11-20.69,1.82-10.66Z"/><path class="cls-8" d="M189.16,148.85a7.73,7.73,0,0,0-4.3,2.05c-1.61,1.75,2.6,15.81,2.89,18s-2.4,7.42-2.4,7.42,10,1.86,12.78.05c0,0,.29-16,0-17.6s-2.73-8.06-3.31-8.69S189.16,148.85,189.16,148.85Z"/><path class="cls-12" d="M190.51,143.43l-.06.32a30.74,30.74,0,0,1-1.35,5.1c-.57,1.07,2,4.5,4.38,4.09.72-.12-.61-3.15-.55-3.47l.46-2.31.28-1.44.47-2.38Z"/><path class="cls-5" d="M190.45,143.75l.06-.32,3.64-.09-.47,2.38-.28,1.43a3.41,3.41,0,0,1-1.74-.87,4.58,4.58,0,0,1-1.31-2Z"/><path class="cls-12" d="M192.7,134.79a4.29,4.29,0,0,0-2.56,1.59c-1.07,1.39-2.23,5.67.44,8s5.3-.31,5.7-3.11S196.59,134.68,192.7,134.79Z"/><path class="cls-12" d="M197.05,140.59c-.17.67-.61,1.13-1,1s-.55-.75-.38-1.42.61-1.13,1-1S197.22,139.91,197.05,140.59Z"/><path class="cls-16" d="M193.15,134.72s-2.29,4.08-3.93,4.27-1.85,2.35-1.85,2.35.59-5,2.21-6A6,6,0,0,1,193.15,134.72Z"/><path class="cls-12" d="M189.76,140c.13.72-.13,1.39-.6,1.48s-.95-.41-1.08-1.14.13-1.39.6-1.48S189.63,139.23,189.76,140Z"/><path class="cls-16" d="M178,234.33a4.36,4.36,0,0,1-4.27-1.78,4.09,4.09,0,0,0-.47,3.23,2.57,2.57,0,0,0,4.18-.15A7.07,7.07,0,0,0,178,234.33Z"/><path class="cls-16" d="M196.12,234a8,8,0,0,1-5-.2,4,4,0,0,0-.4,2.1c.21.62.52.77.79.77,2.14.06,7.82.13,9.45.15a.27.27,0,0,0,.21-.44C200.73,235.94,196.3,234.13,196.12,234Z"/><path class="cls-11" d="M185.35,150.39s-1.29.61-2.42,3.25S181,165,181,165l5.47.48,1.5-3.38a10.69,10.69,0,0,0-1.11-10.64C186.27,150.65,185.72,150.16,185.35,150.39Z"/><path class="cls-7" d="M208.13,166.3h-9c-.73,0-1.32.33-1.32.73h0c0,.4.59.73,1.32.73h9c.73,0,1.32-.33,1.32-.73h0C209.45,166.63,208.86,166.3,208.13,166.3Z"/><path class="cls-7" d="M208.13,164.92h-9c-.73,0-1.32.33-1.32.73h0c0,.4.59.73,1.32.73h9c.73,0,1.32-.33,1.32-.73h0C209.45,165.25,208.86,164.92,208.13,164.92Z"/><path class="cls-6" d="M198.86,165.39l-3.68,1a1.91,1.91,0,1,0,3.68-1Z"/><path class="cls-11" d="M197.87,166.11a.09.09,0,0,0-.06-.11s-.2,0-.21,0,.11.1.16.12A.09.09,0,0,0,197.87,166.11Z"/><path class="cls-11" d="M198.37,165.91a.09.09,0,0,0-.1-.07c-.05,0-.18.08-.17.13s.14,0,.2,0A.09.09,0,0,0,198.37,165.91Z"/><path class="cls-11" d="M198,167a.09.09,0,0,0,0-.12s-.19-.07-.21,0,.07.13.12.16A.09.09,0,0,0,198,167Z"/><path class="cls-11" d="M197.61,166.91a.09.09,0,0,0,.06-.11c0-.05-.1-.17-.14-.16s0,.15,0,.2A.09.09,0,0,0,197.61,166.91Z"/><path class="cls-11" d="M197,167.18a.09.09,0,0,0,.06-.11c0-.05-.1-.17-.14-.16s0,.15,0,.2A.09.09,0,0,0,197,167.18Z"/><path class="cls-11" d="M196.86,166.78a.09.09,0,0,0,.11-.06s0-.2,0-.21-.11.11-.13.15A.09.09,0,0,0,196.86,166.78Z"/><path class="cls-11" d="M196.08,166.84a.09.09,0,0,0,.12,0s.09-.18.06-.21-.14.06-.17.09A.09.09,0,0,0,196.08,166.84Z"/><path class="cls-11" d="M196.15,166.52a.09.09,0,0,0,.12,0s.16-.12.15-.16-.15,0-.2,0A.09.09,0,0,0,196.15,166.52Z"/><path class="cls-16" d="M190.43,167.74h20.35a0,0,0,0,1,0,0v0a2,2,0,0,1-2,2H190.43a0,0,0,0,1,0,0v-2A0,0,0,0,1,190.43,167.74Z"/><path class="cls-12" d="M199.79,169.62a12.68,12.68,0,0,0,1.67-.5c.8-.24,1.92-1,2-.77s-.6.67-1.26,1c.2,0,.32,0,.27.09-.2.44-2.25,1.6-4.56,2s-16.59,1.44-16.58-.88c0-.85.57-3.67.77-5.49l4.15.36-.42,2.47a61.41,61.41,0,0,0,8.91,1.3c.67,0,1.38-.83,1.58-1,1.08-.74,2.48-1.67,3-1.45s-.63.75-1.11,1.33,2.57.87,4.58-.62.25,1-.57,1.24A14.87,14.87,0,0,0,199.79,169.62Z"/><path class="cls-5" d="M256.65,154.33l.06-1.73-1.39-1a.24.24,0,0,1,.08-.42l1.66-.47.55-1.64A.24.24,0,0,1,258,149l1,1.43,1.73,0a.24.24,0,0,1,.18.38l-1.06,1.36.52,1.65a.24.24,0,0,1-.31.29l-1.62-.59-1.41,1A.24.24,0,0,1,256.65,154.33Z"/><rect class="cls-11" x="19.08" y="45.75" width="148.68" height="5.74"/><path class="cls-11" d="M208.11,166.09s.94-.94-.23-1.37a1,1,0,0,0-1.45.69s-1.86-1.09-2.14.58,1.07,1.25,1.07,1.25-.83,1.55.49,1.55,1.23-1.06,1.23-1.06,1.3,1.16,1.85-.14A1,1,0,0,0,208.11,166.09Zm.35,1.32c-.44,1-1.48.11-1.48.11s.07.84-1,.84-.39-1.24-.39-1.24-1.08.34-.85-1,1.71-.46,1.71-.46a.82.82,0,0,1,1.16-.55c.93.35.19,1.09.19,1.09A.81.81,0,0,1,208.47,167.41Z"/><rect class="cls-2" x="13.92" y="236.69" width="383.37" height="2.31"/><path class="cls-13" d="M364.22,216.22c-2.75-3.64-6.42-5.64-10.33-5.64s-7.58,2-10.33,5.64a20.2,20.2,0,0,0-4.22,13.45c.13,1.77,1,7,1,7h1.56a34.17,34.17,0,0,1-1.11-7c-.57-9.6,5.87-17.44,13.09-17.44S367,220,367,229.67a22.46,22.46,0,0,1-1.12,7h1.56a24.51,24.51,0,0,0,1-7A22.34,22.34,0,0,0,364.22,216.22Z"/><path class="cls-13" d="M297.34,216.1c-2.75-3.56-6.42-5.52-10.33-5.52s-7.58,2-10.33,5.52a21.58,21.58,0,0,0-4.22,13.17,23.32,23.32,0,0,0,1.19,7.42h1.58a21.37,21.37,0,0,1-1.3-7.42c0-9.42,5.87-17.09,13.09-17.09s13.09,7.67,13.09,17.09a21.37,21.37,0,0,1-1.3,7.42h1.58a23.31,23.31,0,0,0,1.19-7.42A21.58,21.58,0,0,0,297.34,216.1Z"/><rect class="cls-16" x="356.07" y="203.58" width="3.44" height="6.97"/><polygon class="cls-13" points="367.27 205.19 295.22 204.73 294.95 191.34 370.51 191.04 367.27 205.19"/><rect class="cls-13" x="276.74" y="209.34" width="83.27" height="3.72"/><path class="cls-19" d="M314.45,194.9a3.14,3.14,0,0,1,1.43,1A24.9,24.9,0,0,0,319,195s8.63-2.68,9.09-2.85l4.18-8.92,3.56,2.74s-4.73,10-5.2,10.25-12.46,2.25-13.51,2.46c0,0-1.18.83-1.94,1.31a6.17,6.17,0,0,1-1.88.64,6.26,6.26,0,0,1-1.84.3c-.89,0,0-.5,0-.5s1.64-.39,1.6-.54-.92.16-1.9.19l-.73,0c-.6,0-.77-.44-.14-.58a4.93,4.93,0,0,1,.86-.12,4.13,4.13,0,0,0,.8-.17,5.44,5.44,0,0,0,.83-.18s.07-.13-.2-.13a12.33,12.33,0,0,1-1.48.13c-.27,0-.83,0-.83,0a4.73,4.73,0,0,1-.92-.22c0-.36.65-.48,1-.38a3.27,3.27,0,0,1,.85,0s1.21-.25,1.19-.47-3-.26-3-.62.9-.32.9-.32.55,0,.73,0,.85-.08.85-.08,2.22-.4,2.18-.6-.3-.66-.44-.69-.44.08-.58,0a.44.44,0,0,1-.29-.45c0-.22.77-.39.77-.39A2,2,0,0,1,314.45,194.9Z"/><path class="cls-14" d="M333.56,178.27c-.24,0-.89.23-1.84,2-1.22,2.3-3,9.23-3,9.23l5.32,2,.68-1.45,1.12-11.14S333.63,178.27,333.56,178.27Z"/><path class="cls-20" d="M315.56,197.29a1.8,1.8,0,0,1-1.58-1A1.13,1.13,0,0,0,315.56,197.29Z"/><path class="cls-4" d="M340.59,177.28a32.57,32.57,0,0,0-7,1s-1.28,11,1.15,19.33c.55,1.87-.45,7.75-.45,7.75l16.47-.43s-2.59-14-1.89-16.28.72-10.29.72-10.29l-3.54-.61A35.77,35.77,0,0,0,340.59,177.28Z"/><path class="cls-6" d="M336.84,204.07s-12.33-1.76-14.93-.3,5.78,8.53,5.78,8.53,7.16-.47,9.28-.46,8.51.54,12.23,0,3.3-6.86,2.6-7.64S336.84,204.07,336.84,204.07Z"/><path class="cls-12" d="M330,231.14a2.7,2.7,0,0,1-.41,2.3c-.81.9-4.07,1.7-4.51,2.19a1.39,1.39,0,0,0-.42.91l9.1,0,0-2.74-.36-2Z"/><path class="cls-15" d="M329,233.89s2.31,1,3.45.49,1.12-.68,1.44-.46.36,2.79.36,2.79H324c-.71,0-1.06-.57-.46-1a8.33,8.33,0,0,1,1.13-.63A32,32,0,0,1,329,233.89Z"/><path class="cls-5" d="M326.8,206.08c-.85-1.39-3-3.42-5.66-2s-1.88,5.74-.76,8.41,8.33,18.33,8.75,20.54l4.43-.42s-2.12-12.77-2.64-15.85A39.72,39.72,0,0,0,326.8,206.08Z"/><path class="cls-12" d="M343.34,228.76s-.36,4.18-1,5.34,0,3.12.07,3.39,1.41.66,3.59.42,2.14-.73,2-1.54-1.34-1.85-1.41-2.62a20.06,20.06,0,0,1,.67-3.55Z"/><path class="cls-15" d="M346.24,238.48c2.24-.24,2-1.34,1.79-2.17a7.39,7.39,0,0,0-1.14-1.72,3.75,3.75,0,0,1-1.5.73c-1,.3-2.4-.29-3.28-.66a10.76,10.76,0,0,0-.3,2.88C341.83,237.81,344,238.71,346.24,238.48Z"/><path class="cls-5" d="M344.89,211.58c-.45,3.41-2.69,20.41-2.69,20.41l5.2.64s6.4-22.19,6.07-25.58-2.72-3.68-2.72-3.68S346.09,202.54,344.89,211.58Z"/><path class="cls-12" d="M349.75,179.57c-1.89-.71-2.36,19.76-2.36,19.76-1.75,1.18-7.19,4.91-8.37,5.5-.48.24-1.76.48-2.25.69a5.32,5.32,0,0,0-1.15.61,24.61,24.61,0,0,0-1.92,2.73c-.09.41-.37,1.46-.09,1.67s.82-1.55.82-1.55l.38-.66c-.3,1.12-1.12,2.85-.72,3.07s1.06-1.45,1.56-2.61c-.35,1.12-.56,2.89-.23,3s.52-2,1.42-3.06c.33-.4,1-.24,1.36-.38a2.78,2.78,0,0,0,.89-.46l1-1.08a13.26,13.26,0,0,1,1.42-.59c.55-.19,1.33-.56,2.05-.78a51.33,51.33,0,0,1,6.42-1.77c1.27-.22,1.87-3.57,2-8.8C352.23,189,353.23,180.87,349.75,179.57Z"/><path class="cls-14" d="M352.54,192c.28-5.58.24-12.45-2.9-13.62-1.24-.46-3.42,2.32-3,13.73A23.65,23.65,0,0,0,352.54,192Z"/><path class="cls-9" d="M341.82,162.57a2.08,2.08,0,0,1,3.27.79,5.33,5.33,0,0,1,.9,0,7.46,7.46,0,0,1,1.39.72,5,5,0,0,1,2.58,3.88,5.76,5.76,0,0,1-1.64,4.72,5,5,0,0,1-1.23,1.14c-.59.35-1.1.15-1.67.33s-.61.64-1.2.51c-.83-.18-1.77-1-2.76-.82a11,11,0,0,1-3.38-.43c-3.07-.83-1.56-6.28-1.16-8.2S339.92,162.08,341.82,162.57Z"/><path class="cls-12" d="M340.25,174.81l-.59,2-.32,1.12a1.06,1.06,0,0,0,.94,1.51,3.51,3.51,0,0,0,3.86-1.79l.53-6.18Z"/><path class="cls-5" d="M344.5,173.47a7.62,7.62,0,0,1-4.84,3.36l.6-2,4.42-3.34Z"/><path class="cls-12" d="M343.19,165.27a3.42,3.42,0,0,0-4.68,1.9,21.62,21.62,0,0,0-.69,2.89c-.44,2.66.69,5.43,2,5.59a6.14,6.14,0,0,0,5.87-4.88A4.93,4.93,0,0,0,343.19,165.27Z"/><path class="cls-12" d="M344.67,170.95a1,1,0,0,0,.79,1.18,1,1,0,0,0,1.1-.95,1,1,0,0,0-.79-1.18A1,1,0,0,0,344.67,170.95Z"/><path class="cls-9" d="M340.79,172.34s1.75.38,1.94.94a2,2,0,0,1-.71,2.11c-.77.7-2.59.45-3.11.14a2.56,2.56,0,0,1-.62-2.64C338.71,172,340.79,172.34,340.79,172.34Z"/><path class="cls-12" d="M341.46,173.5s0,.64-.17.77a2.26,2.26,0,0,1-.75.29,1.17,1.17,0,0,1-1.08-.35l-.07-.09a2.69,2.69,0,0,1-.29-.87,4.06,4.06,0,0,1,1.12-.18A5,5,0,0,1,341.46,173.5Z"/><rect class="cls-14" x="353.89" y="209.34" width="15.05" height="3.72"/><polygon class="cls-14" points="370.51 191.04 367.27 205.19 364.51 205.18 367.71 191.04 370.51 191.04"/><path class="cls-11" d="M300.34,178s5.72.61,7.23,2.2l-3.71,20.13s-7,1.05-11.55-.5c0,0-2.53-16.14-.25-20.09.76-1.32,4.22-1.37,4.22-1.37Z"/><path class="cls-6" d="M303.86,200.29a25.18,25.18,0,0,1,3,3.31c1.43,2.43-.14,6.3-2.84,6.1a13.48,13.48,0,0,0-3.87.15c-3,.74-6.59-.86-8.14-.86a33.58,33.58,0,0,0-4.44.72c-1.58.32-2.57-1.19-2.17-2.75a13.32,13.32,0,0,1,3.3-5.66,7.49,7.49,0,0,1,3.84-1.75C297.54,199.56,303.86,200.29,303.86,200.29Z"/><path class="cls-7" d="M303.86,205.93c-1.26-1.21-3-2.14-5.16-.19S293,230.23,293,230.23s-1.32,2.14-2.52,4c-.84,1.3,2.48,3.54,4,3.07s2.29-6.67,2.29-6.67S307.38,209.3,303.86,205.93Z"/><path class="cls-16" d="M290.49,234.23a40.85,40.85,0,0,0,5.48.83c-.38,1.05-.89,2-1.53,2.24-1.47.47-6,.37-5.8-.37C288.78,236.51,289.66,235.53,290.49,234.23Z"/><path class="cls-17" d="M292.92,205.34a37.59,37.59,0,0,1,2,6.85c1.1,4.92,1.91,20.15,1.91,20.15s3.08,4.15,2.36,4.83-5,.34-5.8,0-.48-4.68-.75-5.78c0,0-7.29-22.6-5.81-25.39S292.2,203.92,292.92,205.34Z"/><path class="cls-16" d="M292.84,235c1,.65,3.86-.18,5.33-.68.72,1.17,1.39,2.48,1,2.84-.71.68-5,.34-5.8,0-.36-.15-.5-1.08-.56-2.17Z"/><path class="cls-9" d="M292.45,173.23s-3.37-6.43-.13-8.44c2.49-1.54,3.6-.42,3.6-.42s3.84-2.71,5.27,1.63c0,0,3,.06,3.58,2.52a3.36,3.36,0,0,1-.79,3.56,3.47,3.47,0,0,1,1.16,3.18c-.39,1.91-3.37,2.83-5.11,1.75s-1.53-.22-2.91-.22S292.45,173.23,292.45,173.23Z"/><path class="cls-12" d="M295.51,175.56s2.17,4,1.46,5.92c-.39,1.09,4.31-3.3,4.31-3.3l-2.5-4.62Z"/><path class="cls-7" d="M299.1,174.15l-.32-.59-3.27,2s.3.55.64,1.34a4,4,0,0,0,1.13-.54A5.14,5.14,0,0,0,299.1,174.15Z"/><path class="cls-12" d="M296.55,165.9a4.66,4.66,0,0,1,2.68,1.59c1.07,1.35,1.49,6.27-1.64,8.37s-5.33-1.32-5.52-4S292.27,165.66,296.55,165.9Z"/><path class="cls-12" d="M299.08,171.53c-.14.72.17,1.36.69,1.45s1.05-.43,1.19-1.15-.17-1.36-.69-1.45S299.22,170.81,299.08,171.53Z"/><path class="cls-9" d="M295.57,165.27c-.52.46.2,2.05,1.62,3.55s3,2.33,3.51,1.87-.2-2.05-1.62-3.55S296.09,164.81,295.57,165.27Z"/><path class="cls-7" d="M273.31,169.59c.21-.45,2.09.87,2.51.62s-1.68-2.37-1.47-2.74c.39-.68,2.44,2.18,2.64,1.87s-1.76-3.35-1.06-3.52,1.71,3.38,2.07,3.15-1.23-3.21-.55-3.82c.36-.33,2.08,5.45,2.7,5.69s1.32-2.28,1.91-2.18-1.92,4.63-1.8,5,2.41,7.76,3.77,10c.81-.39,1.61-.78,2.36-1.16.3,1.72,1,3.22,1.4,4.9-2.62,1.15-5.63,2.3-6.4,2-2.32-.85-3.47-12.12-3.84-14.22s-1.37-2.52-1.93-3.62S273.1,170,273.31,169.59Z"/><path class="cls-11" d="M293.23,179l3.37,4a70.27,70.27,0,0,1-9.19,5.17c-.4-1.69-1.38-4.33-1.69-6A70.12,70.12,0,0,1,293.23,179Z"/><path class="cls-7" d="M324.21,169.18c-.21-.45-2.09.87-2.51.62s1.68-2.37,1.47-2.74c-.39-.68-2.44,2.18-2.64,1.87s1.76-3.35,1.06-3.52-1.71,3.38-2.07,3.15,1.23-3.21.55-3.82c-.36-.33-2.08,5.45-2.7,5.69s-1.32-2.28-1.91-2.18,1.92,4.63,1.8,5-2.41,7.76-3.77,10c-.81-.39-1.61-.78-2.36-1.16-.3,1.72-1.12,3.34-1.52,5,2.62,1.15,5.75,2.17,6.51,1.89,2.32-.85,3.47-12.12,3.84-14.22s1.37-2.52,1.93-3.62S324.42,169.63,324.21,169.18Z"/><path class="cls-11" d="M304,178.6l-.61,9.15s2.35-1.91,6.71,0c.4-1.69,1.38-4.33,1.69-6A58,58,0,0,0,304,178.6Z"/><polygon class="cls-14" points="232.37 236.69 240.96 202.83 246.06 204.09 237.28 236.69 232.37 236.69"/><polygon class="cls-14" points="258.86 236.69 250.59 204.09 255.19 202.83 263.82 236.69 258.86 236.69"/><path class="cls-21" d="M254.78,195.66h-3.89a4.06,4.06,0,0,1-4.06-4.06h12A4.06,4.06,0,0,1,254.78,195.66Z"/><path class="cls-10" d="M254.78,195.66h-3.89a4.06,4.06,0,0,1-4.06-4.06h12A4.06,4.06,0,0,1,254.78,195.66Z"/><path class="cls-15" d="M248.39,191.6h-1.55a4.06,4.06,0,0,0,4.06,4.06h1.55A4.06,4.06,0,0,1,248.39,191.6Z"/><path class="cls-5" d="M246.83,194.87h12a0,0,0,0,1,0,0v0a4.06,4.06,0,0,1-4.06,4.06h-3.89a4.06,4.06,0,0,1-4.06-4.06v0A0,0,0,0,1,246.83,194.87Z"/><path class="cls-6" d="M248.39,194.87h-1.55a4.06,4.06,0,0,0,4.06,4.06h1.55A4.06,4.06,0,0,1,248.39,194.87Z"/><path class="cls-21" d="M254.78,201.45h-3.89a4.06,4.06,0,0,1-4.06-4.06h12A4.06,4.06,0,0,1,254.78,201.45Z"/><path class="cls-4" d="M254.78,201.45h-3.89a4.06,4.06,0,0,1-4.06-4.06h12A4.06,4.06,0,0,1,254.78,201.45Z"/><path class="cls-2" d="M248.39,197.39h-1.55a4.06,4.06,0,0,0,4.06,4.06h1.55A4.06,4.06,0,0,1,248.39,197.39Z"/><path class="cls-7" d="M297.9,198.28c.07,1.19,1.63,2.31,3.21,2.31s3.08-1.18,3.08-2.37c0-1.71-.88-1.71-2-1.61l-.66.05h-.4l-.43,0-.51,0C298.91,196.47,297.79,196.32,297.9,198.28Z"/><path class="cls-4" d="M301.93,195h0Z"/><path class="cls-4" d="M299.57,195.87a.21.21,0,0,1,.31,0c-.22,0-.12.26.06.44a2.8,2.8,0,0,0,1.2,0h.05c-.21-.61.05-2,.86-1.75l-.14.38a.19.19,0,0,0-.09,0c-.34,0-.63.92-.54,1.39.49,0,1.34.25,1.44.1s-.17-.24-.17-.24l-.26.07s.25-.36.5-.28a.39.39,0,0,1,.22.62,4.9,4.9,0,0,1-1.21.08,1.69,1.69,0,0,1,.75.58c.24.38-.26.91-.26.91s.27-.52,0-.81a5.42,5.42,0,0,0-.88-.62l0,1.31a1,1,0,0,1-.29-.76,1.65,1.65,0,0,1,.08-.6l-.27,0a2.88,2.88,0,0,0-.6.25c-.3.18.15.67.15.67a.7.7,0,0,1-.35-.31c-.24-.44,0-.56.25-.65-.17,0-.33,0-.57-.05C299.37,196.53,299.41,196,299.57,195.87Z"/><polygon class="cls-14" points="338.72 236.69 330.17 202.62 325.31 202.83 333.79 236.69 338.72 236.69"/><polygon class="cls-14" points="306.85 236.69 315.39 202.62 310.47 202.62 301.94 236.69 306.85 236.69"/><rect class="cls-15" x="251.36" y="201.25" width="86.25" height="3.29" transform="translate(588.98 405.79) rotate(180)"/><rect class="cls-14" x="233.89" y="201.25" width="64.45" height="3.29" transform="translate(532.23 405.79) rotate(180)"/><polygon class="cls-9" points="332.9 201.25 316.16 216.3 303.86 201.25 332.9 201.25"/><path class="cls-2" d="M285.8,199.65S284,195,284,194.23s.79-1.18,1.21-.28.56,1.89.88,1.54-.79-4.09.46-4.33.45,4.78.94,4.67.76-5.47,2.1-5-.88,5.43-.36,5.43,1.34-4.74,2.83-4-1.88,4.38-1.34,5,2.68-3.86,4.05-2.59-3.39,3.86-3.21,4.06,4.07-3,4.93-1.79-3,1.85-2.78,2.25,2.22-.26,2.1.52-4.33.77-4.33.77Z"/><path class="cls-2" d="M278,197.65c.4-.17.58-.47.26-.78a1.13,1.13,0,0,0-1.62.18,1.21,1.21,0,0,0,0,1.3,1.39,1.39,0,0,0,.5.48,1.47,1.47,0,0,0,.65.2l-.05.22a1.91,1.91,0,0,1-.37-.11,1.81,1.81,0,0,1-.88-.72,1.47,1.47,0,0,1-.06-1.49,1.37,1.37,0,0,1,2.17-.07c.28.43,0,.88-.5,1.1Z"/><path class="cls-15" d="M278.79,199.11s2.95-.23,3.23-.32.21-.7,1.31-.9,1.77.13,1.9.67-.65,1-.93.61-.37-.78-1-.7a2.1,2.1,0,0,0-1.12.59Z"/><path class="cls-11" d="M289,198.38s-.35,2.07-3.17,1.76-3.81.63-6.26.52a4.55,4.55,0,0,1-3.55-5.9C277,191.55,288.5,190.46,289,198.38Z"/><path class="cls-5" d="M289,198.24a1,1,0,0,1-.06.47c-.21.56-.93,1.8-3.12,1.56-2.88-.32-3.8.53-6.25.4a4.23,4.23,0,0,1-3.61-5.36C276.88,192.45,288.21,191.31,289,198.24Z"/><path class="cls-8" d="M275.94,195.31c1-2.63,11.08-3.67,12.82,2a6.9,6.9,0,0,1,.22,1,5.24,5.24,0,0,0-3.54-4.6c-3.28-1.33-7.45-.53-8.94.84A1.86,1.86,0,0,0,275.94,195.31Z"/><path class="cls-7" d="M278.29,199.56s-1.82-.86-1.89-2.38a3.26,3.26,0,0,1,2.48-3.05c1.17-.26-.23.32-.72,2.23S279.25,199.6,278.29,199.56Z"/><path class="cls-7" d="M287.63,198.31a.87.87,0,0,0,.86-1,2.67,2.67,0,0,0-1-1.55c-1.7-1.45-6.77-2.65-7.21-1.59s2.26,1.35,2.63,2.9C283.18,198.29,286.26,198.34,287.63,198.31Z"/><path class="cls-7" d="M287.48,198.93a.42.42,0,0,1,.27.66,1.5,1.5,0,0,1-1.46.5,21.84,21.84,0,0,0-4.66.12c-1.4.16-2.5.18-2.45-.27s2.68-1.14,3.23-1.52S286.19,198.67,287.48,198.93Z"/><path class="cls-13" d="M296.8,198.49a2.28,2.28,0,0,1-2,2.12,9.87,9.87,0,0,1-5.48-.87,1.07,1.07,0,0,1-.22-.94c0-.29.13-.12,1.36-.48s1.39-.05,2.58-.61S296.75,197.35,296.8,198.49Z"/><path class="cls-4" d="M289.81,199.38a1,1,0,0,1-.6-.43h0c-.17-.26-.13-.61,1.11-1a13.38,13.38,0,0,0,2.68-.78c1.19-.55,3.78.12,3.83,1.27a.63.63,0,0,1,0,.17,2.83,2.83,0,0,1-2,1.21A12.62,12.62,0,0,1,289.81,199.38Z"/><path class="cls-8" d="M296.39,198.87a.61.61,0,0,0,0-.79,3.42,3.42,0,0,0-3.34-.73,6.3,6.3,0,0,1-1.66.54c-.49.1-2.5.43-2,1.11.24.36,1.07.4,1.51.5s.87.17,1.31.22a6.2,6.2,0,0,0,1.42.1A3.8,3.8,0,0,0,296.39,198.87Z"/><path class="cls-5" d="M292.9,197.59c-.89.12-1.52.61-1.42,1.1s.9.79,1.79.67,1.52-.61,1.42-1.1S293.79,197.47,292.9,197.59Z"/><path class="cls-2" d="M280,197c.4-.17.58-.47.27-.78a1.13,1.13,0,0,0-1.62.18,1.21,1.21,0,0,0,0,1.3,1.39,1.39,0,0,0,.5.48,1.47,1.47,0,0,0,.65.2l-.05.22a1.91,1.91,0,0,1-.37-.11,1.81,1.81,0,0,1-.88-.72,1.47,1.47,0,0,1-.06-1.49,1.37,1.37,0,0,1,2.17-.07c.28.43,0,.88-.5,1.1Z"/><path class="cls-16" d="M288.41,198.32c0-1-1.16-1.86-2.59-1.86a2.79,2.79,0,0,0-2.35,1.08c-2.14.09-3.79.64-3.79,1.31,0,.31.34.53.6.67a5.57,5.57,0,0,0,1.6.48,18.77,18.77,0,0,0,2.05.24,14.4,14.4,0,0,0,2,0,3.89,3.89,0,0,0,1.52-.4,1.65,1.65,0,0,0,1-1.54Z"/><path class="cls-15" d="M280.82,198.43s2.95-.23,3.23-.32.21-.7,1.31-.9,1.77.13,1.9.67-.65,1-.93.61-.37-.78-1-.7a2.1,2.1,0,0,0-1.12.59Z"/><path class="cls-2" d="M281.06,198.31l-.31.15.25.21-.34.1.33.21h0l-.37.19.3.23-.37.15,0,.22a1.33,1.33,0,0,1-1.21-.86,1,1,0,0,1,0-.26c.1-.92,1.69-.88,1.69-.88l-.24.15.16,0-.19.15Z"/><path class="cls-6" d="M294.71,198.6c.05.94,1.3,1.83,2.55,1.83s2.44-.94,2.44-1.88c0-1.36-.7-1.35-1.59-1.28l-.53,0h-.66l-.41,0C295.51,197.16,294.62,197,294.71,198.6Z"/><path class="cls-2" d="M297.9,196h0Z"/><path class="cls-2" d="M296,196.69a.17.17,0,0,1,.24,0c-.17,0-.09.2,0,.35a2.22,2.22,0,0,0,1,0h0c-.16-.48,0-1.58.68-1.38l-.11.3-.07,0c-.27,0-.5.73-.43,1.1.39,0,1.06.2,1.14.08s-.14-.19-.14-.19l-.2.05s.2-.29.4-.22a.31.31,0,0,1,.17.49,3.87,3.87,0,0,1-1,.06,1.35,1.35,0,0,1,.59.46c.19.3-.2.72-.2.72s.21-.42,0-.64a4.31,4.31,0,0,0-.7-.5l0,1a.82.82,0,0,1-.23-.6,1.31,1.31,0,0,1,.07-.47l-.21,0a2.28,2.28,0,0,0-.48.2c-.24.15.12.53.12.53a.55.55,0,0,1-.28-.24c-.19-.35,0-.44.2-.52-.13,0-.26,0-.45,0S295.9,196.81,296,196.69Z"/><path class="cls-4" d="M264.27,186.65V179h1.92v7.69h0a1.41,1.41,0,0,1,1.41,1.42V201.3h-4.74V188.06a1.41,1.41,0,0,1,1.41-1.42Z"/><path class="cls-2" d="M264.27,186.65V179h1v7.69a1.41,1.41,0,0,0-1.41,1.42V201.3h-1V188.06A1.41,1.41,0,0,1,264.27,186.65Z"/><rect class="cls-6" x="264.27" y="178.96" width="1.92" height="3.73" transform="translate(530.45 361.64) rotate(180)"/><rect class="cls-6" x="262.86" y="192.66" width="4.74" height="6.74" transform="translate(530.45 392.06) rotate(180)"/><path class="cls-5" d="M272.49,201.38a.48.48,0,0,0,.35-.15.47.47,0,0,0,.12-.34l-.32-5.93c0-.21-.39-.43-.52-.49l-.07,0v-3.56h-1.41v3.56l-.07,0c-.13.06-.51.28-.52.49l-.32,5.93a.47.47,0,0,0,.12.34.48.48,0,0,0,.35.15Z"/><path class="cls-6" d="M269.75,200.91l.32-6c0-.21.39-.43.52-.49l.07,0v-3.61h.59v3.61l-.07,0c-.13.06-.51.28-.52.49l-.32,6a.48.48,0,0,0,.48.51h-.59a.48.48,0,0,1-.48-.51Z"/><path class="cls-2" d="M273.08,200.9l-.32-6c0-.33-.59-.59-.59-.59v-3.65h-1.63v3.65s-.57.26-.59.59l-.32,6a.59.59,0,0,0,.59.63h2.27A.59.59,0,0,0,273.08,200.9Zm-.32.28a.36.36,0,0,1-.27.12h-2.27a.37.37,0,0,1-.37-.38l.32-6c0-.11.24-.3.45-.39l.13-.06v-3.57H272v3.57l.13.06c.21.1.45.29.46.39l.32,6A.36.36,0,0,1,272.77,201.18Z"/><rect class="cls-6" x="270.24" y="190.31" width="2.25" height="0.33" transform="translate(542.73 380.96) rotate(180)"/><rect class="cls-13" x="270.24" y="190.31" width="2.25" height="0.12" transform="translate(542.73 380.74) rotate(180)"/><rect class="cls-22" x="270.06" y="189.73" width="2.71" height="0.58" rx="0.29" ry="0.29" transform="translate(542.83 380.04) rotate(180)"/><rect class="cls-6" x="270.06" y="189.73" width="2.71" height="0.58" rx="0.29" ry="0.29" transform="translate(542.83 380.04) rotate(180)"/><ellipse class="cls-9" cx="271.38" cy="198.08" rx="1.31" ry="1.94"/><ellipse class="cls-10" cx="271.38" cy="198.08" rx="1.18" ry="1.74"/><path class="cls-23" d="M275.72,201.3h28.7a1.76,1.76,0,0,0,1.76-1.76H274A1.76,1.76,0,0,0,275.72,201.3Z"/><polygon class="cls-8" points="297.63 201.25 273.64 218.99 241.68 201.25 297.63 201.25"/><path class="cls-12" d="M222.51,232.64s.18,1.51.18,1.76v.26l-.13.26,0,.1.9,1.27,3.7.05c.08,0-.48-.88-.48-.88s-1.2-.9-1.41-1.54a4.49,4.49,0,0,1,.18-2Z"/><path class="cls-12" d="M205,223.61s-1.29.8-1.49,1l-.2.16-.13.26-.05.1-1.55.08-2.35-2.87c-.05-.06.66.09.66.09a6.37,6.37,0,0,0,2.08,0,9,9,0,0,0,1.9-1.48Z"/><path class="cls-6" d="M216.77,209.46l-13.9,11.84,2.14,3s13.64-8.57,14.39-8.67,1.92.16,2.06.71.58,16.7.58,16.7h3.71l1.94-20.61Z"/><path class="cls-12" d="M236.8,192.57a39.94,39.94,0,0,0,4.26-4.15,2.77,2.77,0,0,1,.74-1.47c.46-.54.82-1.77,1.12-1.42s-.45,1.32-.11,1.33,2.07-1.93,2.34-1.61-1.47,2-1.16,2,1.73-1.73,2.12-1.29-1.86,1.89-1.65,2.13,1.6-.71,1.92-.35-2,1.2-1.78,1.21,1.5,0,1.51.22-3.33.73-3.74,1.23h0c-.87,1.39-2.42,3.92-4,5-1.92,1.36-6.37,4.25-6.37,4.25l-2.21-2.85S235.58,193.37,236.8,192.57Z"/><path class="cls-7" d="M242.82,187.48a1.37,1.37,0,0,1,.13.54,1.34,1.34,0,0,1-.43,1.08A2.28,2.28,0,0,0,242.82,187.48Z"/><path class="cls-12" d="M216.42,189.45a39.91,39.91,0,0,1-3-5.12,2.76,2.76,0,0,0-.34-1.61c-.31-.64-.33-1.92-.71-1.66s.09,1.4-.25,1.31-1.49-2.4-1.84-2.17.89,2.35.59,2.27-1.21-2.12-1.71-1.8,1.3,2.31,1,2.49-1.36-1.1-1.76-.84S210,184,209.81,184s-1.44-.42-1.51-.18,3,1.58,3.28,2.16h0c.48,1.57,1.31,4.42,2.54,5.91,1.5,1.82,5,5.77,5,5.77l2.88-2.18S217.39,190.54,216.42,189.45Z"/><path class="cls-7" d="M211.93,183a1.37,1.37,0,0,0-.27.48,1.34,1.34,0,0,0,.14,1.16A2.28,2.28,0,0,1,211.93,183Z"/><path class="cls-11" d="M218.75,191.56l-2.6,3.39,3.22,4.79a26,26,0,0,1-.77,4.67c-.46,1.11-3.15,5.68-3.15,5.68s6.53,4,12.91,3.41c0,0,1.8-9.25,2.3-10.14s5-4.92,5-4.92l-2-4.19-4.08,2.26s-7.46-1.21-7.82-1.56S218.75,191.56,218.75,191.56Z"/><path class="cls-5" d="M227.17,184.63s-2.52-1.33-3.38.88a1.66,1.66,0,0,0-1.87,2.11s-2.28,1.14-.84,4.09c0,0-.63,2.77,2.61,2.95a1.77,1.77,0,0,0,2,.75,3.55,3.55,0,0,0,1.86-.62s2.63.77,3.42-1.6c0,0,1.8-.43.59-2.75,0,0,1.58-3-1.2-3.91C230.33,186.55,230,183.47,227.17,184.63Z"/><ellipse class="cls-12" cx="228.88" cy="191.39" rx="1.1" ry="0.74" transform="translate(-28.51 342.28) rotate(-70.28)"/><ellipse class="cls-12" cx="222.13" cy="189.77" rx="1.1" ry="0.74" transform="translate(22.09 402.7) rotate(-87.29)"/><path class="cls-12" d="M224.27,193.75s-.33,1.45-.5,2.19a.6.6,0,0,0,.33.68c.69.32,2.05.76,3-.1a.39.39,0,0,0,.13-.31l-.12-3.36Z"/><path class="cls-7" d="M224.1,194.54a2.72,2.72,0,0,0,2.69-.23l.37-.24,0-1.2-2.84.89S224.2,194.11,224.1,194.54Z"/><path class="cls-12" d="M226.29,186a3.61,3.61,0,0,1,2,1.53c.73,1.21,1.13,4.7-1.47,6.22s-4.5-.84-4.45-3.07S223.38,185.59,226.29,186Z"/><path class="cls-11" d="M221.85,237.22c-.55-.07.4-2,.71-2.3l4.07.55a14.38,14.38,0,0,1,2.42,1.37c.11.11.12.3-.35.37A40.77,40.77,0,0,1,221.85,237.22Z"/><path class="cls-11" d="M201.83,227c.48.29,1.35-1.58,1.4-2l-3.29-2.59s-2.54-.73-3-.22S200.74,226.35,201.83,227Z"/></svg>