<svg id="Layer_1" data-name="Layer 1" xmlns="http://www.w3.org/2000/svg" xmlns:xlink="http://www.w3.org/1999/xlink" viewBox="0 0 56 56"><defs><style>.cls-1{fill:url(#radial-gradient);}.cls-2{fill:#fff;}</style><radialGradient id="radial-gradient" cx="9.7" cy="43.75" fx="-25.160363665466022" r="113.03" gradientTransform="translate(-23.53 27.88) rotate(-49.2) scale(1 0.81)" gradientUnits="userSpaceOnUse"><stop offset="0" stop-color="#f9ed32"/><stop offset="0.06" stop-color="#f8d939"/><stop offset="0.19" stop-color="#f5a54d"/><stop offset="0.37" stop-color="#f0536c"/><stop offset="0.45" stop-color="#ee2a7b"/><stop offset="0.6" stop-color="#9e2aa7"/><stop offset="0.74" stop-color="#5b2acd"/><stop offset="0.86" stop-color="#2a2ae8"/><stop offset="0.95" stop-color="#0b2af9"/><stop offset="1" stop-color="#002aff"/></radialGradient></defs><title>instagram</title><rect class="cls-1" x="0.2" y="0.2" width="55.6" height="55.6" rx="9.5" ry="9.5"/><path class="cls-2" d="M36.85,50.05H19.15A14.27,14.27,0,0,1,4.9,35.8V20.2A14.27,14.27,0,0,1,19.15,5.95H36.85A14.27,14.27,0,0,1,51.1,20.2V35.8A14.27,14.27,0,0,1,36.85,50.05ZM19.15,9.11A11.1,11.1,0,0,0,8.06,20.2V35.8A11.1,11.1,0,0,0,19.15,46.89H36.85A11.1,11.1,0,0,0,47.94,35.8V20.2A11.1,11.1,0,0,0,36.85,9.11Z"/><path class="cls-2" d="M28,40.69A12.69,12.69,0,1,1,40.69,28,12.7,12.7,0,0,1,28,40.69Zm0-22.2A9.52,9.52,0,1,0,37.52,28,9.53,9.53,0,0,0,28,18.48Z"/><circle class="cls-2" cx="40.49" cy="15.7" r="2.63"/></svg>