<svg id="Layer_1" data-name="Layer 1" xmlns="http://www.w3.org/2000/svg" viewBox="0 0 56 56"><defs><style>.cls-1{fill:#007bbc;}.cls-2{fill:#fff;}</style></defs><title>linkedin</title><rect class="cls-1" x="0.09" y="0.09" width="55.81" height="55.81" rx="9.54" ry="9.54"/><path class="cls-2" d="M46,31.9V44.62a.57.57,0,0,1-.57.57H38.86a.57.57,0,0,1-.57-.57V32.79c0-3.11-1.11-5.24-3.9-5.24a4.22,4.22,0,0,0-4,2.82,5.28,5.28,0,0,0-.26,1.88V44.62a.57.57,0,0,1-.57.57H23a.57.57,0,0,1-.57-.57c0-3.15.08-18.44,0-22a.57.57,0,0,1,.57-.58h6.55a.57.57,0,0,1,.57.57v2.72l-.05.08h.05v-.08a7.65,7.65,0,0,1,6.95-3.83C42.2,21.46,46,24.78,46,31.9ZM11.07,45.19h6.57a.57.57,0,0,0,.57-.57v-22a.57.57,0,0,0-.57-.57H11.07a.57.57,0,0,0-.57.57v22A.57.57,0,0,0,11.07,45.19Z"/><circle class="cls-2" cx="14.13" cy="14.93" r="4.13"/></svg>