<svg id="Layer_1" data-name="Layer 1" xmlns="http://www.w3.org/2000/svg" viewBox="0 0 30 30"><defs><style>.cls-1{fill:#ec3158;}</style></defs><title>scissor-red</title><path class="cls-1" d="M7.87.19S6.3,2,7.17,3.55c.68,1.19,4.46,8.71,6.14,12.07l-2.72,4.75a3.93,3.93,0,0,0-3-.32A5.57,5.57,0,0,0,4.3,22.7c-1.41,2.47-.87,5.43,1.2,6.62a3.92,3.92,0,0,0,3,.33A5.59,5.59,0,0,0,11.82,27a6,6,0,0,0,.69-1.87h0s0-.1,0-.16C13.12,21,14.22,19,15,18.08c.78,1,1.88,3,2.46,6.89,0,.06,0,.11,0,.16h0A6.09,6.09,0,0,0,18.18,27a5.61,5.61,0,0,0,3.3,2.65,3.91,3.91,0,0,0,3-.33c2.08-1.19,2.62-4.15,1.2-6.62a5.58,5.58,0,0,0-3.3-2.65,3.91,3.91,0,0,0-3,.32l-2.72-4.75c1.68-3.36,5.46-10.89,6.14-12.07C23.7,2,22.13.19,22.13.19L15,12.67ZM9.46,22.4c.94.55,1.1,2.12.33,3.45a3.28,3.28,0,0,1-1.89,1.57,1.63,1.63,0,0,1-1.24-.11c-.94-.54-1.1-2.12-.34-3.44a3.24,3.24,0,0,1,1.89-1.57,1.65,1.65,0,0,1,1.25.1Zm12.32-.1a3.24,3.24,0,0,1,1.89,1.57c.76,1.33.61,2.9-.34,3.44a1.63,1.63,0,0,1-1.25.11,3.28,3.28,0,0,1-1.89-1.57c-.76-1.33-.61-2.9.33-3.45a1.64,1.64,0,0,1,1.25-.1Zm0,0"/></svg>