<svg id="Layer_1" data-name="Layer 1" xmlns="http://www.w3.org/2000/svg" viewBox="0 0 56 56"><defs><style>.cls-1{fill:#7bc5f8;}.cls-2{fill:#fff;}</style></defs><title>twitter</title><rect class="cls-1" x="0.09" y="0.09" width="55.81" height="55.81" rx="9.54" ry="9.54"/><path class="cls-2" d="M46,16.66a5.21,5.21,0,0,1-1.51.2l0-.16c.79-.63,2.78-2.57,3-3.47.11-.39,0-.53,0-.54L45,13.76l-2.13,1h0a8.48,8.48,0,0,0-6.17-2.54c-4.42,0-8,3.13-8,7A10.38,10.38,0,0,0,29,21.8c0,.2,0-.2,0,0a25,25,0,0,1-9.74-2.89c-6.41-3.25-6.81-5.49-6.81-5.49-1,1.07-1.53,4.61-.51,7.38a9.2,9.2,0,0,0,2.9,3.37h0a6.8,6.8,0,0,1-2.06-.34,4.54,4.54,0,0,1-1.45-.71c-.63,1.53.63,4.25,2.8,6.2a11.49,11.49,0,0,0,3.57,1.85l-3.61.1c-.2,3.51,7.35,5.59,7.35,5.59h0a12.35,12.35,0,0,1-7.54,2.74A14.35,14.35,0,0,1,9.8,39a19.62,19.62,0,0,0,13.4,4.8c13.49-.71,21.1-12.3,21.46-23.69l0,0a9.47,9.47,0,0,0,2-1.67,14,14,0,0,0,2.19-2.93S46.83,16.42,46,16.66Z"/><path class="cls-2" d="M47.51,12.68c0,.22,0,0,0,0Z"/></svg>